<?xml version="1.0" encoding="UTF-8" standalone="no"?>

<svg width="1200" height="1500" viewBox="0 0 1200 1500" version="1.1" xml:space="preserve"
  xmlns="http://www.w3.org/2000/svg"
  xmlns:svg="http://www.w3.org/2000/svg"
  xmlns:rdf="http://www.w3.org/1999/02/22-rdf-syntax-ns#"
  xmlns:cc="http://creativecommons.org/ns#"
  xmlns:dc="http://purl.org/dc/elements/1.1/">
  <defs id="defs5456">

    <clipPath clipPathUnits="userSpaceOnUse" id="clipPath11261">
      <rect style="fill:#ebebeb;fill-opacity:1;stroke-width:0.819;stroke-linecap:round;stroke-linejoin:round;stroke-dasharray:none" id="rect11263" width="29.289364" height="9.6835613" x="505.86517" y="310.69754" />
    </clipPath>

    <g id="tree">
      <path style="fill:#273d27;fill-opacity:1;stroke-width:1.70433;stroke-linecap:round;stroke-linejoin:round" d="m 733.42188,589.89448 c 0,0 -0.46584,18.7218 -1.19718,20.91756 -0.73134,2.19575 -0.95073,3.54665 -0.95073,3.54665 0,0 1.74311,1.31231 3.25833,0.81516 1.51523,-0.49715 2.85057,0.12636 2.89317,-0.49862 0.0426,-0.62499 -1.2243,-4.47782 -1.42098,-5.61826 -0.19668,-1.14044 -0.39685,-3.79795 -0.19153,-6.08117 0.20533,-2.28323 0.41755,-10.30375 0.20314,-12.38914 -0.21439,-2.0854 -2.59422,-0.69218 -2.59422,-0.69218 z" id="path78" />
      <path style="fill:#235623;fill-opacity:1;stroke-width:1.70731;stroke-linecap:round;stroke-linejoin:round" d="m 734.63217,598.12683 c -0.81746,2.31793 -8.42938,7.61631 -8.42938,7.61631 0,0 4.87984,0.10624 7.9948,0.10347 3.11497,-0.003 9.38014,-0.15699 9.38014,-0.15699 0,0 -7.80059,-4.66139 -8.94556,-7.56279 z" id="path80" />
      <path style="fill:#235623;fill-opacity:1;stroke-width:1.95506;stroke-linecap:round;stroke-linejoin:round" d="m 734.82017,593.00193 c -0.94031,2.64233 -9.0442,8.73378 -9.0442,8.73378 0,0 5.14021,-0.0228 8.72326,-0.026 3.58306,-0.003 8.83472,0.23582 8.83472,0.23582 0,0 -7.19676,-5.63617 -8.51378,-8.94363 z" id="path82" />
      <path style="fill:#ebebeb;fill-opacity:1;stroke-width:1.80927;stroke-linecap:round;stroke-linejoin:round" d="m 734.78209,591.51497 c -0.8053,2.64232 -7.74565,8.73377 -7.74565,8.73377 0,0 4.40219,-0.0228 7.47079,-0.026 3.06861,-0.003 7.56625,0.23581 7.56625,0.23581 0,0 -6.16346,-5.63617 -7.29139,-8.94362 z" id="path84" />
      <path style="fill:#235623;fill-opacity:1;stroke-width:1.70019;stroke-linecap:round;stroke-linejoin:round" d="m 734.21899,589.74308 c -0.81064,2.31793 -8.359,7.61631 -8.359,7.61631 0,0 4.83909,0.10624 7.92805,0.10348 3.08895,-0.003 9.30181,-0.157 9.30181,-0.157 0,0 -7.73545,-4.66138 -8.87086,-7.56279 z" id="path86" />
      <path style="fill:#235623;fill-opacity:1;stroke-width:1.543;stroke-linecap:round;stroke-linejoin:round" d="m 734.49846,585.29494 c -0.66769,2.31793 -7.54003,8.28252 -7.54003,8.28252 0,0 4.64082,-0.55997 7.18508,-0.56273 2.54426,-0.003 7.71277,1.36358 7.71277,1.36358 0,0 -6.42262,-6.18196 -7.35782,-9.08337 z" id="path88" />
      <path style="fill:#ebebeb;fill-opacity:1;stroke-width:1.47811;stroke-linecap:round;stroke-linejoin:round" d="m 734.49096,584.30363 c -0.61271,2.31793 -6.91905,8.28252 -6.91905,8.28252 0,0 4.2586,-0.55997 6.59333,-0.56273 2.33472,-0.003 7.07757,1.36358 7.07757,1.36358 0,0 -5.89367,-6.18196 -6.75185,-9.08337 z" id="path90" />
      <path style="fill:#235623;fill-opacity:1;stroke-width:1.65677;stroke-linecap:round;stroke-linejoin:round" d="m 734.31243,577.47513 c -1.42833,3.03504 -4.84599,8.5089 -4.84599,8.5089 0,0 3.06703,-1.59804 5.03454,-1.60217 1.96751,-0.004 5.03079,1.4876 5.03079,1.4876 0,0 -3.75873,-5.12724 -5.21934,-8.39433 z" id="path92" />
      <path style="fill:#235623;fill-opacity:1;stroke-width:1.48164;stroke-linecap:round;stroke-linejoin:round" d="m 734.62649,579.67716 c -0.51634,2.76372 -6.42037,9.83141 -6.42037,9.83141 0,0 4.26273,-1.12096 6.23024,-1.12426 1.96751,-0.003 6.30091,1.53673 6.30091,1.53673 0,0 -5.38758,-6.78447 -6.11078,-10.24388 z" id="path94" />
      <path style="fill:#ebebeb;fill-opacity:1;stroke-width:1.23839;stroke-linecap:round;stroke-linejoin:round" d="m 734.34987,577.37966 c -1.14182,2.12119 -3.87395,5.94688 -3.87395,5.94688 0,0 2.45183,-1.11687 4.02469,-1.11976 1.57285,-0.003 4.02169,1.03969 4.02169,1.03969 0,0 -3.00479,-3.58344 -4.17243,-5.86681 z" id="path96" />
    </g>

    <pattern id="buildings-a" width="320" height="160" patternUnits="userSpaceOnUse">
      <g fill="#42425f">
        <rect width="80" height="120" x="0" y="0" rx="10" />
        <rect width="80" height="80" x="160" y="40" rx="10" />
      </g>
    </pattern>

    <pattern id="buildings-b" width="320" height="200" patternUnits="userSpaceOnUse">
      <g fill="#4d4d61">
        <rect width="80" height="80" x="60" y="40" rx="10" />
        <rect width="80" height="120" x="220" y="0" rx="10" />
      </g>
    </pattern>

    <pattern id="stars" width="125" height="125" patternUnits="userSpaceOnUse">
      <g fill="#8488ab" transform="scale(.5)" id="g226">
        <rect width="3" height="3" x="007" y="011" id="rect16" />
        <rect width="3" height="3" x="016" y="156" id="rect18" />
        <rect width="3" height="3" x="024" y="058" id="rect20" />
        <rect width="3" height="3" x="026" y="283" id="rect22" />
        <rect width="3" height="3" x="028" y="219" id="rect24" />
        <rect width="3" height="3" x="036" y="461" id="rect26" />
        <rect width="3" height="3" x="037" y="272" id="rect28" />
        <rect width="3" height="3" x="038" y="391" id="rect30" />
        <rect width="3" height="3" x="039" y="473" id="rect32" />
        <rect width="3" height="3" x="041" y="096" id="rect34" />
        <rect width="3" height="3" x="056" y="329" id="rect36" />
        <rect width="3" height="3" x="059" y="036" id="rect38" />
        <rect width="3" height="3" x="064" y="191" id="rect40" />
        <rect width="3" height="3" x="069" y="112" id="rect42" />
        <rect width="3" height="3" x="077" y="115" id="rect44" />
        <rect width="3" height="3" x="079" y="204" id="rect46" />
        <rect width="3" height="3" x="083" y="272" id="rect48" />
        <rect width="3" height="3" x="087" y="448" id="rect50" />
        <rect width="3" height="3" x="094" y="231" id="rect52" />
        <rect width="3" height="3" x="094" y="356" id="rect54" />

        <rect width="3" height="3" x="103" y="023" id="rect56" />
        <rect width="3" height="3" x="108" y="149" id="rect58" />
        <rect width="3" height="3" x="109" y="411" id="rect60" />
        <rect width="3" height="3" x="109" y="055" id="rect62" />
        <rect width="3" height="3" x="112" y="352" id="rect64" />
        <rect width="3" height="3" x="113" y="099" id="rect66" />
        <rect width="3" height="3" x="116" y="320" id="rect68" />
        <rect width="3" height="3" x="125" y="247" id="rect70" />
        <rect width="3" height="3" x="129" y="460" id="rect72" />
        <rect width="3" height="3" x="135" y="476" id="rect74" />
        <rect width="3" height="3" x="142" y="199" id="rect76" />
        <rect width="3" height="3" x="149" y="141" id="rect78" />
        <rect width="3" height="3" x="159" y="331" id="rect80" />
        <rect width="3" height="3" x="162" y="361" id="rect82" />
        <rect width="3" height="3" x="164" y="075" id="rect84" />
        <rect width="3" height="3" x="165" y="027" id="rect86" />
        <rect width="3" height="3" x="167" y="290" id="rect88" />
        <rect width="3" height="3" x="168" y="427" id="rect90" />
        <rect width="3" height="3" x="179" y="070" id="rect92" />
        <rect width="3" height="3" x="183" y="248" id="rect94" />
        <rect width="3" height="3" x="186" y="207" id="rect96" />
        <rect width="3" height="3" x="199" y="319" id="rect98" />
        <rect width="3" height="3" x="199" y="444" id="rect100" />

        <rect width="3" height="3" x="202" y="105" id="rect102" />
        <rect width="3" height="3" x="210" y="406" id="rect104" />
        <rect width="3" height="3" x="217" y="195" id="rect106" />
        <rect width="3" height="3" x="219" y="370" id="rect108" />
        <rect width="3" height="3" x="224" y="253" id="rect110" />
        <rect width="3" height="3" x="224" y="032" id="rect112" />
        <rect width="3" height="3" x="230" y="144" id="rect114" />
        <rect width="3" height="3" x="232" y="479" id="rect116" />
        <rect width="3" height="3" x="240" y="430" id="rect118" />
        <rect width="3" height="3" x="246" y="306" id="rect120" />
        <rect width="3" height="3" x="249" y="111" id="rect122" />
        <rect width="3" height="3" x="251" y="344" id="rect124" />
        <rect width="3" height="3" x="268" y="215" id="rect126" />
        <rect width="3" height="3" x="275" y="379" id="rect128" />
        <rect width="3" height="3" x="283" y="259" id="rect130" />
        <rect width="3" height="3" x="286" y="074" id="rect132" />
        <rect width="3" height="3" x="290" y="422" id="rect134" />
        <rect width="3" height="3" x="296" y="017" id="rect136" />

        <rect width="3" height="3" x="304" y="269" id="rect138" />
        <rect width="3" height="3" x="305" y="476" id="rect140" />
        <rect width="3" height="3" x="312" y="293" id="rect142" />
        <rect width="3" height="3" x="314" y="367" id="rect144" />
        <rect width="3" height="3" x="314" y="137" id="rect146" />
        <rect width="3" height="3" x="319" y="202" id="rect148" />
        <rect width="3" height="3" x="321" y="440" id="rect150" />
        <rect width="3" height="3" x="334" y="329" id="rect152" />
        <rect width="3" height="3" x="340" y="101" id="rect154" />
        <rect width="3" height="3" x="347" y="280" id="rect156" />
        <rect width="3" height="3" x="348" y="417" id="rect158" />
        <rect width="3" height="3" x="363" y="384" id="rect160" />
        <rect width="3" height="3" x="363" y="032" id="rect162" />
        <rect width="3" height="3" x="366" y="190" id="rect164" />
        <rect width="3" height="3" x="370" y="233" id="rect166" />
        <rect width="3" height="3" x="374" y="480" id="rect168" />
        <rect width="3" height="3" x="375" y="373" id="rect170" />

        <rect width="3" height="3" x="402" y="124" id="rect172" />
        <rect width="3" height="3" x="402" y="444" id="rect174" />
        <rect width="3" height="3" x="402" y="078" id="rect176" />
        <rect width="3" height="3" x="404" y="315" id="rect178" />
        <rect width="3" height="3" x="409" y="398" id="rect180" />
        <rect width="3" height="3" x="411" y="343" id="rect182" />
        <rect width="3" height="3" x="413" y="220" id="rect184" />
        <rect width="3" height="3" x="418" y="402" id="rect186" />
        <rect width="3" height="3" x="427" y="160" id="rect188" />
        <rect width="3" height="3" x="427" y="051" id="rect190" />
        <rect width="3" height="3" x="430" y="263" id="rect192" />
        <rect width="3" height="3" x="432" y="210" id="rect194" />
        <rect width="3" height="3" x="435" y="247" id="rect196" />
        <rect width="3" height="3" x="436" y="472" id="rect198" />
        <rect width="3" height="3" x="436" y="021" id="rect200" />
        <rect width="3" height="3" x="447" y="019" id="rect202" />
        <rect width="3" height="3" x="450" y="362" id="rect204" />
        <rect width="3" height="3" x="452" y="273" id="rect206" />
        <rect width="3" height="3" x="453" y="441" id="rect208" />
        <rect width="3" height="3" x="457" y="197" id="rect210" />
        <rect width="3" height="3" x="464" y="132" id="rect212" />
        <rect width="3" height="3" x="471" y="414" id="rect214" />
        <rect width="3" height="3" x="472" y="302" id="rect216" />
        <rect width="3" height="3" x="480" y="070" id="rect218" />
        <rect width="3" height="3" x="482" y="480" id="rect220" />
        <rect width="3" height="3" x="483" y="014" id="rect222" />
        <rect width="3" height="3" x="491" y="023" id="rect224" />
      </g>
    </pattern>

  </defs>

  <g>
    <rect class="background" style="fill:#262730;fill-opacity:1;stroke-width:0.953204;stroke-linecap:round;stroke-linejoin:round" id="rect413" width="100%" height="1511.8795" x="0" y="0" />

    <rect class="stars" width="200%" height="90%" x="0" y="0" fill="url(#stars)" rx="0" ry="0" id="rect233">
      <animateTransform attributeName="transform" attributeType="XML" type="translate" begin="-2s" from="-125,-125" to="0,0" dur="20s" repeatCount="indefinite" />
    </rect>

    <g class="mountain" transform="translate(198.31431,176.99397)">
      <path style="fill:#40654d;fill-opacity:1;stroke-width:55.2059;stroke-linecap:round;stroke-linejoin:round" d="m -447.82867,1078.3615 c 0,0 101.0771,-82.03417 113.84865,-97.87964 0.88986,-1.10405 2.83765,-0.10246 4.25088,0 9.77524,0.70982 21.31239,0.13337 30.90092,1.93124 1.90633,0.35744 4.25111,-0.28263 5.73818,0.96372 0.35333,0.29608 1.35824,1.53763 1.7215,1.27721 2.61644,-1.87605 7.32728,-6.0024 9.53763,-8.58433 8.08407,-9.4434 -4.73368,-16.9742 -0.84165,-27.45777 1.00579,-2.70907 5.77315,0 8.65968,0 6.69104,0 21.19607,1.33631 27.0556,4.83097 2.48579,1.48251 -0.95762,5.65492 4.41532,7.6573 8.9056,3.31906 52.8154,-9.73407 60.7742,-15.45312 10.59128,-7.61072 -0.18466,-35.33729 4.68787,-46.2274 3.18577,-7.12022 16.64299,-8.0045 23.63416,-15.0048 7.54832,-7.55824 10.68577,-9.08067 15.36656,-18.15066 0.3818,-0.73982 11.48369,-3.53802 12.88252,-2.13773 5.62015,5.6259 9.64271,9.04167 12.90656,17.33443 0.36239,0.92072 4.33265,11.17702 6.10321,12.47668 24.81165,18.21209 56.136778,-7.67878 76.450286,-22.47093 8.750297,-6.3719 34.99928,-21.74999 39.347754,-30.45829 3.054867,-6.11762 0.810936,-13.06142 2.892936,-19.30861 1.435351,-4.30669 4.177123,-8.00877 4.825946,-12.55657 1.917776,-13.44215 -8.165369,-26.52571 0.965403,-39.58573 3.136506,-4.48627 42.749603,-46.48287 44.356427,-47.30228 3.225484,-1.64497 5.926698,4.19897 8.582001,6.66214 13.832011,12.83138 26.446455,18.22328 40.516777,-2.29173 4.78805,-6.98108 9.45781,-14.07513 13.47491,-21.52778 20.85438,-38.69002 41.6468,-48.96051 55.01651,-90.10056 7.62402,-23.45989 40.46875,-41.16119 50.57025,-63.43521 7.19048,-15.85518 10.29946,-45.43437 16.81719,-61.51179 0.006,-0.0156 43.13266,-23.30613 47.81206,-27.31934 9.63032,-8.25929 2.66732,-33.58983 14.0034,-43.35783 19.32647,-16.65315 6.04183,-14.80284 25.52845,-30.9289 19.62266,-16.23861 20.32245,-31.6449 39.17858,-48.77022 10.27462,-9.33149 20.63877,-23.19148 35.62357,-23.16481 6.74959,0.012 13.91569,3.67678 20.24995,5.79332 13.16076,4.39761 30.13491,13.753 22.98385,30.23512 -2.58471,5.95725 -9.31372,16.94648 -7.1881,23.92617 1.01037,3.31763 3.21255,7.14001 4.7474,10.21202 2.04392,4.09083 3.46487,8.33876 6.41597,11.29365 5.73866,5.74611 15.79237,15.03188 23.58332,17.06671 31.63049,8.26106 66.68051,3.46844 93.04585,26.92133 13.32273,11.85103 24.92818,24.95659 30.52215,41.71043 2.60419,7.79941 3.22129,16.09783 6.75018,23.75992 7.68477,16.68539 17.65527,32.36207 32.84851,42.5883 3.28831,2.21334 11.80076,26.41521 13.1553,29.46464 5.79753,13.05136 22.46031,36.11154 32.88889,45.50908 11.81305,10.64513 21.51455,16.37528 35.11028,21.8479 2.03196,0.81795 4.33981,-0.59844 6.49896,-0.96555 11.0301,-1.87529 25.42223,-6.44363 31.28393,1.37974 6.46364,8.62694 8.49553,34.03094 10.14114,48.85197 1.64307,14.79765 15.51592,24.96785 24.10935,35.73184 18.63536,23.34232 25.10025,42.91802 58.17098,30.54252 5.43975,-2.03556 11.47766,-9.14734 15.3265,-10.31903 3.73943,-1.13831 7.22328,1.13608 10.23669,2.89667 19.74137,11.53394 19.10615,18.86494 28.48329,38.85924 4.79968,10.23424 10.66011,20.28145 13.06946,31.30917 5.5465,25.38654 22.30813,42.49526 40.97338,59.16234 5.70763,5.09671 9.1761,10.3016 17.48578,13.42165 4.71948,1.77209 10.98512,1.60747 15.26913,3.74146 10.72999,5.34505 29.83609,-8.48898 37.16299,6.7336 5.6522,11.74319 10.5524,24.73548 13.7744,37.34363 4.1677,16.30896 4.1158,29.43617 14.4365,43.63915 8.0251,11.04395 26.707,24.87995 41.3827,21.19375 2.2013,-0.5529 17.6028,-8.3787 18.1957,-7.7228 19.2627,21.3041 38.0889,63.9018 38.0889,63.9018 l 3.6349,13.2733 c 0,0 -173.96598,84.8976 -787.70405,105.0516 -613.73805,20.1541 -822.73842,-106.5023 -822.73842,-106.5023 z" />
      <path style="fill:#ebebeb;fill-opacity:1;stroke-width:59.1792;stroke-linecap:round;stroke-linejoin:round" d="m 297.25954,588.11724 c -1.58909,-9.12401 0.85944,-17.72145 7.32167,-24.67553 2.90572,-3.12689 6.70411,-5.38401 9.41529,-8.69945 5.09522,-6.23073 6.92371,-14.55299 11.50489,-19.44211 8.30448,-8.86272 20.72445,-13.37846 29.76441,-21.41635 10.18747,-9.05819 11.2254,-21.41263 17.27684,-32.26204 2.14275,-3.84166 5.7788,-6.67996 8.89445,-9.72807 7.86451,-7.69391 15.14073,-15.68308 19.12848,-25.95095 2.81605,-7.25097 4.18321,-14.78508 4.18321,-22.50836 0,-0.59741 -0.31113,-1.52898 0.58719,-1.63314 17.31171,-2.00754 30.69993,5.1967 34.99362,21.9988 3.22567,12.62267 -1.51738,20.55497 10.46393,32.2761 4.36741,4.27255 10.12055,6.23024 15.2784,9.26549 8.99607,5.29385 17.19814,11.63411 26.38843,16.6303 3.74783,2.03748 8.50894,2.77646 12.55499,4.09716 4.70084,1.53444 18.29953,10.36621 22.01502,13.34026 6.38258,5.10889 10.34541,13.00246 15.31616,19.2294 2.81928,3.5318 7.13294,6.65441 9.05882,10.89314 4.11255,9.05139 6.98301,14.60351 14.62922,21.45478 8.57258,7.68131 22.11416,14.32294 24.02662,26.48756 0.93111,5.92242 0.40727,10.29973 -4.18628,14.79374 -2.84077,2.77922 -10.25097,1.63842 -14.02119,2.00728 -13.17049,1.28832 -25.64834,-4.17611 -37.69288,-8.21254 -5.83318,-1.95485 -12.88238,-0.57201 -18.94783,-1.41941 -9.01821,-1.25993 -17.48367,-3.00319 -26.40831,-5.20843 -5.16868,-1.27712 -8.85304,-1.22015 -12.88879,-4.37597 -4.53316,-3.54484 -8.4237,-5.09108 -11.53057,-11.16981 -1.1296,-2.21008 -2.67678,-3.89458 -3.65885,-6.13716 -2.59318,-5.92162 -7.78816,0.7422 -14.11357,-1.932 -2.98033,-1.26 -6.83368,-1.64764 -9.93617,-2.55774 -0.99768,-0.29266 -5.29858,-2.25837 -6.20979,-1.53464 -1.12938,0.89703 -3.54304,2.74655 -4.21236,4.70273 -8.04941,3.85805 -2.22906,5.38703 -7.79223,13.25015 -2.59248,3.39339 -8.7494,4.44775 -12.56033,5.61561 -23.67692,7.25587 -47.26035,-1.82254 -70.47105,-5.60759 -2.01223,-0.32815 -6.27897,1.07986 -7.90378,0 -2.23475,-1.48522 -11.08372,-2.15997 -14.61942,-1.46406 -7.15057,1.40738 -7.69178,2.59604 -15.64824,-0.10711 z" id="path597" />
      <path style="fill:#ebebeb;fill-opacity:1;stroke-width:47.2926;stroke-linecap:round;stroke-linejoin:round" d="m 77.474644,826.22348 c 3.88648,-4.68118 3.659154,-20.03162 11.109907,-22.43051 7.308027,-2.353 22.648649,-5.31708 26.459459,-12.70014 1.38439,-2.68213 -4.26005,-8.61696 -0.59107,-13.40177 3.36169,-4.38414 10.76815,-6.62804 15.36753,-9.25281 7.61706,-4.34686 16.23842,-9.67618 20.67343,-17.33404 7.2471,-12.51363 10.52875,-25.84135 15.30502,-39.27284 3.46645,-9.7481 8.03934,-18.58991 12.48699,-27.87661 2.13393,-4.45566 2.11567,-10.55924 5.31959,-14.45414 3.66181,-4.45155 13.68418,0.45105 17.37029,2.94754 1.14525,0.77564 2.01357,1.88618 2.95481,2.89068 9.54067,10.18209 8.04913,10.86734 -1.1444,19.86136 -0.23919,0.23399 -4.39265,3.51845 -4.09814,4.14516 6.54826,13.93573 9.91781,23.97905 7.68486,39.27195 -1.89985,13.01172 -8.30463,31.37059 -5.31853,44.51579 1.3163,5.79465 12.8337,13.05359 11.2039,18.97368 -2.3656,8.59283 -20.45705,22.84646 -27.3512,29.59024 -1.37836,1.34827 -4.87439,3.80408 -5.86602,5.7381 -0.7816,1.52445 1.58967,6.45874 0.17986,7.14723 -11.1448,5.44228 -30.56975,7.08853 -42.3704,2.89058 -5.30568,-1.8874 -17.8381,-11.13205 -23.70705,-9.10034 -5.55677,1.92365 -11.68923,5.83858 -16.247172,9.49483 -4.762383,3.8202 -8.470323,11.17894 -14.777867,13.30105 -3.425802,1.15253 -14.936191,0.15109 -17.674569,-3.43489 -2.877582,-3.76802 -11.763989,-14.67042 -8.83967,-20.08793 2.989807,-5.53879 8.055192,-3.7607 12.990029,-6.35547 3.018407,-1.5871 5.920245,-3.37781 8.880352,-5.0667 z" id="path662" />
      <path id="path664" style="fill:#ebebeb;fill-opacity:1;stroke-width:59.1792;stroke-linecap:round;stroke-linejoin:round" d="m 517.74414,658.87891 c -4.80793,0.11617 -8.21266,2.05035 -13.91992,4.625 -5.59085,2.52214 -16.17632,4.20908 -19.70313,10.1914 -6.90751,11.71691 -7.87315,28.15234 -20.04492,36.99805 -15.04858,10.93637 -34.84759,14.89314 -53.23242,13.92187 -3.68616,-0.19478 -8.65437,-3.82233 -11.02344,-1.05273 -2.40953,2.81687 -2.50645,6.94329 -4.18164,10.23047 -6.16478,12.09699 -13.22254,23.77362 -26.19922,29.82226 -8.88453,4.14118 -22.86995,11.56411 -32.95703,12.50391 -8.73551,0.81391 -47.68841,-2.68815 -52.9414,0 -5.53282,2.8314 -9.32143,8.79414 -14.5586,12.07227 -15.63124,9.78408 -31.35248,16.85902 -43.92969,30.70117 -6.09517,6.70827 -3.49318,3.77224 -6.27539,13.29883 -4.53774,15.53774 -16.86441,26.46729 -32.51953,31.80664 -9.30091,3.17216 -19.42618,4.66799 -29.1875,5.21875 -6.1467,0.34686 -39.18869,-2.89399 -45.19336,1.02148 -10.14785,6.61714 -15.295351,24.19485 -22.355466,33.41211 -17.597806,22.97454 -39.455762,48.42187 -66.529296,61.00391 -15.1426414,7.03733 -33.487332,12.07137 -50.00586,13.73047 -1.21313,0.12185 -4.738407,-0.21842 -7.076172,-0.32813 -0.05989,-0.2199 -0.0028,-0.53342 -0.105468,-0.7207 -11.917954,-21.73131 -14.247913,-15.19523 -35.083985,-27.67969 -9.887467,-5.92428 -11.013286,-7.86607 -21.171875,-11.41602 -2.813931,-0.98332 -9.475777,-4.89809 -8.710937,-2.07226 0.678431,2.50674 4.017663,-0.1371 4.52539,3.32812 1.170061,7.98551 -2.174682,13.94111 -3.138672,21.48633 -1.22561,9.59309 0.102802,18.74802 -3.136719,28.25586 -1.92122,5.63866 -5.7811,11.40292 -10.21094,16.86722 -6.51393,3.5855 -12.97819,7.3028 -19.04492,11.2519 -6.55692,4.2683 -15.75718,9.8533 -18.84375,17.4024 -0.0752,0.1839 -0.0873,0.3652 -0.15625,0.5488 -5.61933,4.4369 -11.17012,9.275 -17.68555,12.0137 -25.82251,10.8541 -55.72956,-22.09 -79.08007,-15.3028 -0.85835,0.2495 -1.26955,4.1906 -1.67774,5.1856 -2.18668,5.33 -6.22373,9.7649 -8.36523,15.3457 -3.92254,10.2221 -7.90929,20.6015 -11.58789,30.9043 -4.30129,12.0469 -3.15973,8.7639 -2.97266,21.875 l -45.15039,42.5195 c 8.94462,0.9555 17.52608,1.7411 26.38086,2.6543 l -45.51758,38.209 c 1121.7763,70.5362 1254.53968,-16.3086 1252.83203,-46.8945 113.78769,-19.5551 169.59439,-38.7683 168.34179,-40.4024 -11.5928,-15.1236 -37.0935,-58.6209 -53.6465,-68.9258 -25.7296,-16.0178 -60.60876,-21.0547 -82.60544,-42.57418 -8.35783,-8.17644 -11.73075,-31.74853 -19.91993,-42.96485 -15.28593,-20.93624 -43.67311,-27.38116 -61.71875,-45.03515 -13.91637,-13.61441 -10.47731,-28.34481 -17.85937,-41.51563 -0.91992,-1.64117 -35.36984,-22.4352 -38.43945,-25.16601 -8.49415,-7.5568 -12.2963,-18.24773 -17.05078,-28.10938 -5.53468,-11.47979 -12.32649,-22.48105 -17.08399,-34.3125 -4.46292,-11.09883 -9.4603,-37.09975 -24.13281,-41.17773 -16.66648,-4.63221 -51.10713,-10.9553 -62.86524,6.28515 -4.4342,6.50168 1.1969,12.184 2.94336,17.88281 1.87632,6.12251 2.70766,14.12351 3.14063,20.47657 1.39583,20.47915 -6.17783,25.61487 -8.40625,43.03906 -1.09911,8.59441 1.02687,16.22108 2.0918,24.55469 1.64297,12.85671 -12.25121,27.66731 -20.87305,35.53906 -0.67884,0.61978 -2.15127,1.87186 -3.19141,2.80078 -2.41664,-2.14464 -4.89921,-4.20285 -7.0664,-6.66992 -8.94315,-10.18065 -13.00183,-21.58886 -10.71094,-35.03711 1.58556,-9.30811 2.51922,-2.79804 3.13672,-11.25391 1.24562,-17.05705 0.55103,-36.29924 -9.44141,-51.09961 -3.6962,-5.47464 -30.80081,-10.87139 -33.95312,-11.84961 -15.22808,-4.72564 -58.26554,-19.74202 -67.48829,-35.98242 -6.17041,-10.8655 -2.19092,-42.96344 1.92188,-54.77734 0.3326,-0.95559 2.33314,-7.76536 2.0918,-7.9082 -6.93101,-4.11014 -13.76397,-6.56675 -22.06446,-8.22266 -2.05158,-0.40928 -3.81141,-0.57193 -5.41406,-0.5332 z" />
    </g>

    <g class="palumba" transform="translate(215.2038,180.69296)">
      <path style="fill:#9f6d4d;fill-opacity:1;stroke:none;stroke-width:3.40065;stroke-opacity:1" d="m 525.78006,415.30583 c 0,0 0.35435,11.08951 -0.16373,11.57862 -0.51808,0.4891 -2.63482,1.31866 -3.53515,1.31866 -0.90033,0 -6.72338,-0.12408 -7.61874,1.07861 -0.89535,1.20274 -1.51885,3.16765 -0.39921,3.45264 1.11965,0.28501 9.9858,-0.90202 10.32466,-0.47458 0.33887,0.42748 1.29086,1.79178 2.76998,1.72078 1.47911,-0.0711 3.32972,-1.43273 3.32972,-1.43273 0,0 11.19774,0.97585 10.86845,0.15635 -0.32929,-0.81945 -1.96185,-3.45384 -3.10154,-3.71426 -1.13972,-0.26042 -6.74766,-0.74857 -7.29268,-1.51873 -0.54502,-0.77013 -0.22036,-11.90731 -0.22036,-11.90731 z" id="path11608" />
      <path style="fill:#9f6d4d;fill-opacity:1;stroke:none;stroke-width:3.40065;stroke-opacity:1" d="m 545.30799,416.73971 c 0,0 0.35435,11.08952 -0.16373,11.57862 -0.51808,0.48909 -2.63482,1.31865 -3.53515,1.31865 -0.90033,0 -6.72337,-0.12407 -7.61873,1.07862 -0.89536,1.20275 -1.51886,3.16765 -0.39921,3.45265 1.11964,0.28501 9.98579,-0.90201 10.32465,-0.47458 0.33887,0.42748 1.29086,1.79178 2.76998,1.72078 1.47911,-0.0711 3.32972,-1.43273 3.32972,-1.43273 0,0 11.19774,0.97583 10.86845,0.15635 -0.3293,-0.81945 -1.96185,-3.45384 -3.10155,-3.71428 -1.13971,-0.26039 -6.74765,-0.74855 -7.29267,-1.51871 -0.54502,-0.77013 -0.22036,-11.90731 -0.22036,-11.90731 z" id="path11610" />
      <path style="fill:#656e7f;fill-opacity:1;stroke:none;stroke-width:3.40065;stroke-opacity:1" d="m 520.13588,405.40947 c 0,0 2.18251,14.13453 6.3061,15.072 4.12357,0.93748 11.35161,-5.23087 11.77786,-10.34658 0.42626,-5.11566 -18.08396,-4.72542 -18.08396,-4.72542 z" />
      <path style="fill:#656e7f;fill-opacity:1;stroke:none;stroke-width:3.40065;stroke-opacity:1" d="m 539.66382,406.84336 c 0,0 2.1825,14.13452 6.30609,15.07201 4.12357,0.93747 11.35162,-5.2309 11.77786,-10.34659 0.42627,-5.11568 -18.08395,-4.72542 -18.08395,-4.72542 z" />
      <path style="fill:#2d3252;fill-opacity:1;stroke:none;stroke-width:3.40065;stroke-opacity:1" d="m 580.42544,403.71656 c 0,0 22.45614,13.64702 27.15194,13.21835 4.69577,-0.42864 8.9652,-2.39528 8.9652,-2.39528 0,0 8.0902,-2.50865 8.18287,-6.4822 0.0926,-3.97353 -17.19885,-11.01677 -21.67644,-11.44435 -4.47755,-0.4276 -23.84564,-2.31 -22.62357,7.10348 z" id="path11616" />
      <path style="fill:#72819c;fill-opacity:1;stroke:none;stroke-width:3.40065;stroke-opacity:1" d="m 489.15286,356.0235 c 0,0 -2.21723,8.11413 -1.52424,16.10354 0.693,7.98943 5.59427,34.83665 45.22743,39.22685 39.63313,4.39017 50.04938,-4.75863 52.52711,-4.87317 2.47776,-0.11446 12.81367,1.96187 15.32378,0.22716 2.51012,-1.73469 -32.17502,-34.50577 -47.95813,-44.70634 -6.35356,-4.10628 -21.78892,3.34292 -33.42156,2.52296 -11.6326,-0.81994 -28.41022,-12.93937 -30.17439,-8.501 z" />
      <path style="fill:#454868;fill-opacity:1;stroke:none;stroke-width:3.40065;stroke-opacity:1" d="m 488.09164,358.3488 c 1.40622,9.13276 19.44007,12.8068 27.19244,13.84797 7.75238,1.04119 38.70544,-6.54978 38.61652,-10.75928 -0.0969,-4.5873 -6.82469,-14.72762 -9.65105,-22.46653 -2.82638,-7.73895 -5.58025,-9.28271 -7.57116,-17.62144 -1.17646,-4.92742 -0.64759,-20.50489 -14.6752,-20.35403 -14.02764,0.15084 -15.32863,9.6177 -17.83449,19.43797 -2.50589,9.82026 -6.90156,14.45464 -6.90156,14.45464 0,0 -10.70102,13.55327 -9.1755,23.4607 z" />
      <g id="g2338">
        <ellipse style="fill:#ececec;fill-opacity:1;stroke:none;stroke-width:3.57916;stroke-opacity:1" id="ellipse11622" cx="-506.05533" cy="317.61816" rx="3.7126579" ry="2.4033127" transform="scale(-1,1)" />
        <path style="fill:#a57e3c;fill-opacity:1;stroke:none;stroke-width:3.40065;stroke-opacity:1" d="m 508.09376,321.72655 c -0.56918,1.93653 -4.08292,0.32366 -5.69549,1.01653 -2.19021,0.94102 -5.14693,3.29256 -5.41569,2.64355 -0.26872,-0.649 0.77004,-4.6331 2.32113,-5.9798 1.1246,-0.9764 4.04277,-2.2121 5.91119,-2.04566 1.49059,0.13289 3.27597,1.07849 2.87886,4.36538 z" />
      </g>
      <g id="g11640" transform="matrix(0.90322912,0,0,0.90322912,965.37059,135.65015)">
        <path style="fill:#848fa5;fill-opacity:1;stroke:none;stroke-width:3.76499;stroke-opacity:1" d="m -485.03591,234.51964 c -6.62945,7.39058 -13.27893,25.64061 0.21839,42.05709 13.4973,16.4165 69.92456,16.7314 86.32584,14.16093 16.40128,-2.57047 -16.65333,-29.43833 -31.18348,-39.29911 -14.53014,-9.86078 -31.40259,-41.43578 -55.36075,-16.91891 z" />
        <path id="path11634" style="fill:#2d3252;fill-opacity:1;stroke:none;stroke-width:3.76499;stroke-opacity:1" d="m -402.91546,273.38745 c -1.3395,5.92447 -3.58068,13.19111 -7.17372,18.34875 4.76076,-0.20425 8.77959,-0.55672 11.59774,-0.99839 8.34342,-1.30761 3.87992,-8.90479 -4.42402,-17.35036 z" />
        <path id="path11636" style="fill:#2d3252;fill-opacity:1;stroke:none;stroke-width:3.76499;stroke-opacity:1" d="m -418.99871,259.28753 c -6.09814,13.78301 -13.35745,22.93596 -19.34714,28.81995 -1.0609,1.04217 -2.06338,1.96395 -3.01429,2.79879 5.46387,0.51652 10.92864,0.81675 16.11323,0.94413 5.29634,-6.06443 10.92009,-14.1067 15.89153,-24.54785 -3.13644,-2.78314 -6.45034,-5.51348 -9.64333,-8.01502 z" />
        <path id="path11638" style="fill:#2d3252;fill-opacity:1;stroke:none;stroke-width:3.76499;stroke-opacity:1" d="m -438.04923,244.18975 c -7.76192,16.84884 -17.05467,27.23846 -24.37836,33.4703 -4.2243,3.59453 -7.63544,5.73647 -9.82575,6.92878 4.52862,1.74171 9.77969,3.11319 15.37838,4.17597 0.75179,-0.59164 1.51875,-1.21642 2.29857,-1.87999 8.07657,-6.87248 17.86125,-17.85605 26.0966,-34.62372 -0.40837,-0.28342 -0.8115,-0.56224 -1.19528,-0.82269 -2.70018,-1.83246 -5.48176,-4.41576 -8.37416,-7.24865 z" />
      </g>
      <g id="g11050" clip-path="url(#clipPath11261)">
        <g id="g11630" transform="matrix(0.90322912,0,0,0.90322912,963.07359,135.65015)">
          <circle style="fill:#f5f5f5;fill-opacity:1;stroke:none;stroke-width:3.76499;stroke-opacity:1" id="circle11626" cx="-492.23737" cy="199.8755" r="4.0925393" />
          <circle style="fill:#0a0026;fill-opacity:1;stroke:#8b38a9;stroke-width:0.906747;stroke-dasharray:none;stroke-opacity:1" id="circle11628" cx="-492.23737" cy="199.8755" r="2.6479139" />
        </g>
        <g id="g11042" transform="matrix(0.90322912,0,0,0.90322912,933.07359,135.65015)">
          <circle style="fill:#f5f5f5;fill-opacity:1;stroke:none;stroke-width:3.76499;stroke-opacity:1" id="circle11038" cx="-492.23737" cy="199.8755" r="4.0925393" />
          <circle style="fill:#0a0026;fill-opacity:1;stroke:#8b38a9;stroke-width:0.906747;stroke-dasharray:none;stroke-opacity:1" id="circle11040" cx="-492.23737" cy="199.8755" r="2.6479139" />
        </g>
      </g>
    </g>

    <text class="header" line-height="2" x="50%" y="200" text-anchor="middle" dominant-baseline="middle" font-family="Montserrat" fill="#88e2bf">
      <tspan dy="1.5rem" font-size="3rem" font-weight="300" fill="#fff">MIGUEL RIVAS</tspan>
      <tspan x="50%" dy="2.2rem" font-size="1.2rem">FRONTEND DEVELOPER</tspan>
      <tspan x="50%" dy="1.5rem" font-size="1rem" font-weight="600" style="font-size:0.75em;">VUE | REACT | WEB COMPONENTS</tspan>
    </text>

    <text class="spokane-banner" x="640" y="820" font-weight="600" text-anchor="middle" font-family="Montserrat" fill="#ebebeb" font-size="26px">
      <tspan rotate="-6">S</tspan>
      <tspan rotate="2">P</tspan>
      <tspan rotate="0">O</tspan>
      <tspan rotate="4">K</tspan>
      <tspan rotate="-1">A</tspan>
      <tspan rotate="2">N</tspan>
      <tspan rotate="-7">E</tspan>
      <tspan fill-opacity="0">-</tspan>
      <tspan rotate="3">W</tspan>
      <tspan rotate="0">A</tspan>
    </text>

    <g class="trees">
      <use href="#tree" x="-196" y="-38"/>
      <use href="#tree" x="-156" y="-8"/>
      <use href="#tree" x="-181" y="42"/>
      <use href="#tree" x="-46" y="12"/>
      <use href="#tree" x="-313" y="272"/>
      <use href="#tree" x="-216" y="222"/>
      <use href="#tree" x="-246" y="312"/>
      <use href="#tree" x="-186" y="382"/>
      <use href="#tree" x="-256" y="412"/>
      <use href="#tree" x="-406" y="285"/>
      <use href="#tree" x="-326" y="152"/>
      <use href="#tree" x="-276" y="79"/>
      <use href="#tree" x="-166" y="295"/>
      <use href="#tree" x="-449" y="352"/>
      <use href="#tree" x="-496" y="402"/>
      <use href="#tree" x="-56" y="332"/>
      <use href="#tree" x="254" y="278"/>
      <use href="#tree" x="164" y="152"/>
      <use href="#tree" x="124" y="82"/>
      <use href="#tree" x="210" y="222"/>
      <use href="#tree" x="-66" y="202"/>
      <use href="#tree" x="74" y="242"/>
      <use href="#tree" x="234" y="412"/>
      <use href="#tree" x="-207" y="322"/>
      <use href="#tree" x="184" y="272"/>
      <use href="#tree" x="-266" y="252"/>
      <use href="#tree" x="-159" y="132"/>
      <use href="#tree" x="-226" y="102"/>
      <use href="#tree" x="304" y="292"/>
      <use href="#tree" x="-114" y="312"/>
      <use href="#tree" x="-33" y="442"/>
      <use href="#tree" x="284" y="332"/>
      <use href="#tree" x="-346" y="362"/>
      <use href="#tree" x="214" y="332"/>
      <use href="#tree" x="104" y="382"/>
      <use href="#tree" x="103" y="142"/>
      <use href="#tree" x="94" y="36"/>
      <use href="#tree" x="54" y="62"/>
      <use href="#tree" x="144" y="202"/>
      <use href="#tree" x="144" y="312"/>
      <use href="#tree" x="174" y="402"/>
      <use href="#tree" x="104" y="272"/>
      <use href="#tree" x="34" y="292"/>
      <use href="#tree" x="-86" y="213"/>
      <use href="#tree" x="-266" y="142"/>
      <use href="#tree" x="-156" y="-88"/>
      <use href="#tree" x="-6" y="2"/>
      <use href="#tree" x="-116" y="-58"/>
      <use href="#tree" x="14" y="52"/>
      <use href="#tree" x="-471" y="371"/>
      <use href="#tree" x="-296" y="332"/>
      <use href="#tree" x="-366" y="222"/>
      <use href="#tree" x="-136" y="342"/>
      <use href="#tree" x="74" y="302"/>
      <use href="#tree" x="-306" y="412"/>
      <use href="#tree" x="-336" y="212"/>
      <use href="#tree" x="-146" y="212"/>
      <use href="#tree" x="-86" y="-28"/>
      <use href="#tree" x="44" y="92"/>
      <use href="#tree" x="84" y="92"/>
      <use href="#tree" x="-16" y="52"/>
      <use href="#tree" x="-226" y="2"/>
      <use href="#tree" x="174" y="322"/>
      <use href="#tree" x="111" y="322"/>
      <use href="#tree" x="154" y="382"/>
      <use href="#tree" x="124" y="252"/>
      <use href="#tree" x="144" y="142"/>
      <use href="#tree" x="254" y="342"/>
      <use href="#tree" x="324" y="342"/>
      <use href="#tree" x="-185" y="312"/>
      <use href="#tree" x="-345" y="302"/>
      <use href="#tree" x="13" y="222"/>
      <use href="#tree" x="-226" y="372"/>
      <use href="#tree" x="-296" y="192"/>
      <use href="#tree" x="-376" y="272"/>
      <use href="#tree" x="-196" y="92"/>
      <use href="#tree" x="-96" y="-88"/>
      <use href="#tree" x="-258" y="352"/>
      <use href="#tree" x="-16" y="292"/>
      <use href="#tree" x="24" y="122"/>
      <use href="#tree" x="7" y="176"/>
      <use href="#tree" x="-46" y="92"/>
      <use href="#tree" x="-106" y="52"/>
      <use href="#tree" x="-146" y="82"/>
      <use href="#tree" x="-116" y="112"/>
      <use href="#tree" x="-56" y="142"/>
      <use href="#tree" x="-136" y="162"/>
      <use href="#tree" x="-186" y="142"/>
      <use href="#tree" x="64" y="172"/>
      <use href="#tree" x="-176" y="202"/>
      <use href="#tree" x="-96" y="152"/>
      <use href="#tree" x="-16" y="122"/>
      <use href="#tree" x="24" y="332"/>
      <use href="#tree" x="-86" y="382"/>
      <use href="#tree" x="-386" y="332"/>
      <use href="#tree" x="-416" y="362"/>
      <use href="#tree" x="-16" y="332"/>
      <use href="#tree" x="-386" y="392"/>
      <use href="#tree" x="34" y="472"/>
      <use href="#tree" x="164" y="242"/>
      <use href="#tree" x="154" y="522"/>
      <use href="#tree" x="134" y="442"/>
      <use href="#tree" x="274" y="392"/>
      <use href="#tree" x="314" y="422"/>
      <use href="#tree" x="262" y="452"/>
      <use href="#tree" x="339" y="472"/>
      <use href="#tree" x="384" y="515"/>
      <use href="#tree" x="424" y="440"/>
      <use href="#tree" x="364" y="395"/>
      <use href="#tree" x="394" y="432"/>
      <use href="#tree" x="374" y="462"/>
      <use href="#tree" x="464" y="422"/>
      <use href="#tree" x="450" y="472"/>
      <use href="#tree" x="213" y="462"/>
      <use href="#tree" x="494" y="442"/>
      <use href="#tree" x="164" y="462"/>
      <use href="#tree" x="311" y="502"/>
      <use href="#tree" x="84" y="422"/>
      <use href="#tree" x="44" y="402"/>
      <use href="#tree" x="104" y="472"/>
      <use href="#tree" x="116" y="542"/>
      <use href="#tree" x="264" y="534"/>
      <use href="#tree" x="4" y="382"/>
      <use href="#tree" x="-26" y="512"/>
      <use href="#tree" x="134" y="492"/>
      <use href="#tree" x="294" y="472"/>
      <use href="#tree" x="-274" y="462"/>
      <use href="#tree" x="-206" y="444"/>
      <use href="#tree" x="-156" y="432"/>
      <use href="#tree" x="-116" y="472"/>
      <use href="#tree" x="-316" y="502"/>
      <use href="#tree" x="-236" y="512"/>
      <use href="#tree" x="-286" y="572"/>
      <use href="#tree" x="-56" y="412"/>
      <use href="#tree" x="-66" y="482"/>
      <use href="#tree" x="64" y="529"/>
      <use href="#tree" x="-196" y="562"/>
      <use href="#tree" x="-158" y="512"/>
      <use href="#tree" x="-116" y="582"/>
      <use href="#tree" x="14" y="562"/>
      <use href="#tree" x="-426" y="482"/>
      <use href="#tree" x="-456" y="432"/>
      <use href="#tree" x="-386" y="452"/>
      <use href="#tree" x="-6" y="462"/>
      <use href="#tree" x="-356" y="542"/>
      <use href="#tree" x="-476" y="492"/>
      <use href="#tree" x="354" y="552"/>
      <use href="#tree" x="224" y="572"/>
      <use href="#tree" x="54" y="592"/>
      <use href="#tree" x="-66" y="552"/>
      <use href="#tree" x="-170" y="542"/>
      <use href="#tree" x="126" y="362"/>
      <use href="#tree" x="143" y="552"/>
      <use href="#tree" x="-36" y="534"/>
      <use href="#tree" x="44" y="202"/>
      <use href="#tree" x="-266" y="532"/>
      <use href="#tree" x="-446" y="572"/>
      <use href="#tree" x="-416" y="532"/>
      <use href="#tree" x="-96" y="332"/>
      <use href="#tree" x="-336" y="452"/>
      <use href="#tree" x="-325" y="312"/>
      <use href="#tree" x="119" y="172"/>
      <use href="#tree" x="-276" y="282"/>
      <use href="#tree" x="-236" y="243"/>
      <use href="#tree" x="-207" y="168"/>
      <use href="#tree" x="-23" y="382"/>
      <use href="#tree" x="-116" y="212"/>
      <use href="#tree" x="-26" y="192"/>
      <use href="#tree" x="-84" y="82"/>
      <use href="#tree" x="-128" y="42"/>
      <use href="#tree" x="-118" y="402"/>
      <use href="#tree" x="-216" y="542"/>
      <use href="#tree" x="-196" y="492"/>
      <use href="#tree" x="-326" y="592"/>
      <use href="#tree" x="224" y="292"/>
      <use href="#tree" x="-296" y="122"/>
      <use href="#tree" x="-136" y="2"/>
      <use href="#tree" x="-204" y="12"/>
      <use href="#tree" x="-157" y="362"/>
      <use href="#tree" x="-174" y="-51"/>
      <use href="#tree" x="64" y="14"/>
      <use href="#tree" x="34" y="12"/>
      <use href="#tree" x="194" y="372"/>
      <use href="#tree" x="64" y="122"/>
      <use href="#tree" x="84" y="357"/>
      <use href="#tree" x="-92" y="442"/>
      <use href="#tree" x="-276" y="372"/>
      <use href="#tree" x="14" y="432"/>
      <use href="#tree" x="304" y="362"/>
      <use href="#tree" x="186" y="542"/>
      <use href="#tree" x="-386" y="562"/>
      <use href="#tree" x="414" y="542"/>
      <use href="#tree" x="-426" y="412"/>
      <use href="#tree" x="324" y="582"/>
      <use href="#tree" x="289" y="552"/>
      <use href="#tree" x="384" y="572"/>
      <use href="#tree" x="484" y="532"/>
      <use href="#tree" x="405" y="482"/>
      <use href="#tree" x="94" y="602"/>
    </g>

    <g class="buildings-a">
      <rect style="fill:#42425f;fill-opacity:1;stroke-width:0.878278;stroke-linecap:round;stroke-linejoin:round;stroke-dasharray:none" id="rect7439" width="1200" height="238.634" x="0" y="1215.9675" />
      <rect width="100%" height="120" x="0" y="1120" fill="url(#buildings-a)" />
    </g>

    <g class="buildings-b">
      <rect style="fill:#4d4d61;fill-opacity:1;stroke-width:0.88945;stroke-linecap:round;stroke-linejoin:round;stroke-dasharray:none" id="rect8328" width="1200" height="300" x="0" y="1300" />
      <rect width="100%" height="120" x="0" y="1180" fill="url(#buildings-b)" />
    </g>

    <g class="logos" transform="translate(9.3331582)">
      <path id="path1" style="fill:#ffffff;stroke-width:0.0517206" d="m 705.31628,1391.3297 v 43.4453 a 8.2753135,8.2753135 0 0 0 8.2755,8.2755 h 35.16971 a 8.2753135,8.2753135 0 0 0 8.27549,-8.2755 v -35.1697 a 8.2753135,8.2753135 0 0 0 -8.27549,-8.2756 z m 30.70759,28.1854 c 1.56662,0 2.77949,0.4811 3.63029,1.4395 0.88184,0.9641 1.33385,2.3419 1.37006,4.1447 h -3.47563 c 0.0207,-0.5895 -0.0979,-1.1744 -0.34723,-1.7093 -0.19706,-0.393 -0.58018,-0.5904 -1.15066,-0.5904 -1.01683,0 -1.5263,0.6065 -1.5263,1.8137 0,0.6119 0.12531,1.0881 0.37408,1.4506 a 3.3711556,3.3711556 0 0 0 1.31164,0.9012 l 1.28165,0.5651 c 1.3225,0.6061 2.27669,1.3465 2.8632,2.2429 0.58601,0.8912 0.88076,2.0829 0.88076,3.575 0,1.7875 -0.47036,3.1612 -1.41424,4.1196 -0.94391,0.9584 -2.25655,1.4395 -3.93178,1.4395 -1.67575,0 -2.95708,-0.4873 -3.85443,-1.4663 -0.88701,-0.9842 -1.34762,-2.3881 -1.38898,-4.2223 h 3.60977 c 0.0207,1.6221 0.59019,2.4355 1.71098,2.4355 0.56995,0 0.97465,-0.1818 1.20274,-0.5398 0.23376,-0.3569 0.34723,-0.9273 0.34723,-1.7093 0,-0.6217 -0.14882,-1.1393 -0.44984,-1.5484 a 3.7859558,3.7859558 0 0 0 -1.52472,-1.0939 l -1.33848,-0.6424 c -1.19319,-0.5699 -2.05902,-1.2437 -2.59329,-2.0313 -0.51876,-0.7826 -0.77814,-1.8809 -0.77814,-3.2847 0,-1.5702 0.45602,-2.8433 1.36372,-3.8229 0.93356,-0.9791 2.20461,-1.4663 3.8276,-1.4663 z m 11.65958,0 c 1.56712,0 2.77956,0.4811 3.63503,1.4395 0.87149,0.9641 1.32858,2.3419 1.3653,4.1447 h -3.47561 c 0.0207,-0.5895 -0.0979,-1.1744 -0.34725,-1.7093 -0.19654,-0.393 -0.58175,-0.5904 -1.15222,-0.5904 -1.01631,0 -1.52473,0.6065 -1.52473,1.8137 0,0.6119 0.12478,1.0881 0.37408,1.4506 a 3.3711556,3.3711556 0 0 0 1.31164,0.9012 l 1.28166,0.5651 c 1.3225,0.6061 2.2772,1.3465 2.8632,2.2429 0.59117,0.8912 0.88074,2.0829 0.88074,3.575 0,1.7875 -0.46674,3.1612 -1.41581,4.1196 -0.94391,0.9584 -2.25549,1.4395 -3.93019,1.4395 h -0.002 c -1.67524,0 -2.95602,-0.4873 -3.85286,-1.4663 -0.887,-0.9842 -1.34919,-2.3881 -1.39056,-4.2223 h 3.61135 c 0.0207,1.6221 0.59071,2.4355 1.71098,2.4355 0.571,0 0.97421,-0.1818 1.20747,-0.5398 0.22809,-0.3569 0.34882,-0.9273 0.34882,-1.7093 0,-0.6217 -0.15671,-1.1393 -0.45773,-1.5484 a 3.7859558,3.7859558 0 0 0 -1.52469,-1.0939 l -1.33848,-0.6424 c -1.19267,-0.5699 -2.05901,-1.2437 -2.59329,-2.0313 -0.51876,-0.7826 -0.77657,-1.8809 -0.77657,-3.2847 0,-1.5702 0.45655,-2.8433 1.36373,-3.8229 0.93356,-0.9791 2.20461,-1.4663 3.8276,-1.4663 z m -23.69638,0.027 c 1.62351,0 2.90377,0.4652 3.85285,1.3874 0.95993,0.9273 1.44107,2.3057 1.44107,4.1449 v 0.6897 h -3.82129 v -0.6692 c 0,-0.7097 -0.15672,-1.2333 -0.45773,-1.5752 a 1.3685299,1.3685299 0 0 0 -1.11908,-0.5336 c -0.6222,0 -1.06393,0.212 -1.31322,0.6424 a 4.0880047,4.0880047 0 0 0 -0.34724,1.8972 v 7.5637 c 0,1.5801 0.5557,2.3836 1.66046,2.3991 0.51824,0 0.9075,-0.1874 1.17748,-0.5603 a 2.6760293,2.6760293 0 0 0 0.39933,-1.5752 v -0.5635 h 3.82129 v 0.5903 c 0,1.2279 -0.2372,2.2528 -0.71975,3.0715 a 4.5927987,4.5927987 0 0 1 -1.97615,1.8452 6.2819971,6.2819971 0 0 1 -2.83636,0.6108 c -1.63955,0 -2.94193,-0.4457 -3.90652,-1.3368 -0.96458,-0.8856 -1.44107,-2.2176 -1.44107,-3.9791 v -8.7033 c 0,-1.7508 0.50842,-3.0785 1.52473,-3.9902 1.03234,-0.9015 2.38596,-1.3558 4.0612,-1.3558 z" />
      <path fill="#F34F29" d="m 1132.0858,1414.8864 -22.5821,-22.5814 c -1.2996,-1.3004 -3.4089,-1.3004 -4.7106,0 l -4.6888,4.6897 5.9483,5.9483 c 1.3828,-0.4666 2.9676,-0.1536 4.0693,0.9481 1.1075,1.1088 1.4181,2.7071 0.9399,4.0944 l 5.733,5.7332 c 1.3868,-0.4781 2.9875,-0.1692 4.0946,0.9403 1.5488,1.5475 1.5488,4.0563 0,5.6045 a 3.9632302,3.9632302 0 0 1 -5.6061,0 3.964869,3.964869 0 0 1 -0.8625,-4.3106 l -5.3461,-5.346 -8e-4,14.0703 a 3.9775704,3.9775704 0 0 1 1.0485,0.7489 c 1.548,1.5475 1.548,4.0554 0,5.6062 -1.5483,1.5475 -4.0578,1.5475 -5.6046,0 -1.5479,-1.5504 -1.5479,-4.0583 0,-5.6062 a 3.9538066,3.9538066 0 0 1 1.2976,-0.8646 v -14.2004 a 3.9255359,3.9255359 0 0 1 -1.2976,-0.865 c -1.1726,-1.1718 -1.4549,-2.8926 -0.8534,-4.3331 l -5.8644,-5.8644 -15.4841,15.4833 a 3.33226,3.33226 0 0 0 0,4.7118 l 22.5825,22.5814 c 1.3005,1.3005 3.4089,1.3005 4.7114,0 l 22.4765,-22.4766 a 3.3330794,3.3330794 0 0 0 -4e-4,-4.7121 z" id="path2-3" style="fill:#ffffff;stroke-width:0.409721" />
      <path id="path2-6" d="m 437.51546,1391.3298 4.15072,46.5507 18.62436,5.17 18.6746,-5.1772 4.15558,-46.5435 z m 8.48617,9.5159 h 14.2962 0.0203 14.28242 l -0.13692,1.5313 -0.26008,2.8949 -0.11505,1.2825 h -13.77037 -0.0203 -8.05675 l 0.52177,5.8466 h 7.53498 0.0203 11.71243 1.53859 l -0.13935,1.5329 -1.34171,15.031 -0.0851,0.9642 -11.68489,3.2385 v 0 l -0.026,0.01 -11.69541,-3.2466 -0.79969,-8.9641 h 5.73145 l 0.40592,4.5524 6.35855,1.7177 h 0.004 l 0.0105,-0.01 0.01,-0.01 6.34803,-1.7135 0.66194,-7.4038 h -7.00997 -0.0203 -12.75599 l -1.40329,-15.7335 z" style="fill:#ffffff;stroke-width:0.414828" />
      <path id="path2-7" d="m 48.27214,1391.3298 v 51.7207 h 51.71988 v -51.7207 z m 38.86375,23.4658 c 2.92511,-0.059 4.75409,0.7132 6.09641,2.2126 0.37349,0.3784 0.67858,0.7866 1.24914,1.6711 -1.55841,0.9932 -1.5543,0.9837 -3.78615,2.4289 -0.4772,-1.0275 -1.26869,-1.6711 -2.1045,-1.9512 -1.2977,-0.3933 -2.93454,0.033 -3.27374,1.4058 -0.11816,0.4226 -0.0931,0.8155 0.0936,1.5137 0.52594,1.1998 2.29091,1.7215 3.87411,2.4491 4.55748,1.8481 6.09601,3.8297 6.47488,6.1892 0.36398,2.0306 -0.0892,3.3475 -0.15735,3.5449 -1.68154,5.7519 -11.05682,5.9385 -14.80329,2.1384 -0.7916,-0.8945 -1.2877,-1.3617 -1.75992,-2.3942 1.99138,-1.1452 1.99131,-1.1451 3.92817,-2.2659 1.0523,1.6175 2.02555,2.507 3.77565,2.8711 2.3748,0.29 4.76422,-0.5267 4.22836,-3.0487 -0.55073,-2.0599 -4.86241,-2.5604 -7.79744,-4.7634 -2.97923,-2.0008 -3.6773,-6.8632 -1.22896,-9.6413 0.81597,-1.0274 2.20746,-1.7936 3.66753,-2.1625 z m -15.58439,0.305 h 4.83759 c 0,4.4491 0.0241,8.8833 -7.9e-4,13.3185 0.01,2.7185 0.2461,5.176 -0.85536,7.2067 -0.76185,1.5489 -2.21667,2.5669 -3.90316,3.0583 -2.59129,0.5949 -5.06875,0.2559 -6.91223,-0.8506 -1.23408,-0.7569 -2.1977,-1.9224 -2.85172,-3.2647 l 3.93301,-2.4089 c 0.0347,0.014 0.13759,0.2018 0.27517,0.4431 0.50116,0.8404 0.93427,1.4346 1.78495,1.8527 0.83581,0.285 2.6693,0.467 3.37704,-1.003 0.43256,-0.7475 0.29534,-3.1856 0.29534,-5.8455 z" style="fill:#ffffff;stroke-width:0.413152" />
      <g id="g32637" transform="matrix(2.2487264,0,0,2.2487264,264.01084,1417.1901)">
        <circle cx="0" cy="0" r="2.05" fill="#61dafb" id="circle4" style="fill:#ffffff;fill-opacity:1" />
        <ellipse rx="11" ry="4.1999998" id="ellipse6" cx="0" cy="0" style="fill:none;stroke:#ffffff;stroke-width:1;stroke-opacity:1" />
        <ellipse rx="11" ry="4.1999998" transform="rotate(60)" id="ellipse8" cx="0" cy="0" style="fill:none;stroke:#ffffff;stroke-width:1;stroke-opacity:1" />
        <ellipse rx="11" ry="4.1999998" transform="rotate(120)" id="ellipse10" cx="0" cy="0" style="fill:none;stroke:#ffffff;stroke-width:1;stroke-opacity:1" />
      </g>
      <path fill-rule="evenodd" clip-rule="evenodd" fill="#CB6699" d="m 796.27184,1412.8956 c 0,0.3872 0.114,0.6428 0.17793,0.8912 0.41639,1.6155 1.31148,3.0017 2.37342,4.2665 1.51252,1.8022 3.36485,3.2531 5.26241,4.6174 1.6458,1.1832 3.32521,2.3398 4.97762,3.5141 0.28368,0.2016 0.55191,0.4335 0.8598,0.6809 -0.26489,0.1431 -0.48528,0.2693 -0.71434,0.3856 -2.18068,1.1059 -4.27872,2.3459 -6.21258,3.8479 -1.16555,0.9055 -2.29247,1.8677 -3.08843,3.1254 -1.28056,2.0222 -1.7339,4.1771 -0.77938,6.4778 0.27875,0.6721 0.70399,1.2527 1.30384,1.6817 0.19443,0.1388 0.4125,0.2765 0.63997,0.3304 0.58282,0.1372 1.17653,0.227 1.76643,0.3355 h 1.67064 c 1.8474,-0.1647 3.52895,-0.7976 5.04872,-1.8464 2.37503,-1.6391 3.97513,-3.8369 4.66303,-6.6575 0.50017,-2.05 0.52056,-4.1023 -0.0692,-6.1431 a 6.4422299,6.4422299 0 0 0 -0.195,-0.5586 c -0.0717,-0.1834 -0.15589,-0.3618 -0.25501,-0.5904 l 3.78731,-2.1779 0.0565,0.049 c -0.0693,0.2253 -0.14204,0.45 -0.20431,0.6776 -0.45,1.6436 -0.74904,3.3158 -0.64172,5.0217 0.11457,1.8176 0.6219,3.5192 1.68609,5.0377 0.86036,1.2281 2.91047,1.2741 3.82481,0.042 0.32437,-0.4379 0.63887,-0.8956 0.87517,-1.3841 0.61745,-1.2752 1.18919,-2.5727 1.77909,-3.8617 l 0.10302,-0.2358 c -0.0422,0.6103 -0.0919,1.1463 -0.11457,1.6828 -0.035,0.8377 0.0144,1.6706 0.30025,2.4675 0.24506,0.682 0.66202,1.1914 1.44308,1.2813 0.53425,0.061 0.96006,-0.1835 1.35273,-0.4935 a 5.7195721,5.7195721 0 0 0 1.48227,-1.762 c 1.04707,-1.9229 2.12224,-3.8342 3.0713,-5.8055 1.02668,-2.1322 1.92455,-4.3267 2.8779,-6.4951 l 0.15757,-0.3845 c 0.22532,0.8852 0.38225,1.7521 0.67142,2.5729 0.33599,0.9523 0.75193,1.8819 1.20464,2.7859 0.21425,0.4268 0.18949,0.7039 -0.10741,1.062 -1.24261,1.4981 -2.4638,3.0145 -3.68595,4.5292 -0.27047,0.3343 -0.53982,0.6748 -0.76514,1.0399 a 2.0385339,2.0385339 0 0 0 -0.26441,0.7513 0.95675054,0.95675054 0 0 0 0.76179,1.0857 5.3213392,5.3213392 0 0 0 1.49158,0.1063 c 1.70583,-0.1255 3.25474,-0.7243 4.62403,-1.739 1.77414,-1.3141 2.34373,-3.1076 1.91403,-5.2332 -0.11616,-0.5767 -0.32166,-1.1373 -0.52158,-1.6931 -0.0898,-0.2506 -0.0959,-0.4263 0.0677,-0.6598 1.41833,-2.0254 2.63013,-4.1741 3.75705,-6.3724 0.0446,-0.087 0.0903,-0.173 0.16856,-0.2655 0.36513,1.9003 0.9149,3.7318 1.89971,5.3935 -0.50232,0.4842 -0.9997,0.9232 -1.44978,1.4069 -0.99086,1.0652 -1.85011,2.2219 -2.29844,3.6325 -0.19284,0.608 -0.34101,1.2261 -0.25502,1.8755 0.13328,1.0084 0.95948,1.6639 1.95145,1.4343 2.1228,-0.4914 3.95531,-1.4916 5.29442,-3.2635 0.90105,-1.1931 0.98314,-2.5238 0.60583,-3.9179 -0.10351,-0.379 -0.22636,-0.7519 -0.35861,-1.1865 0.5239,-0.1625 1.03449,-0.3575 1.56268,-0.4781 2.74248,-0.6257 5.45517,-0.5167 8.09796,0.4737 1.54285,0.5783 2.78929,1.5461 3.52847,3.0685 0.90272,1.8612 0.40375,3.6272 -1.35057,4.8037 -0.16362,0.1095 -0.35088,0.1961 -0.48639,0.3331 a 0.47865063,0.47865063 0 0 0 -0.1129,0.3691 c 0.0111,0.068 0.19061,0.1526 0.29355,0.1516 0.57668,-0.01 1.04436,-0.3069 1.49326,-0.6176 1.12477,-0.7783 1.94548,-1.8253 2.12223,-3.204 l 0.0343,-0.1035 -0.0422,-0.8979 c -0.0167,-0.052 0.0128,-0.103 0.009,-0.142 -0.23902,-2.0078 -1.31148,-3.5649 -2.87138,-4.7855 -1.80663,-1.4128 -3.93994,-1.9944 -6.19594,-2.0865 a 13.99103,13.99103 0 0 0 -5.37865,0.8279 c -0.49412,0.1791 -0.98378,0.3912 -1.4806,0.591 -0.0669,-0.1206 -0.13821,-0.2363 -0.19722,-0.3558 -0.50996,-1.0444 -1.12803,-2.0424 -1.26458,-3.2398 -0.097,-0.8504 -0.21592,-1.6998 -0.0144,-2.5409 0.19443,-0.8091 0.44778,-1.6044 0.68632,-2.4027 0.12284,-0.4108 0.0358,-0.641 -0.35583,-0.8261 a 1.572001,1.572001 0 0 0 -0.43288,-0.1421 c -0.96395,-0.14 -1.91468,-0.06 -2.84829,0.2116 -0.33041,0.096 -0.57062,0.2814 -0.64388,0.6471 -0.0422,0.2099 -0.12722,0.4109 -0.1867,0.618 -0.24404,0.8609 -0.41696,1.7383 -0.81132,2.5584 -0.98823,2.0574 -2.11619,4.037 -3.27075,6.0022 -0.12499,0.2122 -0.25661,0.4203 -0.41417,0.6775 -0.40542,-0.8482 -0.83775,-1.6095 -0.96888,-2.5017 -0.14817,-1.0091 -0.26489,-2.0165 -0.0136,-3.0179 0.1867,-0.7469 0.43074,-1.48 0.65542,-2.217 0.10629,-0.3503 0.0573,-0.5343 -0.25996,-0.7188 -0.16027,-0.093 -0.34148,-0.1757 -0.52221,-0.2027 a 6.4130372,6.4130372 0 0 0 -2.94901,0.2412 c -0.29905,0.097 -0.45606,0.2904 -0.54746,0.5988 -0.26879,0.9099 -0.49794,1.8419 -0.87525,2.7072 -1.52788,3.5031 -3.09997,6.9881 -4.67028,10.4724 -0.32771,0.7276 -0.71164,1.4299 -1.08123,2.1382 -0.0936,0.1797 -0.23026,0.3378 -0.34698,0.5063 -0.0936,-0.1108 -0.13002,-0.1867 -0.12946,-0.2627 0,-0.4479 -0.051,-0.9089 0.0343,-1.3418 a 94.842783,94.842783 0 0 1 0.8692,-3.9101 c 0.25884,-1.072 0.5602,-2.1339 0.84715,-3.1987 0.0963,-0.3562 0.098,-0.6895 -0.15813,-0.9891 -0.43018,-0.5018 -1.32907,-0.612 -1.86228,-0.2254 l -0.23576,0.1334 0.0454,-0.3801 c 0.11242,-0.8147 0.13496,-1.6266 -0.0886,-2.4291 -0.27875,-1.0002 -0.99261,-1.5758 -2.03028,-1.5439 -0.48361,0.015 -0.9915,0.097 -1.43928,0.2738 -1.88322,0.738 -3.33125,2.0451 -4.56399,3.6177 a 1.4276898,1.4276898 0 0 1 -0.41696,0.3602 c -1.5935,0.8835 -3.19192,1.7559 -4.78979,2.6317 l -1.77861,0.9745 c -0.47692,-0.455 -0.91044,-0.9271 -1.40233,-1.3276 -1.50201,-1.2249 -3.0283,-2.4196 -4.54082,-3.6308 -1.34063,-1.0735 -2.63945,-2.1917 -3.63309,-3.6134 -0.73919,-1.0575 -1.21563,-2.2147 -1.26141,-3.5223 -0.0581,-1.6662 0.41473,-3.1887 1.26308,-4.6059 1.08504,-1.8132 2.56508,-3.2684 4.19217,-4.5866 1.7212,-1.3934 3.58293,-2.5766 5.51249,-3.6567 2.6994,-1.511 5.47603,-2.8483 8.45315,-3.7312 3.05258,-0.9055 6.14976,-1.4238 9.34439,-1.0625 1.25583,0.1421 2.47535,0.4296 3.59511,1.0438 0.85766,0.4698 1.56101,1.0851 1.88816,2.0467 0.32285,0.9464 0.3129,1.9053 0.0893,2.8664 -0.45446,1.9467 -1.52024,3.5512 -2.8615,4.9849 -2.19987,2.3503 -4.88343,3.9503 -7.90456,5.0074 a 21.744729,21.744729 0 0 1 -5.37866,1.1473 c -1.50321,0.1261 -2.97488,-0.01 -4.39823,-0.53 -0.94237,-0.3464 -1.76307,-0.8762 -2.42296,-1.6452 -0.11791,-0.1376 -0.26879,-0.2869 -0.48854,-0.1581 -0.21537,0.1267 -0.25343,0.3316 -0.18121,0.5393 0.12062,0.3448 0.23185,0.7039 0.41966,1.0125 0.47207,0.7738 1.16053,1.335 1.91851,1.8165 1.45574,0.9258 3.08284,1.2371 4.76997,1.3092 2.56014,0.1108 5.05803,-0.2715 7.52071,-0.9584 3.51574,-0.9804 6.57278,-2.7122 9.02441,-5.4442 2.04127,-2.2748 3.49925,-4.8421 3.81159,-7.942 0.15255,-1.5131 -0.01,-2.9952 -0.71824,-4.3756 -0.7684,-1.4954 -1.99007,-2.6075 -3.45084,-3.3736 -2.12718,-1.1154 -4.42299,-1.7648 -6.79253,-1.7648 h -2.37399 c -2.86971,0 -5.64411,0.8223 -8.34088,1.8033 -2.04127,0.743 -4.04289,1.6199 -5.98615,2.5905 -4.23182,2.1145 -8.17287,4.6642 -11.40994,8.17 -1.61276,1.7467 -2.97819,3.6739 -3.76367,5.9432 a 22.304348,22.304348 0 0 0 -0.61191,2.0633 m 15.33384,19.8363 c -0.18335,2.456 -1.29659,4.4472 -3.11588,6.0599 -1.02334,0.9066 -2.19716,1.5522 -3.56422,1.7791 -0.49579,0.082 -1.00304,0.1019 -1.48394,-0.1035 -0.68576,-0.293 -0.83942,-0.9017 -0.85264,-1.55 -0.0199,-1.0333 0.34149,-1.9674 0.83775,-2.8565 0.64779,-1.1588 1.5974,-2.0423 2.61143,-2.8675 1.59731,-1.3004 3.33021,-2.4009 5.10484,-3.4398 l 0.13392,-0.055 c 0.27421,1.0135 0.40478,2.0143 0.32874,3.0333 z m 13.8572,-10.6741 c -0.12946,0.7843 -0.2914,1.5692 -0.52047,2.3293 -0.79205,2.6312 -1.80942,5.181 -2.90936,7.6965 -0.20326,0.4654 -0.49905,0.89 -0.75629,1.3313 a 0.93031171,0.93031171 0 0 1 -0.1559,0.1839 c -0.31832,0.3145 -0.62023,0.298 -0.78098,-0.1134 -0.18726,-0.4781 -0.3024,-0.9898 -0.4016,-1.496 -0.0669,-0.3399 -0.051,-0.6968 -0.0717,-1.0449 0.0215,-2.4753 0.77668,-4.7249 2.05783,-6.8189 0.52819,-0.8638 1.10328,-1.6867 1.98179,-2.2331 a 3.4535551,3.4535551 0 0 1 0.87851,-0.3889 c 0.46817,-0.1316 0.75567,0.085 0.67804,0.5542 z m 9.45403,12.045 3.39797,-3.9675 c 0.14157,1.4734 -2.36293,4.4147 -3.39797,3.9675 z m 10.85261,-2.6698 c -0.24021,0.1378 -0.50184,0.237 -0.7481,0.3642 -0.22524,0.1167 -0.2996,0 -0.30621,-0.195 a 1.3136729,1.3136729 0 0 1 0.051,-0.3972 c 0.45885,-1.6182 1.3032,-2.9997 2.55959,-4.1233 l 0.0881,-0.044 c 0.59762,1.6717 -0.0931,3.5076 -1.64469,4.3966 z" id="path2-5" style="fill:#ffffff;stroke-width:0.550805" />
      <g style="fill:none" id="g32649" transform="matrix(0.41512903,0,0,0.41512903,994.7807,1390.4997)">
        <path d="m 107.346,2.012 -6.914,0.431 0.539,14.377 c 0.028,0.795 -0.889,1.259 -1.514,0.766 l -4.63,-3.65 -5.485,4.162 A 0.934,0.934 0 0 1 87.844,17.314 L 88.461,3.191 19.873,7.48 a 6.264,6.264 0 0 0 -5.87,6.488 l 3.86,102.838 a 6.264,6.264 0 0 0 5.98,6.023 l 83.612,3.754 a 6.273,6.273 0 0 0 4.609,-1.73 6.255,6.255 0 0 0 1.936,-4.526 V 8.264 a 6.258,6.258 0 0 0 -1.975,-4.566 6.257,6.257 0 0 0 -4.679,-1.686 z m -41.46,21.187 c 16.308,0 25.214,8.723 25.214,25.319 -2.204,1.713 -18.62,2.88 -18.62,0.443 0.346,-9.3 -3.817,-9.707 -6.13,-9.707 -2.198,0 -5.899,0.662 -5.899,5.644 0,12.288 31.69,11.625 31.69,36.424 0,13.95 -11.335,21.655 -25.791,21.655 -14.92,0 -27.957,-6.036 -26.485,-26.963 0.578,-2.457 19.545,-1.873 19.545,0 -0.23,8.635 1.735,11.175 6.707,11.175 3.817,0 5.553,-2.103 5.553,-5.646 0,-12.621 -31.227,-13.063 -31.227,-36.201 0,-13.285 9.138,-22.143 25.444,-22.143 z" fill="#FF4785" id="path2-35" style="fill:#ffffff" />
      </g>
      <g id="g10" transform="matrix(0.22146675,0,0,0.22146675,904.66154,1391.3297)">
        <path d="m 192.11502,70.808382 -61.20066,88.487948 c -0.64879,0.93821 -1.58718,1.64102 -2.67273,2.00174 -1.08555,0.36073 -2.25899,0.35734 -3.34234,-0.005 -1.08335,-0.3641 -2.01733,-1.0703 -2.66053,-2.01021 -0.64303,-0.9416 -0.96023,-2.0661 -0.90299,-3.20246 l 2.44935,-48.85451 -39.542151,-8.386008 C 83.3979,98.660796 82.610579,98.276874 81.950612,97.722244 81.290645,97.167783 80.778353,96.459551 80.459293,95.660375 80.140232,94.8612 80.024226,93.995808 80.121434,93.140747 c 0.09721,-0.854893 0.404583,-1.673205 0.895029,-2.382284 L 142.2178,2.2703488 c 0.64896,-0.9387217 1.58734,-1.64136587 2.67289,-2.00157896 1.08572,-0.36021308 2.25917,-0.3583502 3.34269,0.005589 1.08334,0.36376949 2.01749,1.06963136 2.66053,2.01055466 0.64303,0.940754 0.96006,2.0650862 0.90265,3.2024586 l -2.44935,48.8550209 39.54164,8.385327 c 0.84507,0.179006 1.63256,0.562929 2.29303,1.117389 0.66048,0.55463 1.17193,1.262863 1.49031,2.062038 0.32007,0.799175 0.43523,1.664567 0.3387,2.519459 -0.0965,0.855062 -0.40475,1.673374 -0.89587,2.382454 z" fill="#FCC72B" id="path4" style="fill:#ffffff" />
        <path id="path6" d="M 12.341797,93.175781 C 9.072786,93.189095 5.9403813,94.493196 3.6289062,96.804688 1.3173804,99.116349 0.01341398,102.24661 0,105.51562 c -0.01320823,3.26902 1.2659676,6.41207 3.5585938,8.74219 L 119.21289,229.9082 c 1.1494,1.15329 2.51619,2.06624 4.01953,2.68946 1.50351,0.62321 3.11488,0.94114 4.74219,0.93945 0.009,10e-6 0.0169,-0.002 0.0254,-0.002 0.009,0 0.0169,0.002 0.0254,0.002 1.62731,0.002 3.23885,-0.31624 4.74219,-0.93945 1.50351,-0.62322 2.86835,-1.53617 4.01758,-2.68946 L 252.43945,114.25781 c 2.29303,-2.33012 3.57232,-5.47317 3.56055,-8.74219 -0.0136,-3.26901 -1.3192,-6.399271 -3.63086,-8.710932 -2.30997,-2.311492 -5.44074,-3.615593 -8.71094,-3.628907 -3.2685,-0.01328 -6.40994,1.263947 -8.74023,3.556641 l -57.61328,57.611328 c -0.0832,0.0782 -0.18246,0.13411 -0.26367,0.21484 L 128,203.5957 78.957031,154.55859 c -0.07824,-0.0778 -0.173827,-0.13152 -0.253906,-0.20703 L 21.082031,96.732422 c -2.33029,-2.292694 -5.471393,-3.569916 -8.740234,-3.556641 z" style="fill:#ffffff" />
      </g>
      <g style="fill:#000000" id="g32668" transform="matrix(2.9820519,0,0,2.9820519,133.28663,1381.4055)">
        <path d="M 12,12.765 17.592,3.328 H 14.316 L 12,7.33 V 7.332 L 9.688,3.328 h -3.28 z" id="path2-62" style="fill:#ffffff" />
        <path d="M 18.461,3.332 12,14.235 5.539,3.332 H 1.992 L 12,20.672 22.008,3.332 Z" id="path4-9" style="fill:#ffffff" />
      </g>
      <g style="overflow:visible" id="g32677" transform="matrix(1.1329385,0,0,1.1329385,326.82758,1384.1125)">
        <path d="m 58.308966,23.736442 1.48608,5.11391 -11.38297,3.216489 c 0,0 0,6.845865 -5.523704,9.565964 -5.523702,2.723191 -9.814931,0.415979 -9.814931,0.415979 l -0.688143,-1.977832 8.195862,-2.228347 1.815461,-7.012876 -5.282465,-5.192775 -7.586586,2.294842 -0.658762,-1.801543 c 0,0 3.545871,-7.835555 14.021111,-3.381954 0,0 3.301541,2.061337 4.040715,3.875251 z m 1.48608,-0.385051 1.813915,-0.521133 1.459791,5.225249 -1.900511,0.572164 z m 0.640206,-0.228866 1.173709,-0.292267 1.459791,5.225249 -1.900511,0.572164 -0.494846,-1.74742 0.757731,-0.29536 z m -3.3835,0.935566 1.255668,-0.320103 1.48608,5.113909 -11.382971,3.21649 c 0,0 -0.120619,5.975248 -4.080921,8.678337 -3.95721,2.703088 -8.413904,2.619583 -11.257714,1.305152 L 32.754885,41.13796 c 0,0 7.74277,1.8201 11.574723,-3.997416 2.310305,-3.835046 2.268553,-6.596896 2.268553,-6.596896 L 58.02443,27.452416 Z m -28.187583,2.070615 6.683495,-1.939172 1.564945,1.445874 -7.589679,2.294842 z M 5.309568,29.756535 6.6518338,34.91065 18.073465,31.851892 c 0,0 3.505664,5.879373 9.646376,5.389167 6.142258,-0.490205 8.642769,-4.66391 8.642769,-4.66391 l -0.422164,-2.056697 -8.177306,2.28247 -5.146384,-5.095352 1.877316,-7.167515 7.693287,-1.906698 -0.355669,-1.886594 c 0,0 -7.054628,-4.919065 -13.776782,4.268033 0,0 -1.778347,3.46082 -1.487626,5.399992 z m -1.4737089,0.42835 -1.8247393,0.480927 1.4180389,5.232981 1.9268009,-0.476287 z m -0.6664938,0.12835 -1.1582455,0.352577 1.4180389,5.232981 1.9268009,-0.476287 -0.4654631,-1.758245 -0.8056688,0.131443 z m 3.3850461,-0.92474 -1.2448434,0.36804 1.3422658,5.154115 11.4216312,-3.058758 c 0,0 3.165458,5.065972 7.951533,5.362878 4.782982,0.296907 8.568543,-2.048966 10.337612,-4.639168 l -0.190206,-0.947936 c 0,0 -5.723186,5.523703 -11.992248,2.491234 -3.947932,-2.113915 -5.322672,-4.510818 -5.322672,-4.510818 L 7.4559562,32.796737 Z m 25.2788246,-12.643279 -6.731432,1.753606 -0.607732,2.039687 7.694834,-1.906698 z" id="path2-1" style="fill:#ffffff;stroke-width:1.54639" />
      </g>
      <path id="path36987" style="fill:#ffffff;stroke-width:0.576562" d="m 548.12546,1391.3335 c -4.17143,0 -7.55064,3.3784 -7.55064,7.5451 -2.94047,-2.9461 -7.72386,-2.9461 -10.66549,0 -2.95142,2.9521 -2.95142,7.7299 0,10.6796 -4.17085,0 -7.55375,3.379 -7.55375,7.5452 0,0.039 0.004,0.076 0.005,0.1136 v 22.9522 c 0,1.9219 0.96116,2.883 2.88303,2.883 h 45.76671 c 1.92187,0 2.88302,-0.9611 2.88302,-2.883 v -23.0628 -0.01 c 0,-4.1668 -3.38083,-7.5451 -7.54131,-7.5451 2.94105,-2.9515 2.94105,-7.7287 0,-10.6795 -2.93872,-2.9462 -7.72282,-2.9462 -10.67483,0 0,-4.1668 -3.3773,-7.5451 -7.55218,-7.5451 z m 0.004,3.4627 c 2.25954,0 4.09116,1.8276 4.09116,4.0824 -8e-4,1.137 -0.46988,2.1525 -1.20269,2.8939 v 8.3535 l 5.91386,-5.9108 c 0,-1.0446 0.39825,-2.0863 1.19101,-2.886 1.60285,-1.5977 4.19432,-1.5977 5.77929,0 1.59765,1.5947 1.59765,4.1826 0,5.7807 -0.79392,0.7928 -1.84147,1.195 -2.89081,1.195 l -5.90064,5.9092 h 8.35347 c 0.74377,-0.738 1.76092,-1.1972 2.88925,-1.1972 2.2486,0 4.08105,1.8325 4.08105,4.0857 0,0 0,0 0,0.01 h -44.61313 c 0,0 0,0 0,-0.01 0,-2.2532 1.83161,-4.0857 4.09116,-4.0857 1.11853,0 2.1486,0.4592 2.89237,1.1972 h 8.35345 l -5.91308,-5.9077 c -1.03608,0 -2.09437,-0.4027 -2.89003,-1.1949 -1.59996,-1.5983 -1.59996,-4.1847 0,-5.7801 1.59882,-1.5977 4.18396,-1.5977 5.78162,0 0.79277,0.7991 1.20035,1.8411 1.20035,2.8846 l 5.90063,5.9108 v -8.3527 c -0.73222,-0.742 -1.20034,-1.7596 -1.20034,-2.8956 0,-2.2531 1.83123,-4.0824 4.09193,-4.0824 z m 13.41082,24.1859 c 3.59412,0 6.47937,2.8716 6.56111,6.4413 h -3.65864 c -0.0796,-1.5483 -1.32975,-2.7889 -2.90247,-2.7889 -1.60523,0 -2.92426,1.3132 -2.92426,2.9336 v 9.515 c 0,1.6209 1.31906,2.9335 2.92426,2.9335 1.62434,0 2.93126,-1.3134 2.93125,-2.9282 v -2.9359 h -2.78656 l 7.9e-4,-3.6492 h 6.44598 v 6.5798 c 0,3.6414 -2.94582,6.5876 -6.58212,6.5876 -3.63511,0 -6.58133,-2.9462 -6.58133,-6.5876 v -9.5656 c 0.029,-3.6136 2.96367,-6.5354 6.572,-6.5354 z m -26.91578,0 c 3.58655,0 6.47082,2.8715 6.55255,6.4389 h -3.64852 c -0.0801,-1.5488 -1.33925,-2.788 -2.90403,-2.788 -1.61398,0 -2.93437,1.3131 -2.93437,2.9336 0,0.8111 0.33435,1.5386 0.85807,2.0731 v 0 h 7.9e-4 c 0.50142,0.4964 1.18813,0.7835 1.93005,0.8216 v 0.037 h 0.14548 c 1.82425,0 3.46631,0.7383 4.64972,1.9269 h 7.9e-4 c 1.19484,1.1908 1.93163,2.839 1.93163,4.6528 0,3.6429 -2.94406,6.5891 -6.58212,6.5891 -3.58469,0 -6.47063,-2.871 -6.55177,-6.4452 h 3.64618 c 0.0797,1.5519 1.34275,2.7889 2.90559,2.7889 1.61592,0 2.93359,-1.3099 2.93359,-2.9328 0,-0.8053 -0.33128,-1.5335 -0.86583,-2.0662 -0.5252,-0.5349 -1.26507,-0.8612 -2.06776,-0.8612 -1.82293,0 -3.46426,-0.7413 -4.65905,-1.9316 -1.18593,-1.1886 -1.92228,-2.8352 -1.92228,-4.6551 0,-3.6375 2.94505,-6.5845 6.58133,-6.5845 z m 6.90417,0 h 3.65086 l 2.76555,13.3401 h 0.28395 l 2.76323,-13.3401 h 3.64385 l -4.69329,22.6854 h -3.71308 z" />
      <g id="g6396" transform="matrix(0.45910573,0,0,0.45910573,623.82188,592.49017)">
        <g aria-label="Math" id="text6356" style="font-weight:bold;font-size:44.0588px;font-family:Montserrat;-inkscape-font-specification:'Montserrat Bold';text-align:center;text-anchor:middle;fill:#ffffff;stroke:#000000;stroke-width:2.25526;stroke-linecap:round;stroke-linejoin:round">
          <path d="m -23.147599,1781.9764 v -30.8411 h 7.181585 l 12.7770517,20.972 h -3.7890568 l 12.4245816,-20.972 h 7.1815845 l 0.08812,30.8411 H 4.6975629 l -0.088118,-18.6368 h 1.3658228 l -9.2964068,15.5968 h -3.8771744 l -9.5607595,-15.5968 h 1.674235 v 18.6368 z" style="-inkscape-font-specification:'Montserrat Ultra-Bold';stroke:none" id="path6371" />
          <path d="m 33.071451,1781.9764 v -4.4499 l -0.572765,-1.1015 v -8.1949 q 0,-1.9827 -1.233646,-3.0401 -1.189587,-1.1014 -3.833115,-1.1014 -1.718294,0 -3.480646,0.5727 -1.762352,0.5287 -2.995998,1.498 l -2.819763,-5.6836 q 2.026705,-1.3217 4.846468,-2.0267 2.863822,-0.749 5.683585,-0.749 5.815761,0 8.987995,2.6876 3.216292,2.6436 3.216292,8.3271 v 13.2617 z m -7.049408,0.3966 q -2.863822,0 -4.846468,-0.9693 -1.982646,-0.9693 -3.040057,-2.6436 -1.013353,-1.6742 -1.013353,-3.7449 0,-2.203 1.10147,-3.7891 1.145529,-1.6302 3.480646,-2.4673 2.335116,-0.8812 6.036055,-0.8812 h 5.639526 v 4.3618 h -4.493997 q -2.026705,0 -2.863822,0.6609 -0.793058,0.6609 -0.793058,1.7624 0,1.1014 0.837117,1.7623 0.837117,0.6609 2.291057,0.6609 1.365823,0 2.467293,-0.6609 1.145529,-0.7049 1.674234,-2.1148 l 1.145529,3.0841 q -0.660882,2.4673 -2.599469,3.745 -1.894528,1.2337 -5.022703,1.2337 z" style="-inkscape-font-specification:'Montserrat Ultra-Bold';stroke:none" id="path6373" />
          <path d="m 56.819152,1782.373 q -4.582116,0 -7.137526,-2.247 -2.55541,-2.2911 -2.55541,-6.8732 v -20.4873 h 8.371172 v 20.3992 q 0,1.2777 0.70494,2.0267 0.704941,0.7049 1.806411,0.7049 1.497999,0 2.555411,-0.749 l 2.070763,5.8598 q -1.057411,0.705 -2.599469,1.0134 -1.542058,0.3525 -3.216292,0.3525 z M 43.64557,1764.3089 v -6.2123 h 17.315109 v 6.2123 z" style="-inkscape-font-specification:'Montserrat Ultra-Bold';stroke:none" id="path6375" />
          <path d="m 65.851227,1781.9764 v -32.6916 h 8.371172 v 15.5968 l -1.938587,-1.9826 q 1.365823,-2.5995 3.744998,-3.8772 2.379175,-1.3218 5.375174,-1.3218 2.775704,0 5.022703,1.1456 2.246999,1.1014 3.524704,3.4366 1.321764,2.3351 1.321764,6.036 v 13.6582 h -8.371172 v -12.2924 q 0,-2.5554 -1.057411,-3.7009 -1.013353,-1.1896 -2.863822,-1.1896 -1.321764,0 -2.423234,0.6168 -1.10147,0.5728 -1.718293,1.8064 -0.616824,1.2337 -0.616824,3.2163 v 11.5434 z" style="-inkscape-font-specification:'Montserrat Ultra-Bold';stroke:none" id="path6377" />
        </g>
        <g aria-label="ML" id="text6360" style="font-weight:bold;font-size:77.6177px;font-family:Montserrat;-inkscape-font-specification:'Montserrat Bold';text-align:center;text-anchor:middle;fill:#ffffff;stroke:#000000;stroke-width:3.97305;stroke-linecap:round;stroke-linejoin:round">
          <path d="m -23.292431,1843.3514 v -54.3323 h 12.651685 l 22.509133,36.946 H 5.1932646 l 21.8881914,-36.946 H 39.73314 l 0.155236,54.3323 H 25.761955 l -0.155236,-32.8322 h 2.406149 l -16.377334,27.4766 H 4.8051761 l -16.8430411,-27.4766 h 2.949473 v 32.8322 z" style="-inkscape-font-specification:'Montserrat Ultra-Bold';stroke:none" id="path6362" />
          <path d="m 50.754887,1843.3514 v -54.3323 h 15.368304 v 42.1464 h 25.924311 v 12.1859 z" style="-inkscape-font-specification:'Montserrat Ultra-Bold';stroke:none" id="path6364" />
        </g>
      </g>
    </g>

  </g>
</svg>
