<svg xmlns="http://www.w3.org/2000/svg"
  xmlns:xlink="http://www.w3.org/1999/xlink" xml:space="preserve" width="500" height="180" viewBox="0 0 500 180">
  <metadata>
    Created by Miguel Rivas — Learn more at jmiguelrivas.github.io
  </metadata>

  <defs>
    <clipPath id="cut-off">
      <rect x="0" y="0" width="500" height="180" />
    </clipPath>

    <path class="jmiguelrivas-github-io" id="reuse-0" d="M181.082 147.43c-3.239-2.272-6.623-16.206-6.94-19.398-.319-3.192 2.579-24.563 2.102-32.14-.477-7.577-5.495-19.634-7.395-23.298-1.9-3.664-5.376-8.87-6.888-20.995-1.512-12.125-1.829-20.647-2.807-28.492-.98-7.844.035-24.575-1.074-30.102-1.11-5.528-5.35-22.456-5.35-22.456M161.252 148.746c-4.128-8.29-2.106-14.378-2.331-19.48-.225-5.102 4.527-17.555 2.505-26.32-2.022-8.766-6.628-14.314-9.1-19.483-2.473-5.169-7.663-16.182-4.284-24.278 3.379-8.095 3.6-23.685 2.489-29.242-1.112-5.557-3.136-11.95-3.585-19.364-.449-7.415-3.826-26.894-3.826-26.894M43.208-26.16c-3.46 16.982-5.49 38.767-5.94 52.038-.448 13.27-2.087 34.988.152 43.227 2.24 8.239 2.907 23.956 2.457 31.96-.45 8.004-6.245 26.485-6.245 31.777 0 5.291 1.308 18.744 1.308 18.744M52.807-36.067C59.191-17.82 49.055-1.771 50.048 4.33c.993 6.1 1.527 29.37 4.179 36.337 2.651 6.968 2.679 24.475 2.448 36.978-.23 12.504-4.338 35.334-1.212 40.78 3.125 5.448 6.337 30.551 6.337 30.551M68.475-33.543c1.759 8.95-1.15 21.47-2.698 28.139-1.549 6.669.684 20.995 3.707 28.939 3.024 7.943.37 38.34 1.047 47.942.677 9.6 2.654 49.503 2.654 49.503s11.048 23.815 11.273 26.87M127.437-34.254c3.171 12.155 4.5 28.61 6.519 39.912s9.423 36.189 6.197 46.071c-3.226 9.883-5.156 40.102-3.583 45.272 1.573 5.17 7.845 14.898 9.953 20.06 2.108 5.16-4.146 24.498-5.707 30.927M109.212-34.698c-.225 9.858 2.402 20.175 3.738 28.505 1.336 8.33 1.561 17.795 2.235 25.66.674 7.865.916 3.415-1.78 16.672-2.697 13.257-4.47 22.566-1.574 29.041 2.897 6.475 2.877 12.34 3.323 15.734.445 3.393 5.064 32.321 5.773 35.273.71 2.952 8.868 19.96 4.209 37.756M90.385-34.849c-3.228 11.734-3.168 20.085-2.71 26.37.457 6.287.013 20.894 1.45 28.535 1.436 7.641.57 9.58 2.319 17.762 1.748 8.18 2.249 11.142-.163 23.283-2.412 12.142-7.785 14.634-.029 30.69s7.68 36.13 8.5 42.304c.82 6.174 5.068 18.31 5.068 18.31"/>
    <path id="reuse-1" fill="#dae18f" d="M175.82 173.54s5.458 22.65 2.855 27.728c-2.602 5.078-3.37 10.86-20.229 11.52-16.858.66-18.993.973-24.028-3.163-5.036-4.137-12.974-16.506-12.351-22.672.623-6.166 15.229-14.978 27.902-17.602 12.673-2.624 21.293-.134 25.85 4.19z"/>
    <path id="reuse-3" fill="#7b9375" d="M178.46 183.172c-2.121-.095 1.164-.21-5.424-6.01-5.66-4.982-35.134 3.617-43.935 11.243-4.113 3.563-.307 4.455-2.885 4.95-2.578.496-6.937-5.624-6.916-11.515.017-5.11 1.675-17.107 26.084-20.368 24.409-3.261 36.307.775 33.076 21.7z" class="head-shadow"/>
    <path id="reuse-4" fill="#d1e8c4" d="M125.193 147.303a8.84 8.84 0 0 0-3.679.84 38.693 38.693 0 0 0-6.426 7.936c-.927 3.55-.079 7.272 3.534 9.247 9.294 5.08 20.613-12.844 10.159-17.28-1.226-.52-2.43-.75-3.589-.743zm12.9 16.873c-7.037.052-13.88 5.268-14.778 12.844-.648 5.467 2.427 7.829 6.996 7.982 2.343-1.555 5.837-3.333 11.096-5.401 2.04-.803 5.268-1.873 8.909-2.88 1.351-1.453 1.795-2.712 1.582-3.617-.481-2.045-1.722-6.087-9.913-8.407-1.28-.363-2.59-.53-3.892-.52zm23.158-23.427c-3.61.026-6.904 1.05-8.968 3.172-4.554 4.68-1.41 13.329 7.76 18.073s16.917 3.06 18.675.248c1.138-1.82 1.686-6.493.109-10.906-2.832-3.686-6.536-7.16-11.313-9.69-2.079-.607-4.222-.912-6.263-.897z" class="head-polka"/>
    <path id="reuse-5" d="M148.824 188.58c-2.053 1.015-3.503-3.377-1.665-4.571s3.718 3.555 1.665 4.57zM163.529 184.222c-2.053 1.016-3.503-3.377-1.665-4.57 1.838-1.195 3.718 3.554 1.665 4.57z" class="eyes-base"/>
    <path id="reuse-6" fill="#d1e8c4" d="M381.334 150.926c-.811.702-1.324 1.633-1.596 2.558a1.714 1.777 0 0 0 1.514.99 1.714 1.777 0 0 0 1.715-1.777 1.714 1.777 0 0 0-1.633-1.771zM388.05 150.76a1.933 1.66 0 0 0-1.505 1.586 1.933 1.66 0 0 0 1.932 1.66 1.933 1.66 0 0 0 1.353-.479c-.246-.9-.753-1.985-1.78-2.767zM385.36 154.484a2.884 1.748 0 0 0-2.885 1.748 2.884 1.748 0 0 0 .732 1.137c.621-.007 1.254-.041 1.969-.062 1.426-.043 2.193-.305 2.94-.588a2.884 1.748 0 0 0 .128-.487 2.884 1.748 0 0 0-2.885-1.748z"/>

    <g id="glow" fill="#e1ffa7">
      <circle cx="0" cy="0" r="2" fill-opacity=".222" />
      <circle cx="0" cy="0" r="1"/>
    </g>

    <path id="p1" d="m 105.3111,107.46124 c -2.5978,0.35747 18.27358,26.31391 20.41595,23.83068 2.14236,-2.48324 -4.60443,-26.77268 -10.00099,-25.5541 -5.39656,1.21858 -16.962647,27.60533 -11.12886,26.04197 5.83378,-1.56336 26.55198,-18.93566 24.71186,-21.57028 -1.84012,-2.63462 -33.117027,5.92129 -33.185755,8.43864 -0.06873,2.51735 35.156045,9.2578 35.987155,4.6696 0.8311,-4.58821 -25.37903,-21.16527 -26.79936,-15.85651 z" />

    <path id="p2" d="m 414.06343,96.991804 c -1.08304,-3.036335 -21.60577,22.799376 -26.69393,19.250446 -5.08816,-3.54893 -3.85896,-23.420904 -1.21584,-23.341384 2.64312,0.07952 21.94865,25.230314 24.57005,22.180374 2.62141,-3.04994 -5.52987,-23.831029 -9.74861,-23.257162 -4.21873,0.573867 -6.76697,27.875312 -3.03421,27.358902 3.73276,-0.51642 21.75941,-15.10861 16.12254,-22.191176 z" />

    <path id="p3" d="m 243.76413,95.18599 c 1.82718,-4.684162 53.73461,-1.392721 54.21569,-4.57605 0.48108,-3.183329 -56.66569,-0.870451 -53.95946,-5.90475 2.70624,-5.034299 51.08161,4.037505 52.08176,-1.098551 1.00015,-5.136056 -54.81422,1.125889 -54.82947,-4.591581 -0.0153,-5.717471 59.21628,1.049974 58.33101,-3.720182 -0.88526,-4.770155 -57.81501,-0.03859 -58.10141,-4.451668 -0.28641,-4.413083 56.04613,1.208205 56.79848,-2.632215 0.75234,-3.84042 -49.25074,-0.111958 -46.39043,-4.210126 2.8603,-4.098168 28.56306,-4.030598 30.45663,-2.958034 1.89357,1.072563 16.9285,35.140434 6.38862,37.710618 -10.53988,2.570179 -47.17288,3.991719 -44.99142,-3.567461 z" />

    <symbol id="layer-02">
      <path fill="#4e573e" d="M172.256 107.13c-.767-4.355-1.377-54.93 2.438-72.094 3.814-17.162 12.402-83.684 12.402-88.221 0-4.537 10.439-69.737 10.439-69.737l118.622-.583s8.473 15.777 8.476 23.559c.003 7.782 4.561 19.773 5.484 29.973.943 10.422-2.86 17.834.001 31.498 2.862 13.664 10.549 58.71 12.435 66.168 1.886 7.459 1.567 49.326 4.113 63.363 1.302 7.179-27.468 13.55-74.922 10.153-42.847-3.068-99.488 5.92-99.488 5.92z"/>
      <g fill="none" stroke="#384635" stroke-dasharray="4 2 1 2" stroke-linecap="round" stroke-linejoin="round" stroke-width="2">
        <path d="M187.776 90.303c3.084-2.476 5.56-16.6 5.67-19.806.11-3.206-4.165-24.345-4.18-31.937-.015-7.592 4.212-19.948 5.872-23.727 1.659-3.78 4.79-9.2 5.513-21.397.724-12.198.488-20.723.957-28.614.469-7.892-1.627-24.522-.877-30.11.75-5.587 3.885-22.754 3.885-22.754M207.649 90.333c3.583-8.54 1.17-14.485 1.065-19.59-.106-5.106-5.655-17.225-4.204-26.103 1.45-8.878 5.687-14.713 7.82-20.03 2.132-5.32 6.599-16.645 2.703-24.505-3.897-7.86-5.127-23.403-4.377-29.02.75-5.617 2.355-12.128 2.323-19.556-.032-7.428 2.077-27.084 2.077-27.084M314.12-91.848c4.552 16.721 7.99 38.33 9.297 51.543 1.307 13.214 4.349 34.78 2.648 43.146-1.701 8.367-1.35 24.094-.383 32.052.967 7.959 7.947 26.026 8.29 31.306.342 5.28-.092 18.79-.092 18.79M303.9-101.114c-5.19 18.623 5.965 33.981 5.369 40.133-.596 6.152.377 29.407-1.817 36.532-2.195 7.125-1.089 24.597-.05 37.06 1.04 12.462 6.617 34.978 3.851 40.616-2.766 5.637-4.345 30.896-4.345 30.896M288.429-97.581c-1.176 9.045 2.538 21.35 4.514 27.905 1.977 6.555.677 20.996-1.826 29.119-2.503 8.122 2.113 38.284 2.06 47.909-.054 9.625.557 49.57.557 49.57s-9.484 24.481-9.51 27.545M229.544-94.473c-2.377 12.335-2.637 28.842-3.92 40.25-1.284 11.41-7.06 36.724-3.202 46.376 3.86 9.653 7.741 39.685 6.506 44.946-1.235 5.26-6.863 15.374-8.633 20.66-1.77 5.288 5.724 24.18 7.698 30.494M247.702-96.096c.863 9.823-1.09 20.289-1.884 28.688-.795 8.398-.406 17.859-.57 25.75-.163 7.893-.692 3.467 2.857 16.522 3.55 13.055 5.922 22.229 3.45 28.878-2.471 6.65-2.072 12.5-2.296 15.916-.225 3.415-2.961 32.582-3.478 35.573-.516 2.992-7.557 20.493-1.755 37.95M266.48-97.465c3.98 11.5 4.462 19.837 4.412 26.14-.05 6.302 1.34 20.85.4 28.568-.938 7.718.051 9.597-1.164 17.874-1.214 8.277-1.523 11.265 1.67 23.225 3.193 11.96 8.717 14.098 2.016 30.623-6.7 16.524-5.324 36.552-5.743 42.766-.419 6.214-3.872 18.6-3.872 18.6"/>
      </g>
      <path fill="#555e44" d="M322.762 135.72c-.899-7.144-.898-27.699 6.24-43.416 7.138-15.717 16.051-35.448 15.287-46.056-.764-10.609-.492-35.708 2.219-59.236 2.711-23.529 4.349-56.157 3.467-65.495-.88-9.338-17.31-56.415-17.76-64.995-.449-8.58 148.017-6.872 148.017-6.872s-6.357 23.69-4.303 29.069c2.053 5.379-6.418 15.296.255 31.054 6.674 15.758 8.023 36.247 8.023 36.247s-2.666 42.728 3.588 57.604c6.255 14.877 15.1 57.047 16.449 62.607 1.348 5.56 20.083 67.397 20.083 67.397s-81.834 8.204-117.119.667c-35.284-7.537-84.446 1.426-84.446 1.426z"/>
      <g fill="none" stroke="#41533d" stroke-dasharray="4 2 1 2" stroke-linecap="round" stroke-linejoin="round" stroke-width="2">
        <use xlink:href="#reuse-0" transform="matrix(.93421 .01882 -.01454 1.20947 323.419 -66.366)"/>
      </g>
      <path fill="#555e44" d="M-21.453 121.876S3.35 60.042 6.667 33.792C9.983 7.54 5.386-23.185 6.52-33.622 7.654-44.06 20.662-117.85 20.861-146.623c.2-28.774 127.415-25.002 127.415-25.002l4.456 59.535s-1.902 16.358 1.805 26.158c3.598 9.509 1.827 39.348 7.87 51.06 5.84 11.321 8.586 31.837 8.202 44.942-.384 13.106 4.41 42.099 9.193 58.33 4.783 16.23 18.124 54.798 18.124 54.798s-59.68 13.511-107.829 4.953c-48.149-8.558-111.55-6.275-111.55-6.275z"/>
      <g fill="none" stroke="#3f533b" stroke-dasharray="4 2 1 2" stroke-linecap="round" stroke-linejoin="round" stroke-width="2">
        <use xlink:href="#reuse-0" transform="matrix(.99882 0 0 1.18322 -14.678 -69.053)"/>
      </g>
    </symbol>

    <symbol id="layer-01">
      <g class="lotus">
        <animateTransform attributeName="transform" attributeType="XML" calcMode="spline" dur="7s" keySplines=".42,0,.58,1; .42,0,.58,1" keyTimes="0; 0.5; 1" repeatCount="indefinite" type="translate" values="0,0; 0,-4; 0,0"/>

        <path fill="#b9cf8f" d="M269.285 83.883c17.287-.202 22.024-1.192 22.615-1.976.59-.784.568-1.653 1.01-1.96.442-.308.6-1.057.369-1.1-.23-.045-1.354.168-1.693.113-.338-.056-2.714.066-2.714.066s1.997-1.897 2.507-2.945c.51-1.047.701-2.43.758-2.553.058-.125.514-.793.165-1.05-.349-.259-.544.218-1.075.241-.531.024-2.164.126-2.688.466-.523.341.56-.642.555-1.73-.004-1.087-.313-1.244-.245-1.768.067-.523.531-1.521.188-1.633-.344-.111-1.001.425-1.524.485-.522.06-2.782-.307-3.64-.143-.86.164-3.315 1.808-3.315 1.808s-1.17-2.205-1.65-2.695c-.479-.491-1.086-.896-1.276-1.182-.19-.287-.606-.908-.92-.955-.314-.048-.88.878-1.083.977-.204.099-1.36.341-2.52 1.128-1.162.786-2.67 2.033-2.67 2.033s-1.478-1.022-2.912-1.668c-1.435-.645-1.62-.75-2.018-1.087-.397-.338-1.133-1.23-1.504-1.103-.371.128-.754 1.093-1.12 1.345-.367.25-.895.292-2.025 1.404-1.13 1.112-1.66 2.355-1.66 2.355s-.934-.796-2.423-.787c-1.488.01-2.119.302-2.594.27-.476-.03-1.545-.387-1.804-.06-.26.326-.171 1.05-.196 1.487-.024.437-.08 2.362.117 2.795.196.433.703 1.912.703 1.912s-.92-.24-2.269.033c-1.348.273-1.26.542-1.776.787-.516.244-1.875-.05-1.897.356-.022.405 1.119 2 1.356 2.33.237.33 3.609 4.7 7.194 4.558 3.585-.144 12.323-.212 13.675-.555z"/>
        <path fill="#e3f8c0" d="M271.877 79.612c-4.357-.063-16.27-.588-16.937-2.76-.667-2.173-.81-3.025-.981-3.453-.17-.428-.796-1.08-.59-1.4.207-.32.82-.03 1.096.005.277.035 1.38-.05 2.207.225.826.274 1.874.763 1.874.763s.206-1.582 1.043-2.376c.838-.794 2.01-1.32 2.133-1.535.121-.215.452-.716.661-.694.209.022.61.546.93.636.322.09 1.519.226 2.327.702s1.32 1.766 1.32 1.766.636-1.292 1.147-1.764c.51-.472 1.739-.76 1.904-1.048.165-.289.637-1.213.82-1.194.184.02.711.794 1.093 1.014.381.22 1.577.645 2.186 1.238.608.592 1.15 1.273 1.15 1.273s.965-1.261 2.105-1.597c1.14-.337 2.37-.384 2.57-.496.201-.111.924-.496 1.135-.451.21.044.459 1.02.614 1.465.156.446.69 1.376.79 1.645.1.269.088 1.188.088 1.188s1.004-.455 1.419-.589c.415-.135 1.338-.246 1.536-.315.199-.069.554-.37.737-.31.183.058-.045 1.272-.229 1.595-.184.323-4.097 7.472-14.148 6.467z"/>
        <g class="character" transform="matrix(.1988 .0295 -.0295 .1988 243.457 33.033)">
          <use xlink:href="#reuse-1"/>
          <use xlink:href="#reuse-2"/>
          <ellipse cx="259.519" cy="-77.64" fill="#a6c4ef" rx="3.92" ry="3.164" transform="rotate(68.081)"/>
          <ellipse cx="-144.98" cy="210.497" fill="#9da386" rx="3.92" ry="3.164" transform="rotate(-67.913)"/>
          <ellipse cx="126.966" cy="199.474" fill="#9da386" class="left" rx="6.593" ry="6.275"/>
          <g class="head">
            <use xlink:href="#reuse-3" class="head-shadow"/>
            <path fill="#7ac754" d="M124.489 195.002c3.7-3.061-5.278-6.671 16.918-15.401 7.05-2.773 28.083-8.752 32.433-4.237 4.35 4.516 1.833 7.172 4.839 7.667 3.006.495 8.406-6.512 8.27-12.457-.135-5.945-9.62-39.298-46.859-31.889-36.621 7.286-39.39 58.847-15.601 56.317z" class="head-base"/>
            <use xlink:href="#reuse-4" class="head-polka"/>
          </g>
          <g fill="#fff" class="eyes">
            <use xlink:href="#reuse-5" class="eyes-base"/>
          </g>
          <ellipse cx="181.024" cy="185.97" fill="#dae18f" class="right" rx="6.593" ry="6.275"/>
        </g>
        <path fill="#bdc273" d="M291.613 88.922c.473-.467-.662-.999-.859-1.559-.196-.56-.935-2.857-2.063-3.186-1.128-.328-3.512-1.381-4.365-1.167-.852.214-2.717 1.392-2.662 2.107.055.715-.158 1.788-.007 2.033.15.245 2.031 2.228 2.463 2.283.43.055 2.387.168 2.985.038.598-.132 1.979-.464 2.437-.5.459-.037 1.682.239 2.07-.049z"/>
        <path fill="#577810" d="m290.13 88.084-.59-1.685c-.202-.584.227-1.084-1.755-1.876-1.982-.792-4.341-1.407-5.334-.443-.993.965-.693 3.154.012 3.725.705.572 2.026.898 3.005.8.979-.1 2.653-.5 2.963-.5.311 0 1.34.203 1.7-.021z"/>
        <path fill="#c7e412" d="M288.486 86.777c-.089.303-.011 1.26.134 1.333.145.073 1.334.174 1.545.056.21-.118-.433-1.566-.674-1.574-.241-.008-.973.127-1.005.185z"/>
        <path fill="#90a350" d="M253.573 84.137s-2.011.679-2.55 1.37c-.54.69-1.073 1.905-1.252 2.036-.178.132-1.37.926-1.105 1.373.266.446 1.676.156 2.062.23.386.073 2.144.436 2.885.346.741-.09 2.529-.354 2.833-.568.305-.215 1.214-.617 1.985-1.173.77-.555 1.75-.86 2.326-1.276.576-.416 1.564-1.876.029-2.423-1.535-.546-6.249-.168-7.213.085z"/>
        <path fill="#536409" d="M250.856 87.91s2.737 1.17 5.298.231c2.562-.937 5.584-2.37 5.336-3.32-.248-.95-6.485-1.447-8.567.205-2.083 1.653-2.067 2.885-2.067 2.885z"/>
        <path fill="#cfe412" d="M252.72 87.04c-.293-.205-1.095-.599-1.369-.34-.273.258-.67 1.091-.573 1.245.098.154 1.57.441 1.73.462.161.021.275-1.198.213-1.367z"/>
        <path fill="#abb671" d="M256.065 92.585c.717.214 1.16-.324 1.584-.324.423 0 5.92.462 7.38.118 1.46-.344 3.604-1.171 4.13-1.592.527-.42 2.175-1.746 2.55-2.46.374-.716 1.461-2.409-.06-2.685-1.52-.277-11.69-.718-12.217-.3-.527.417-1.533 1.048-1.954 1.543-.42.495-1.272 1.681-1.37 2.78-.099 1.1.064 1.654.002 1.93-.063.276-.248.7-.045.99z"/>
        <path fill="#60710c" d="M257.488 90.98c.404.111 2.283-.05 2.875-.041.593.008 4.83.064 6.113-.08 1.282-.142 2.657-.647 2.972-.876.314-.229 1.345-.816 1.64-1.641.295-.826 1.004-2.144.447-2.308-.556-.164-10.556-.615-11.235-.246-.68.37-2.66 1.61-2.832 2.54-.172.931-.439 2.138.02 2.652z"/>
        <path fill="#cfe412" d="M259.031 89.301c-.225-.161-1.768.259-1.811.34-.044.08-.126 1.228.174 1.335.299.106 1.806.075 1.918-.071.112-.146-.056-1.473-.28-1.604z"/>
        <path fill="#adbb63" d="M282.644 93.029c.781-.304.092-.745.22-1.358.127-.613.94-1.682.944-2.106.004-.424-.302-3.947-2.119-4.633-1.817-.687-5.823-.018-7.518.386-1.694.404-3.078 1.097-3.36 1.517-.284.42-.246.73-.19 1.142.058.413-.137 2.092 1.067 2.959 1.204.866 4.447 1.394 5.196 1.37.75-.025 2.68.026 3.277.05.596.024 2.185.68 2.483.673z"/>
        <path fill="#58640b" d="M281.758 91.24s.748-1.183 1-2.516c.254-1.332-.918-3.136-2.122-3.308-1.204-.17-8.864.655-9.295 1.536-.43.881-.493 2.558.162 3.08.655.52 3.95 1.347 10.255 1.208z"/>
        <path fill="#bbe412" d="M280.686 89.437c-.43.09-.84 1.645-.777 1.764.063.119 1.625.169 1.832.127.206-.042.756-1.267.628-1.403-.128-.136-1.29-.395-1.683-.488z"/>
        <path fill="#afcb89" d="M253.453 72.542s1.1 1.335 1.949 2.027c.849.692 2.52 1.878 2.686 2.211.166.333 2.368 4.216.776 4.443-1.591.228-3.624-3.45-4.152-4.94-.527-1.489-.986-3.098-1.26-3.74z"/>
        <path fill="#b2cb94" d="M260.193 72.695c.504-.012 1.028.736 1.42.955.393.22 1.866.546 4.065 2.337 2.199 1.79 2.905 4.237 2.47 5.335-.435 1.099-2.862 2.53-5.913 1.736-2.045-.533-4.833-1.197-4.306-4.564.266-1.697 1.503-3.34 1.944-4.327.442-.987.046-1.313.32-1.472z"/>
        <path fill="#b8ce90" d="M273.083 72.498c.417-.05.807.722 1.242 1.05.436.328 2.83 1.511 3.477 3.001.647 1.49 1.502 7.427-3.912 8.165-3.914.533-7.293-3.122-5.95-6.316 1.341-3.195 2.902-3.935 3.74-4.48.839-.545 1.053-1.458 1.403-1.42z"/>
        <path fill="#acbe85" d="M279.474 83.8c-1.39-1-3.133-3.729.214-6.748s3.829-2.293 4.972-3.16c1.142-.867 1.52-1.531 1.624-1.737.127-.248-.42 1.768-.6 2.681-.173.873-.506 4.099-1.142 5.182-.637 1.083-3.677 4.782-5.068 3.782z"/>
        <path fill="#bfd7a0" d="M281.708 86.317c.338.329 4.9-.099 6.03-.726 1.129-.628 3.765-2.76 4.212-3.453.446-.693 1.33-2.655 1.33-2.655s-.52.48-.862.638c-.344.159-.774.038-1.596.242-.821.204-2.385-.007-3.76.215-1.374.221-7.793 2.753-5.354 5.739z"/>
        <path fill="#bee18b" d="M247.553 78.29c.592.606 1.676.945 2.43 1.267.755.322 1.647.997 3.777 1.155 2.13.157 4.402-.213 5.37.393.967.606 3.393 4.01.599 4.468-2.795.458-6.31-.278-7.505-1.181-1.196-.903-2.231-1.946-2.823-2.796-.592-.85-2.816-4.298-1.848-3.306z"/>
        <path fill="#bbbf59" d="M283.368 86.111c.147.069 2.425.511 3.04-.287.616-.798.836-2.622.483-2.705-.353-.082-2.195.458-2.601.835-.406.378-1.28 1.417-.922 2.157z"/>
        <path fill="#7ba030" d="M284.022 85.897c-.093-.149.68-.514.865-.58.185-.066.704-.252.524-.372-.18-.12-1.319.142-1.326-.036-.008-.177.91-.674 1.176-.639.265.035.383.317.527.211.145-.105.304-.413.488-.117.183.297-.039 1.01-.245 1.15-.206.141-.676.73-2.009.383z"/>
        <path fill="#bbbf59" d="M259.144 85.839s-.27-1.41-1.068-1.984c-.8-.574-2.262-1.397-2.871-1.09-.61.308.114 2.49.425 2.792.31.301 2.49.264 3.514.282z"/>
        <path fill="#7ba030" d="M257.98 84.75c.107-.25-.656-.867-.923-.907-.268-.04-.655.132-.862.072-.206-.06-.366-.41-.394-.099-.027.312.36 1.246.571 1.304.212.058.453.201.464.013.01-.187-.266-.842-.123-.852.143-.01.94.511 1.268.47z"/>
        <path fill="#c1e28c" d="M261.839 77.123c.496-.141 1.857 1.314 2.431 1.617.574.304 3.448.79 4.48 1.395 1.033.605 7.113 5.854-.286 7.05-7.4 1.196-9.258-.936-9.593-2.019-.335-1.082-.26-3.51.702-4.818.962-1.308 1.225-1.398 1.489-1.829.263-.43.442-1.41.777-1.396z"/>
        <path fill="#9eb268" d="M259.345 86.124s1.332.13 2.51.367c1.18.237 4.901.337 5.4.381.498.044 2.512.052 2.313.286-.198.234-1.36 1.175-4.984.786-3.625-.39-4.55-.931-5.24-1.82z"/>
        <path fill="#bddb99" d="M282.205 78.237c.57.057.51 1.022.654 1.56.143.54 1.315 2.412.868 4.619-.448 2.206-2.126 4.308-8.098 3.447-5.972-.86-4.155-5.739.212-7.628 1.551-.672 2.844-.458 4.085-.786 1.24-.328 1.796-1.314 2.279-1.212z"/>
        <path fill="#9eb268" d="M283.019 86.386c-.406-.104-2.58.464-3.984.456-1.404-.008-6.565-.296-6.251.043.313.34.555.859.915.934.36.076 4.653.518 6.792 0 2.14-.517 2.015-.887 2.528-1.433z"/>
        <path fill="#bbbf59" d="M276.263 88.031c.296-.105-1.767-6.128-4.234-6.064-2.467.064-4.582 4.934-4.315 5.927.129.478 2-.25 4.175-.23 2.174.02 3.392.716 4.374.367z"/>
        <path fill="#6fa717" d="M271.824 88.495c.444.017 1.817-.783 1.723-1.215-.093-.43-.718-2.997-1.483-2.95-.765.047-1.99 2.646-1.888 3.12.102.476 1.31.979 1.648 1.045z"/>
        <path fill="#2d7205" d="M271.724 86c-.167.032-.763.806-.637 1.08.126.275.678.576.866.553.189-.023.862-.417.88-.634.02-.217-.521.263-.693.195-.172-.069.01-1.616-.416-1.194z"/>
      </g>

      <g class="lotus">
        <animateTransform attributeName="transform" attributeType="XML" calcMode="spline" dur="9s" keySplines=".42,0,.58,1; .42,0,.58,1" keyTimes="0; 0.5; 1" repeatCount="indefinite" type="translate" values="0,0; 0,4; 0,0"/>

        <path fill="#b9cf8f" d="M397.323 107.205c11.716-.136 14.926-.807 15.327-1.339.4-.531.385-1.12.684-1.329.3-.208.407-.715.25-.745-.156-.03-.917.114-1.147.077-.23-.038-1.84.045-1.84.045s1.354-1.286 1.7-1.996c.346-.71.475-1.647.513-1.73.04-.085.348-.538.112-.713-.236-.174-.369.149-.729.165-.36.015-1.466.084-1.821.315-.355.231.379-.435.376-1.172-.003-.737-.212-.844-.166-1.199.045-.354.36-1.03.127-1.106-.233-.076-.678.288-1.032.328-.355.04-1.886-.208-2.468-.097-.582.112-2.246 1.226-2.246 1.226s-.794-1.495-1.119-1.827c-.324-.333-.736-.607-.864-.801-.13-.194-.411-.615-.624-.648-.213-.032-.597.596-.734.663-.138.067-.921.231-1.708.764-.788.533-1.81 1.378-1.81 1.378s-1.001-.692-1.973-1.13c-.973-.437-1.098-.508-1.367-.737-.27-.229-.769-.834-1.02-.747-.252.086-.51.74-.76.91-.248.171-.606.199-1.372.952-.766.754-1.124 1.596-1.124 1.596s-.634-.539-1.643-.532c-1.008.006-1.436.204-1.758.183-.323-.021-1.047-.263-1.223-.042-.175.222-.116.712-.132 1.009-.017.296-.054 1.6.079 1.894.133.294.476 1.296.476 1.296s-.624-.163-1.538.022c-.913.185-.853.368-1.203.533-.35.166-1.271-.033-1.286.242-.015.275.758 1.355.92 1.579.16.223 2.445 3.186 4.875 3.089 2.43-.097 8.351-.143 9.268-.376z"/>
        <path fill="#e3f8c0" d="M399.08 104.311c-2.954-.043-11.028-.398-11.48-1.871-.452-1.473-.55-2.05-.665-2.34-.116-.29-.54-.731-.4-.949.14-.217.556-.02.743.004.188.023.936-.034 1.496.152.56.186 1.27.517 1.27.517s.14-1.072.707-1.61c.568-.538 1.363-.895 1.445-1.04.083-.146.307-.486.449-.47.141.014.412.37.63.43.218.06 1.03.153 1.577.476.547.323.895 1.197.895 1.197s.43-.876.777-1.195c.346-.32 1.178-.515 1.29-.71.112-.197.432-.823.557-.81.124.013.481.538.74.687.258.149 1.069.438 1.481.839.412.401.78.863.78.863s.654-.855 1.426-1.083c.773-.228 1.606-.26 1.743-.336.136-.075.626-.336.768-.306.143.03.311.692.417.994.106.302.467.932.535 1.115.068.182.06.805.06.805s.68-.308.962-.4c.281-.09.906-.166 1.04-.213.135-.047.376-.25.5-.21.124.039-.03.862-.155 1.08-.125.22-2.777 5.065-9.589 4.384z"/>
        <g class="character" transform="matrix(.13474 .02 -.02 .13474 381.55 77.127)">
          <use xlink:href="#reuse-1"/>
          <use xlink:href="#reuse-2"/>
          <ellipse cx="259.519" cy="-77.64" fill="#a6c4ef" rx="3.92" ry="3.164" transform="rotate(68.081)"/>
          <ellipse cx="-144.98" cy="210.497" fill="#9da386" rx="3.92" ry="3.164" transform="rotate(-67.913)"/>
          <ellipse cx="126.966" cy="199.474" fill="#9da386" class="left" rx="6.593" ry="6.275"/>
          <g class="head">
            <use xlink:href="#reuse-3" class="head-shadow"/>
            <path fill="#408a78" d="M124.489 195.002c3.7-3.061-5.278-6.671 16.918-15.401 7.05-2.773 28.083-8.752 32.433-4.237 4.35 4.516 1.833 7.172 4.839 7.667 3.006.495 8.406-6.512 8.27-12.457-.135-5.945-9.62-39.298-46.859-31.889-36.621 7.286-39.39 58.847-15.601 56.317z" class="head-base"/>
            <use xlink:href="#reuse-4" class="head-polka"/>
          </g>
          <g fill="#fff" class="eyes">
            <use xlink:href="#reuse-5" class="eyes-base"/>
          </g>
          <ellipse cx="181.024" cy="185.97" fill="#dae18f" class="right" rx="6.593" ry="6.275"/>
        </g>
        <path fill="#bdc273" d="M412.455 110.62c.32-.316-.449-.676-.582-1.056-.133-.38-.634-1.936-1.398-2.159-.764-.222-2.38-.936-2.958-.791-.578.145-1.842.943-1.805 1.428.038.484-.107 1.212-.004 1.378.102.166 1.376 1.51 1.668 1.547.293.038 1.619.114 2.024.026.405-.09 1.34-.315 1.652-.34.31-.024 1.14.163 1.403-.032z"/>
        <path fill="#577810" d="m411.45 110.053-.4-1.142c-.137-.396.154-.735-1.19-1.271-1.342-.537-2.942-.954-3.615-.3-.673.653-.47 2.136.009 2.524.478.387 1.373.608 2.037.541.663-.066 1.797-.338 2.008-.338.21 0 .908.138 1.151-.014z"/>
        <path fill="#c7e412" d="M410.336 109.167c-.06.205-.008.854.09.903.099.05.905.118 1.048.038.143-.08-.294-1.06-.457-1.066-.163-.006-.66.085-.681.125z"/>
        <path fill="#90a350" d="M386.674 107.378s-1.363.46-1.73.928c-.365.468-.726 1.291-.847 1.38-.121.09-.93.628-.75.93.18.303 1.137.107 1.398.156.262.05 1.453.296 1.956.235.502-.061 1.714-.24 1.92-.385.206-.146.823-.418 1.345-.795.522-.376 1.186-.583 1.576-.864.391-.282 1.06-1.272.02-1.643-1.04-.37-4.235-.114-4.888.058z"/>
        <path fill="#536409" d="M384.832 109.935s1.855.792 3.591.157c1.736-.636 3.784-1.607 3.616-2.251-.168-.643-4.395-.98-5.806.14-1.411 1.12-1.401 1.954-1.401 1.954z"/>
        <path fill="#cfe412" d="M386.096 109.346c-.199-.14-.742-.407-.928-.232-.186.175-.454.74-.388.845.066.104 1.063.298 1.172.313.109.014.186-.812.144-.926z"/>
        <path fill="#abb671" d="M388.362 113.103c.487.145.787-.22 1.074-.22.287 0 4.013.314 5.002.08.99-.232 2.442-.793 2.8-1.078.356-.285 1.473-1.183 1.727-1.668.254-.485.99-1.632-.04-1.82-1.03-.187-7.923-.486-8.28-.203-.358.283-1.04.711-1.325 1.046-.285.336-.862 1.14-.929 1.885-.066.745.044 1.12.002 1.307-.043.187-.168.474-.03.671z"/>
        <path fill="#60710c" d="M389.327 112.016c.274.075 1.547-.034 1.949-.028.401.005 3.273.043 4.142-.054.87-.097 1.802-.439 2.015-.594.212-.155.911-.553 1.111-1.113.2-.56.68-1.452.303-1.564-.377-.111-7.154-.416-7.615-.166-.46.25-1.802 1.09-1.918 1.721-.117.631-.298 1.449.013 1.798z"/>
        <path fill="#cfe412" d="M390.373 110.878c-.153-.11-1.198.175-1.228.23-.03.055-.085.832.118.905.203.072 1.224.05 1.3-.048.076-.1-.038-.999-.19-1.087z"/>
        <path fill="#adbb63" d="M406.376 113.404c.53-.206.063-.504.15-.92.086-.416.637-1.14.64-1.427.002-.288-.205-2.675-1.437-3.14-1.231-.466-3.947-.012-5.095.261-1.148.274-2.086.744-2.278 1.028-.192.285-.166.495-.128.774.04.28-.093 1.418.723 2.005.816.588 3.014.946 3.522.93.508-.018 1.816.017 2.22.033.405.016 1.481.461 1.683.456z"/>
        <path fill="#5d7018" d="M405.776 112.192s.507-.802.678-1.705c.172-.903-.623-2.126-1.439-2.242-.816-.116-6.007.443-6.299 1.04-.292.598-.335 1.734.11 2.088.444.353 2.676.913 6.95.819z"/>
        <path fill="#bbe412" d="M405.05 110.97c-.293.06-.57 1.114-.527 1.195.043.081 1.101.115 1.241.086.14-.028.513-.858.426-.95-.087-.093-.874-.268-1.14-.33z"/>
        <path fill="#afcb89" d="M386.592 99.52s.746.904 1.321 1.373 1.708 1.273 1.82 1.499c.113.225 1.605 2.857.527 3.011-1.079.154-2.457-2.338-2.814-3.348-.358-1.01-.668-2.1-.854-2.536z"/>
        <path fill="#b2cb94" d="M391.16 99.623c.342-.008.697.499.963.647.266.15 1.265.37 2.755 1.584 1.49 1.213 1.969 2.872 1.674 3.616-.295.744-1.94 1.715-4.008 1.176-1.386-.361-3.275-.81-2.918-3.092.18-1.151 1.019-2.264 1.318-2.933.299-.67.03-.89.217-.998z"/>
        <path fill="#b8ce90" d="M399.896 99.49c.283-.034.548.488.843.711.295.223 1.918 1.024 2.356 2.034.438 1.01 1.018 5.034-2.651 5.534-2.653.361-4.944-2.116-4.034-4.281.91-2.165 1.967-2.667 2.536-3.036.568-.37.713-.988.95-.963z"/>
        <path fill="#acbe85" d="M404.228 107.15c-.943-.679-2.123-2.528.145-4.574 2.268-2.046 2.595-1.554 3.37-2.142.774-.588 1.03-1.038 1.1-1.177.086-.168-.285 1.198-.407 1.817-.117.592-.342 2.778-.773 3.512-.432.734-2.492 3.241-3.435 2.563z"/>
        <path fill="#bfd7a0" d="M405.742 108.855c.23.223 3.321-.067 4.087-.492.765-.425 2.552-1.87 2.854-2.34.303-.47.902-1.8.902-1.8s-.352.325-.584.433c-.233.108-.525.026-1.082.164s-1.617-.005-2.548.146c-.931.15-5.282 1.865-3.629 3.889z"/>
        <path fill="#bee18b" d="M382.593 103.415c.402.411 1.136.64 1.648.859.511.218 1.116.676 2.56.782 1.443.107 2.983-.144 3.639.267.655.41 2.3 2.718.406 3.028-1.895.31-4.276-.189-5.087-.8-.81-.612-1.512-1.32-1.913-1.895-.401-.576-1.909-2.914-1.253-2.241z"/>
        <path fill="#bbbf59" d="M406.867 108.716c.1.046 1.644.346 2.061-.195.417-.54.566-1.777.327-1.833-.24-.056-1.488.31-1.763.566-.275.256-.868.96-.625 1.462z"/>
        <path fill="#7ba030" d="M407.31 108.57c-.063-.1.461-.348.587-.392.125-.045.477-.171.355-.253-.122-.081-.894.096-.899-.024-.005-.12.617-.457.797-.433.18.023.26.215.357.143.099-.071.207-.28.33-.08.125.202-.025.685-.165.78-.14.096-.458.494-1.362.26z"/>
        <path fill="#bbbf59" d="M390.45 108.53s-.183-.954-.725-1.343c-.541-.39-1.532-.947-1.945-.74-.414.21.077 1.689.287 1.893.211.204 1.688.18 2.382.19z"/>
        <path fill="#7ba030" d="M389.66 107.793c.073-.17-.444-.587-.625-.615-.182-.027-.444.09-.584.05-.14-.041-.249-.279-.267-.068-.019.211.244.845.387.884.143.04.307.136.314.01.007-.128-.18-.572-.083-.578.097-.007.637.346.859.317z"/>
        <path fill="#c1e28c" d="M392.276 102.624c.336-.096 1.259.89 1.648 1.096.388.206 2.336.536 3.036.945.7.41 4.82 3.968-.194 4.779-5.015.81-6.274-.635-6.502-1.369-.227-.733-.176-2.379.476-3.265.652-.887.83-.948 1.01-1.24.177-.291.299-.955.526-.946z"/>
        <path fill="#9eb268" d="M390.585 108.724s.903.089 1.702.25c.8.16 3.321.228 3.66.257.337.03 1.702.036 1.567.194-.134.159-.921.797-3.378.533-2.456-.264-3.084-.631-3.55-1.234z"/>
        <path fill="#bddb99" d="M406.079 103.379c.386.038.346.693.443 1.058.097.365.891 1.634.588 3.13-.303 1.495-1.44 2.92-5.488 2.336-4.048-.583-2.816-3.89.144-5.17 1.051-.455 1.928-.31 2.768-.532.84-.223 1.217-.891 1.545-.822z"/>
        <path fill="#9eb268" d="M406.63 108.902c-.275-.07-1.748.315-2.7.309-.951-.006-4.449-.2-4.236.03.212.23.376.581.62.632.244.052 3.154.352 4.604 0 1.45-.35 1.365-.6 1.712-.971z"/>
        <path fill="#bbbf59" d="M402.052 110.017c.2-.071-1.198-4.154-2.87-4.11-1.672.043-3.105 3.344-2.924 4.017.087.324 1.355-.17 2.829-.156 1.473.013 2.3.485 2.965.25z"/>
        <path fill="#6fa717" d="M399.044 110.331c.3.012 1.23-.53 1.167-.823-.063-.292-.487-2.032-1.005-2-.519.032-1.348 1.794-1.28 2.116.07.322.889.662 1.118.707z"/>
        <path fill="#2d7205" d="M398.976 108.64c-.114.022-.518.546-.432.733.085.186.459.39.587.374.127-.015.584-.283.596-.43.013-.147-.353.179-.47.132-.116-.046.007-1.095-.281-.809z"/>
      </g>

      <g class="lotus">
        <animateTransform attributeName="transform" attributeType="XML" calcMode="spline" dur="12s" keySplines=".42,0,.58,1; .42,0,.58,1" keyTimes="0; 0.5; 1" repeatCount="indefinite" type="translate" values="0,0; 0,3; 0,0"/>

        <path fill="#b9cf8f" d="M112.894 121.011c9.456-.11 12.047-.652 12.37-1.08.323-.43.311-.905.553-1.073.242-.168.328-.578.202-.602-.126-.024-.74.093-.926.062-.185-.03-1.485.037-1.485.037s1.092-1.038 1.372-1.611c.279-.573.383-1.33.414-1.397.032-.068.281-.434.09-.575-.19-.14-.297.12-.588.133-.29.013-1.183.068-1.47.255-.286.186.306-.351.304-.947-.002-.595-.171-.68-.134-.967.036-.286.29-.832.102-.893-.188-.061-.547.233-.833.265-.286.033-1.522-.168-1.992-.078-.47.09-1.813.99-1.813.99s-.64-1.207-.902-1.475c-.262-.269-.594-.49-.698-.647-.104-.157-.332-.496-.503-.522-.172-.027-.482.48-.593.534-.111.054-.743.187-1.379.617-.635.43-1.46 1.112-1.46 1.112s-.808-.559-1.593-.912c-.785-.353-.886-.41-1.103-.595-.217-.184-.62-.673-.823-.603-.203.07-.412.598-.613.735-.2.138-.49.16-1.107.768-.619.609-.908 1.289-.908 1.289s-.511-.435-1.326-.43c-.814.005-1.159.164-1.419.147-.26-.017-.845-.212-.987-.033-.141.178-.093.574-.107.814-.013.239-.043 1.291.064 1.528.107.238.385 1.047.385 1.047s-.504-.132-1.241.017c-.738.15-.69.297-.972.43-.282.135-1.026-.026-1.038.196-.011.221.613 1.093.742 1.274.13.18 1.974 2.571 3.935 2.493 1.961-.078 6.74-.115 7.48-.303z"/>
        <path fill="#e3f8c0" d="M114.312 118.675c-2.383-.035-8.9-.321-9.265-1.51-.365-1.188-.443-1.654-.536-1.888-.094-.235-.436-.59-.323-.766.113-.176.448-.016.6.003.15.019.754-.028 1.207.122.452.15 1.025.418 1.025.418s.112-.865.57-1.3c.459-.434 1.1-.722 1.167-.84.066-.117.248-.391.362-.379.114.012.333.299.508.348.176.049.831.123 1.273.384.442.26.722.966.722.966s.348-.707.628-.965c.279-.258.95-.415 1.041-.573.09-.158.349-.664.45-.653.1.01.388.434.597.554.208.12.862.353 1.195.677.333.324.63.697.63.697s.527-.69 1.15-.874c.624-.184 1.297-.21 1.407-.271.11-.06.505-.272.62-.247.116.025.251.558.337.802.085.243.377.752.431.9.055.146.049.65.049.65s.549-.25.776-.323c.227-.074.732-.134.84-.172.109-.038.303-.202.403-.17.1.032-.024.696-.125.873-.1.176-2.24 4.087-7.739 3.537z"/>
        <g class="character" transform="matrix(-.10875 .01614 .01614 .10875 128.939 96.735)">
          <use xlink:href="#reuse-1"/>
          <use xlink:href="#reuse-2"/>
          <ellipse cx="259.519" cy="-77.64" fill="#a6c4ef" rx="3.92" ry="3.164" transform="rotate(68.081)"/>
          <ellipse cx="-144.98" cy="210.497" fill="#9da386" rx="3.92" ry="3.164" transform="rotate(-67.913)"/>
          <ellipse cx="126.966" cy="199.474" fill="#9da386" class="left" rx="6.593" ry="6.275"/>
          <g class="head">
            <use xlink:href="#reuse-3" class="head-shadow"/>
            <path fill="#468e23" d="M124.489 195.002c3.7-3.061-5.278-6.671 16.918-15.401 7.05-2.773 28.083-8.752 32.433-4.237 4.35 4.516 1.833 7.172 4.839 7.667 3.006.495 8.406-6.512 8.27-12.457-.135-5.945-9.62-39.298-46.859-31.889-36.621 7.286-39.39 58.847-15.601 56.317z" class="head-base"/>
            <use xlink:href="#reuse-4" class="head-polka"/>
          </g>
          <g fill="#fff" class="eyes">
            <use xlink:href="#reuse-5" class="eyes-base"/>
          </g>
          <ellipse cx="181.024" cy="185.97" fill="#dae18f" class="right" rx="6.593" ry="6.275"/>
        </g>
        <path fill="#bdc273" d="M125.108 123.768c.258-.256-.363-.547-.47-.853-.107-.306-.512-1.563-1.129-1.743-.617-.179-1.92-.755-2.387-.638-.467.117-1.487.761-1.456 1.152.03.391-.087.979-.004 1.112.082.134 1.11 1.22 1.347 1.25.235.03 1.306.091 1.633.02.327-.072 1.082-.254 1.333-.274.25-.02.92.131 1.132-.026z"/>
        <path fill="#577810" d="m124.296 123.31-.322-.922c-.111-.32.124-.593-.96-1.026-1.084-.434-2.375-.77-2.918-.243-.543.528-.38 1.725.006 2.038.386.313 1.109.49 1.644.437.536-.054 1.451-.273 1.621-.273.17 0 .733.111.93-.012z"/>
        <path fill="#c7e412" d="M123.397 122.594c-.048.166-.006.69.073.73.08.04.73.095.845.03.116-.064-.236-.856-.368-.86-.132-.005-.532.068-.55.1z"/>
        <path fill="#90a350" d="M104.3 121.15s-1.1.372-1.396.75c-.295.377-.586 1.042-.684 1.114-.098.071-.75.506-.605.75.146.244.917.086 1.128.126.211.04 1.173.239 1.578.19.406-.05 1.384-.194 1.55-.311.167-.118.664-.338 1.086-.642.421-.304.957-.47 1.272-.698.315-.227.856-1.026.016-1.325-.84-.3-3.418-.092-3.945.046z"/>
        <path fill="#536409" d="M102.813 123.215s1.497.639 2.898.126c1.402-.513 3.055-1.297 2.92-1.817-.136-.519-3.548-.791-4.687.113-1.14.904-1.13 1.578-1.13 1.578z"/>
        <path fill="#cfe412" d="M103.833 122.739c-.16-.113-.599-.328-.749-.187-.15.141-.366.597-.313.681.053.085.858.242.946.253.088.012.15-.655.116-.747z"/>
        <path fill="#abb671" d="M105.663 125.771c.392.117.634-.177.866-.177.232 0 3.239.253 4.037.065.799-.188 1.971-.64 2.26-.871.288-.23 1.189-.955 1.394-1.346.205-.391.8-1.317-.033-1.469-.831-.15-6.394-.392-6.683-.164-.288.228-.838.574-1.068.845-.23.27-.696.92-.75 1.52-.054.602.035.905.001 1.056-.034.15-.136.382-.024.541z"/>
        <path fill="#60710c" d="M106.441 124.894c.221.06 1.249-.028 1.573-.023.324.004 2.642.035 3.343-.043.702-.078 1.454-.355 1.626-.48.172-.125.736-.446.897-.898.161-.451.55-1.172.245-1.262-.305-.09-5.774-.336-6.146-.134-.372.202-1.454.88-1.549 1.389-.094.51-.24 1.17.011 1.45z"/>
        <path fill="#cfe412" d="M107.285 123.975c-.123-.088-.967.142-.99.186-.024.044-.07.672.094.73.164.058.989.041 1.05-.039.061-.08-.03-.806-.154-.877z"/>
        <path fill="#adbb63" d="M120.202 126.014c.427-.166.05-.407.12-.743.07-.335.514-.92.516-1.151.002-.232-.165-2.16-1.159-2.535-.994-.376-3.185-.01-4.112.211s-1.684.6-1.839.83c-.154.23-.134.4-.103.625.032.226-.075 1.144.584 1.618.658.474 2.432.763 2.842.75.41-.014 1.466.014 1.792.027.326.013 1.195.372 1.359.368z"/>
        <path fill="#55640b" d="M119.717 125.036s.409-.647.547-1.376c.139-.73-.502-1.716-1.16-1.81-.66-.093-4.85.358-5.085.84-.236.482-.27 1.4.088 1.685.359.285 2.16.737 5.61.66z"/>
        <path fill="#bbe412" d="M119.13 124.05c-.235.048-.459.9-.424.964.034.065.889.093 1.001.07.113-.023.414-.693.344-.768-.07-.074-.706-.216-.92-.266z"/>
        <path fill="#afcb89" d="M104.234 114.808s.602.73 1.066 1.109c.464.378 1.378 1.027 1.47 1.21.09.181 1.294 2.305.424 2.43-.87.124-1.983-1.888-2.271-2.702-.289-.815-.54-1.695-.69-2.047z"/>
        <path fill="#b2cb94" d="M107.92 114.891c.277-.006.563.403.778.523.215.12 1.02.298 2.223 1.278 1.203.98 1.59 2.318 1.351 2.919-.238.6-1.566 1.384-3.234.949-1.119-.292-2.644-.655-2.355-2.496.145-.929.821-1.827 1.063-2.367.241-.54.025-.719.175-.806z"/>
        <path fill="#b8ce90" d="M114.972 114.784c.228-.027.441.394.68.574.237.18 1.547.827 1.901 1.642.354.815.822 4.062-2.14 4.466-2.14.292-3.99-1.708-3.255-3.455.734-1.748 1.588-2.152 2.046-2.45.459-.299.576-.798.768-.777z"/>
        <path fill="#acbe85" d="M118.467 120.966c-.76-.548-1.713-2.04.118-3.691 1.83-1.652 2.094-1.255 2.72-1.729.624-.474.83-.837.888-.95.069-.135-.23.967-.329 1.467-.094.477-.276 2.242-.624 2.834-.348.593-2.012 2.616-2.773 2.069z"/>
        <path fill="#bfd7a0" d="M119.69 122.343c.184.18 2.68-.054 3.298-.398.618-.343 2.06-1.51 2.304-1.888.244-.38.727-1.453.727-1.453s-.284.263-.471.35c-.188.086-.423.02-.873.132-.45.111-1.305-.004-2.057.117-.751.122-4.262 1.506-2.928 3.14z"/>
        <path fill="#bee18b" d="M101.006 117.952c.325.332.917.517 1.33.693.413.176.9.546 2.066.632 1.165.086 2.408-.117 2.937.215.53.331 1.856 2.193.328 2.444-1.53.25-3.451-.152-4.106-.646-.654-.494-1.22-1.065-1.544-1.53-.324-.464-1.54-2.35-1.01-1.808z"/>
        <path fill="#bbbf59" d="M120.598 122.23c.08.038 1.326.28 1.663-.157.337-.437.457-1.434.264-1.48-.193-.045-1.201.251-1.423.457-.222.207-.7.775-.504 1.18z"/>
        <path fill="#7ba030" d="M120.955 122.113c-.05-.081.372-.281.474-.317.1-.036.384-.138.286-.204-.098-.066-.721.078-.725-.02-.004-.096.498-.368.643-.349.145.02.21.173.288.116.08-.058.167-.227.267-.064.1.162-.021.552-.134.629-.112.077-.37.398-1.099.209z"/>
        <path fill="#bbbf59" d="M107.347 122.081s-.148-.77-.584-1.085c-.437-.314-1.237-.764-1.57-.596-.334.168.061 1.362.232 1.527.17.165 1.362.145 1.922.154z"/>
        <path fill="#7ba030" d="M106.71 121.486c.059-.137-.358-.474-.505-.497-.146-.022-.358.072-.471.04-.113-.033-.2-.225-.216-.054-.015.17.197.682.313.713.115.032.248.11.253.007.006-.102-.145-.46-.067-.466.079-.005.515.28.693.257z"/>
        <path fill="#c1e28c" d="M108.82 117.314c.272-.077 1.017.718 1.33.884.315.167 1.887.432 2.452.763s3.89 3.203-.157 3.857c-4.048.654-5.064-.512-5.247-1.105-.184-.592-.143-1.92.384-2.635.526-.716.67-.765.814-1 .144-.236.242-.772.425-.764z"/>
        <path fill="#9eb268" d="M107.457 122.237s.728.072 1.373.201c.645.13 2.68.184 2.954.208.272.024 1.374.03 1.265.157-.109.128-.744.643-2.726.43-1.983-.213-2.49-.51-2.866-.996z"/>
        <path fill="#bddb99" d="M119.961 117.923c.312.03.28.559.358.854.078.294.72 1.318.475 2.526-.245 1.207-1.163 2.357-4.43 1.886-3.267-.471-2.272-3.14.116-4.173.849-.368 1.556-.25 2.235-.43.678-.18.982-.719 1.246-.663z"/>
        <path fill="#9eb268" d="M120.407 122.38c-.222-.056-1.412.255-2.18.25-.768-.005-3.59-.162-3.42.023.172.186.304.47.502.512.197.04 2.545.283 3.715 0s1.102-.486 1.383-.785z"/>
        <path fill="#bbbf59" d="M116.711 123.28c.162-.057-.966-3.352-2.316-3.317-1.35.035-2.506 2.7-2.36 3.242.07.262 1.094-.137 2.283-.126 1.19.011 1.856.392 2.393.202z"/>
        <path fill="#6fa717" d="M114.283 123.534c.243.01.994-.428.943-.664-.052-.236-.393-1.64-.812-1.614-.418.026-1.088 1.447-1.032 1.707.055.26.716.535.901.571z"/>
        <path fill="#2d7205" d="M114.228 122.17c-.091.017-.417.44-.348.59.069.15.37.315.474.303.103-.013.471-.229.481-.347.01-.119-.285.144-.38.106-.093-.037.006-.883-.227-.653z"/>
      </g>

      <use href="#glow">
        <animateMotion dur="11s" repeatCount="indefinite">
          <mpath href="#p1" />
        </animateMotion>
      </use>
      <use href="#glow">
        <animateMotion dur="12s" repeatCount="indefinite">
          <mpath href="#p1" />
        </animateMotion>
      </use>
      <use href="#glow">
        <animateMotion dur="13s" repeatCount="indefinite">
          <mpath href="#p1" />
        </animateMotion>
      </use>
      <use href="#glow">
        <animateMotion dur="14s" repeatCount="indefinite">
          <mpath href="#p1" />
        </animateMotion>
      </use>
      <use href="#glow">
        <animateMotion dur="9s" repeatCount="indefinite">
          <mpath href="#p1" />
        </animateMotion>
      </use>
      <use href="#glow">
        <animateMotion dur="10s" repeatCount="indefinite">
          <mpath href="#p1" />
        </animateMotion>
      </use>

      <use href="#glow">
        <animateMotion dur="11s" repeatCount="indefinite">
          <mpath href="#p2" />
        </animateMotion>
      </use>
      <use href="#glow">
        <animateMotion dur="12s" repeatCount="indefinite">
          <mpath href="#p2" />
        </animateMotion>
      </use>
      <use href="#glow">
        <animateMotion dur="13s" repeatCount="indefinite">
          <mpath href="#p2" />
        </animateMotion>
      </use>
      <use href="#glow">
        <animateMotion dur="14s" repeatCount="indefinite">
          <mpath href="#p2" />
        </animateMotion>
      </use>
      <use href="#glow">
        <animateMotion dur="9s" repeatCount="indefinite">
          <mpath href="#p2" />
        </animateMotion>
      </use>
      <use href="#glow">
        <animateMotion dur="10s" repeatCount="indefinite">
          <mpath href="#p2" />
        </animateMotion>
      </use>

      <use href="#glow">
        <animateMotion dur="11s" repeatCount="indefinite">
          <mpath href="#p3" />
        </animateMotion>
      </use>
      <use href="#glow">
        <animateMotion dur="12s" repeatCount="indefinite">
          <mpath href="#p3" />
        </animateMotion>
      </use>
      <use href="#glow">
        <animateMotion dur="13s" repeatCount="indefinite">
          <mpath href="#p3" />
        </animateMotion>
      </use>
      <use href="#glow">
        <animateMotion dur="14s" repeatCount="indefinite">
          <mpath href="#p3" />
        </animateMotion>
      </use>
      <use href="#glow">
        <animateMotion dur="9s" repeatCount="indefinite">
          <mpath href="#p3" />
        </animateMotion>
      </use>
      <use href="#glow">
        <animateMotion dur="10s" repeatCount="indefinite">
          <mpath href="#p3" />
        </animateMotion>
      </use>
    </symbol>

    <symbol id="layer-03">
      <path fill="#9ad877" d="M45.437 152.061c10.646 6.894 36.943 2.434 35.98-6.304-.964-8.738-33.744-8.585-37.978 1.152-.252.58 15.448 1.692 15.448 1.692z"/>
      <path fill="#358b3b" d="M71.73 145.117c.315.53-3.177 1.455-3.403 1.975-.225.52-1.426 1.503-2.49.898-1.064-.604-2.112-1.043-2.243-1.9-.131-.856-2.893-2.898-2.581-3.025.773-.314 2.697 2.336 3.124 2.453.427.117 1.885.097 2.597.485.711.387 4.592-1.185 4.996-.886z"/>
      <ellipse cx="385.096" cy="155.339" fill="#9ad877" rx="13.067" ry="6.577"/>
      <path fill="#358b3b" d="M384.4 150.852c-.463.106.38 3.518-.144 3.591-.523.074-7.636.8-7.425 1.287.212.486 6.963-.694 7.184-.127.22.567 1.062 4.454 1.541 4.454.478 0-.128-4.298.203-4.298.33 0 4.935 2.602 5.482 2.328.548-.274-3.882-2.799-3.748-3.265.133-.467 4.653-2.715 4.333-3.24-.32-.525-4.94 2.625-5.353 2.25-.412-.376-1.265-3.172-2.073-2.98z"/>
      <ellipse cx="373.368" cy="181.887" fill="#2f7967" rx="4.966" ry="1.315" transform="rotate(-3.87)"/>
      <path fill="#408a78" d="M380.363 156.97c1.729.584 3.037.39 4.813.337 1.777-.053 2.53-.447 3.495-.797.965-.351 1.263-.71 1.363-1.514.1-.803-.51-5.487-5.676-5.233-5.08.25-5.723 6.62-3.995 7.206z" class="head-base"/>
      <use xlink:href="#reuse-6"/>
      <ellipse cx="394.306" cy="155.136" fill="#36c1b4" rx="1.14" ry=".898"/>
      <ellipse cx="394.403" cy="154.944" fill="#6bfff2" rx=".599" ry=".472"/>
      <ellipse cx="388.561" cy="159.694" fill="#36c1b4" rx=".645" ry=".508"/>
      <ellipse cx="388.405" cy="159.681" fill="#6bfff2" rx=".339" ry=".267"/>
      <path fill="#9ad877" d="M258.027 120.105c3.787-5.594-9.512-11.391-18.409-7.857-8.897 3.534 1.982 12.778 13.631 10.346.693-.144-3.267-5.015-3.267-5.015z"/>
      <path fill="#358b3b" d="M247.313 115.07c-.15.516-.33.391-.71.901-.38.51-1.432 1.476-1.565.89-.132-.588-.349-1.012.059-1.85.407-.837-.152-.804.052-.93.505-.31.372.256.493.368.122.113.764.087.862.463.098.376 1.623-.808 1.636-.518z"/>
      <g transform="matrix(-.66415 0 0 .66415 500.73 12.555)">
        <ellipse cx="373.368" cy="181.887" fill="#79502f" rx="4.966" ry="1.315" transform="rotate(-3.87)"/>
        <path fill="#8a6940" d="M380.363 156.97c1.729.584 3.037.39 4.813.337 1.777-.053 2.53-.447 3.495-.797.965-.351 1.263-.71 1.363-1.514.1-.803-.51-5.487-5.676-5.233-5.08.25-5.723 6.62-3.995 7.206z" class="head-base"/>
        <use xlink:href="#reuse-6"/>
      </g>
      <g transform="rotate(6.263 -477.359 1394.704) scale(.27989)">
        <ellipse cx="373.368" cy="181.887" fill="#73792f" rx="4.966" ry="1.315" transform="rotate(-3.87)"/>
        <path fill="#8a8940" d="M380.363 156.97c1.729.584 3.037.39 4.813.337 1.777-.053 2.53-.447 3.495-.797.965-.351 1.263-.71 1.363-1.514.1-.803-.51-5.487-5.676-5.233-5.08.25-5.723 6.62-3.995 7.206z" class="head-base"/>
        <use xlink:href="#reuse-6"/>
      </g>
    </symbol>
  </defs>

  <g class="jmiguelrivas-github-io" clip-path="url(#cut-off)">
    <rect width="531.495" height="208.12" x="-10.966" y="-14.724" fill="#3c553f" class="jmiguelrivas-github-io" rx="0" ry="0"/>
    <rect width="573.152" height="112.425" x="-38.174" y="78.206" fill="#158786"/>

    <use href="#layer-02" transform="scale(1, -1) translate(0, -200)" opacity="0.3" />
    <use href="#layer-02" />

    <use href="#layer-01" transform="scale(1, -1) translate(0, -260)" opacity="0.3" />
    <use href="#layer-01" />

    <use href="#layer-03" />
  </g>
</svg>