<svg xmlns="http://www.w3.org/2000/svg" xml:space="preserve" viewBox="0 0 1200 1500">
  <metadata>
    Created by Miguel Rivas — Learn more at jmiguelrivas.github.io
  </metadata>
  <style>
    <![CDATA[
  @import url('https://fonts.googleapis.com/css2?family=Montserrat:wght@300;400;700&display=swap');

  text {
    font-family: 'Montserrat', sans-serif;
  }

  .palumba:hover .eyes {
    transform: translate(35px, 0);
  }
  .palumba:hover .peak {
    transform: translate(1256px, 180.693px) scale(-1, 1);
  }
  .palumba .eyes,
  .palumba .peak {
    transition: transform 300ms ease;
  }

  .tree {
    transform-origin: 50% 100%;
    transform-box: fill-box;
    transition: transform 200ms ease;
  }

  .tree:hover {
    transform: rotate(5deg);
  }
]]>
  </style>

  <defs>
    <pattern id="buildings-a" width="320" height="160" patternUnits="userSpaceOnUse">
      <g fill="#42425f">
        <rect width="80" height="120" rx="10" />
        <rect width="80" height="80" x="160" y="40" rx="10" />
      </g>
    </pattern>

    <pattern id="buildings-b" width="320" height="200" patternUnits="userSpaceOnUse">
      <g fill="#4d4d61">
        <rect width="80" height="80" x="60" y="40" rx="10" />
        <rect width="80" height="120" x="220" rx="10" />
      </g>
    </pattern>

    <pattern id="stars" class="jmiguelrivas-github-io" width="125" height="125" patternUnits="userSpaceOnUse">
      <g fill="#8488ab" transform="scale(.5)">
        <rect width="3" height="3" x="7" y="11" />
        <rect width="3" height="3" x="16" y="156" />
        <rect width="3" height="3" x="24" y="58" />
        <rect width="3" height="3" x="26" y="283" />
        <rect width="3" height="3" x="28" y="219" />
        <rect width="3" height="3" x="36" y="461" />
        <rect width="3" height="3" x="37" y="272" />
        <rect width="3" height="3" x="38" y="391" />
        <rect width="3" height="3" x="39" y="473" />
        <rect width="3" height="3" x="41" y="96" />
        <rect width="3" height="3" x="56" y="329" />
        <rect width="3" height="3" x="59" y="36" />
        <rect width="3" height="3" x="64" y="191" />
        <rect width="3" height="3" x="69" y="112" />
        <rect width="3" height="3" x="77" y="115" />
        <rect width="3" height="3" x="79" y="204" />
        <rect width="3" height="3" x="83" y="272" />
        <rect width="3" height="3" x="87" y="448" />
        <rect width="3" height="3" x="94" y="231" />
        <rect width="3" height="3" x="94" y="356" />
        <rect width="3" height="3" x="103" y="23" />
        <rect width="3" height="3" x="108" y="149" />
        <rect width="3" height="3" x="109" y="411" />
        <rect width="3" height="3" x="109" y="55" />
        <rect width="3" height="3" x="112" y="352" />
        <rect width="3" height="3" x="113" y="99" />
        <rect width="3" height="3" x="116" y="320" />
        <rect width="3" height="3" x="125" y="247" />
        <rect width="3" height="3" x="129" y="460" />
        <rect width="3" height="3" x="135" y="476" />
        <rect width="3" height="3" x="142" y="199" />
        <rect width="3" height="3" x="149" y="141" />
        <rect width="3" height="3" x="159" y="331" />
        <rect width="3" height="3" x="162" y="361" />
        <rect width="3" height="3" x="164" y="75" />
        <rect width="3" height="3" x="165" y="27" />
        <rect width="3" height="3" x="167" y="290" />
        <rect width="3" height="3" x="168" y="427" />
        <rect width="3" height="3" x="179" y="70" />
        <rect width="3" height="3" x="183" y="248" />
        <rect width="3" height="3" x="186" y="207" />
        <rect width="3" height="3" x="199" y="319" />
        <rect width="3" height="3" x="199" y="444" />
        <rect width="3" height="3" x="202" y="105" />
        <rect width="3" height="3" x="210" y="406" />
        <rect width="3" height="3" x="217" y="195" />
        <rect width="3" height="3" x="219" y="370" />
        <rect width="3" height="3" x="224" y="253" />
        <rect width="3" height="3" x="224" y="32" />
        <rect width="3" height="3" x="230" y="144" />
        <rect width="3" height="3" x="232" y="479" />
        <rect width="3" height="3" x="240" y="430" />
        <rect width="3" height="3" x="246" y="306" />
        <rect width="3" height="3" x="249" y="111" />
        <rect width="3" height="3" x="251" y="344" />
        <rect width="3" height="3" x="268" y="215" />
        <rect width="3" height="3" x="275" y="379" />
        <rect width="3" height="3" x="283" y="259" />
        <rect width="3" height="3" x="286" y="74" />
        <rect width="3" height="3" x="290" y="422" />
        <rect width="3" height="3" x="296" y="17" />
        <rect width="3" height="3" x="304" y="269" />
        <rect width="3" height="3" x="305" y="476" />
        <rect width="3" height="3" x="312" y="293" />
        <rect width="3" height="3" x="314" y="367" />
        <rect width="3" height="3" x="314" y="137" />
        <rect width="3" height="3" x="319" y="202" />
        <rect width="3" height="3" x="321" y="440" />
        <rect width="3" height="3" x="334" y="329" />
        <rect width="3" height="3" x="340" y="101" />
        <rect width="3" height="3" x="347" y="280" />
        <rect width="3" height="3" x="348" y="417" />
        <rect width="3" height="3" x="363" y="384" />
        <rect width="3" height="3" x="363" y="32" />
        <rect width="3" height="3" x="366" y="190" />
        <rect width="3" height="3" x="370" y="233" />
        <rect width="3" height="3" x="374" y="480" />
        <rect width="3" height="3" x="375" y="373" />
        <rect width="3" height="3" x="402" y="124" />
        <rect width="3" height="3" x="402" y="444" />
        <rect width="3" height="3" x="402" y="78" />
        <rect width="3" height="3" x="404" y="315" />
        <rect width="3" height="3" x="409" y="398" />
        <rect width="3" height="3" x="411" y="343" />
        <rect width="3" height="3" x="413" y="220" />
        <rect width="3" height="3" x="418" y="402" />
        <rect width="3" height="3" x="427" y="160" />
        <rect width="3" height="3" x="427" y="51" />
        <rect width="3" height="3" x="430" y="263" />
        <rect width="3" height="3" x="432" y="210" />
        <rect width="3" height="3" x="435" y="247" />
        <rect width="3" height="3" x="436" y="472" />
        <rect width="3" height="3" x="436" y="21" />
        <rect width="3" height="3" x="447" y="19" />
        <rect width="3" height="3" x="450" y="362" />
        <rect width="3" height="3" x="452" y="273" />
        <rect width="3" height="3" x="453" y="441" />
        <rect width="3" height="3" x="457" y="197" />
        <rect width="3" height="3" x="464" y="132" />
        <rect width="3" height="3" x="471" y="414" />
        <rect width="3" height="3" x="472" y="302" />
        <rect width="3" height="3" x="480" y="70" />
        <rect width="3" height="3" x="482" y="480" />
        <rect width="3" height="3" x="483" y="14" />
        <rect width="3" height="3" x="491" y="23" />
      </g>
    </pattern>

    <filter id="shadow" x="-10%" y="-10%" width="120%" height="120%">
      <feDropShadow dx="0" dy="1" stdDeviation="0" flood-color="rgb(0,0,0)" flood-opacity="0.44" />
    </filter>

    <clipPath id="b" clipPathUnits="userSpaceOnUse">
      <rect width="29.289" height="9.684" x="505.865" y="310.698" fill="#ebebeb" />
    </clipPath>

    <g id="tree">
      <path fill="#273d27" d="M733.422 589.894s-.466 18.722-1.197 20.918c-.732 2.196-.951 3.547-.951 3.547s1.743 1.312 3.258.815c1.516-.497 2.85.126 2.893-.499.043-.625-1.224-4.478-1.42-5.618-.197-1.14-.397-3.798-.192-6.081.205-2.283.418-10.304.203-12.39-.214-2.085-2.594-.692-2.594-.692z" />
      <path fill="#235623" d="M734.632 598.127c-.817 2.318-8.43 7.616-8.43 7.616s4.88.106 7.996.104c3.115-.003 9.38-.157 9.38-.157s-7.8-4.662-8.946-7.563z" />
      <path fill="#235623" d="M734.82 593.002c-.94 2.642-9.044 8.734-9.044 8.734s5.14-.023 8.723-.026c3.583-.003 8.835.236 8.835.236s-7.197-5.637-8.514-8.944z" />
      <path fill="#ebebeb" d="M734.782 591.515c-.805 2.642-7.746 8.734-7.746 8.734s4.403-.023 7.471-.026c3.069-.003 7.566.236 7.566.236s-6.163-5.637-7.29-8.944z" />
      <path fill="#235623" d="M734.219 589.743c-.81 2.318-8.359 7.616-8.359 7.616s4.84.107 7.928.104c3.089-.003 9.302-.157 9.302-.157s-7.736-4.662-8.871-7.563z" />
      <path fill="#235623" d="M734.498 585.295c-.667 2.318-7.54 8.282-7.54 8.282s4.641-.56 7.186-.562c2.544-.003 7.712 1.363 7.712 1.363s-6.422-6.182-7.358-9.083z" />
      <path fill="#ebebeb" d="M734.491 584.304c-.613 2.318-6.92 8.282-6.92 8.282s4.26-.56 6.594-.563c2.335-.003 7.078 1.364 7.078 1.364s-5.894-6.182-6.752-9.083z" />
      <path fill="#235623" d="M734.312 577.475c-1.428 3.035-4.846 8.509-4.846 8.509s3.067-1.598 5.035-1.602c1.967-.004 5.03 1.487 5.03 1.487s-3.758-5.127-5.219-8.394z" />
      <path fill="#235623" d="M734.626 579.677c-.516 2.764-6.42 9.832-6.42 9.832s4.263-1.121 6.23-1.125c1.968-.003 6.301 1.537 6.301 1.537s-5.387-6.784-6.11-10.244z" />
      <path fill="#ebebeb" d="M734.35 577.38c-1.142 2.12-3.874 5.947-3.874 5.947s2.452-1.117 4.025-1.12c1.572-.003 4.021 1.04 4.021 1.04s-3.004-3.584-4.172-5.867z" />
    </g>
  </defs>

  <rect class="sky" width="100%" height="1511.88" fill="#262730" />
  <rect class="stars" width="200%" height="90%" fill="url(#stars)" rx="0" ry="0">
    <animateTransform attributeName="transform" attributeType="XML" begin="-2s" dur="20s" from="-125,-125" repeatCount="indefinite" to="0,0" type="translate" />
  </rect>

  <g class="mountain">
    <path fill="#40654d" d="M-249.514 1255.355s101.077-82.034 113.848-97.88c.89-1.103 2.838-.102 4.251 0 9.775.71 21.313.134 30.901 1.932 1.906.358 4.251-.283 5.738.964.354.296 1.359 1.537 1.722 1.277 2.616-1.876 7.327-6.002 9.537-8.584 8.084-9.444-4.733-16.975-.841-27.458 1.006-2.71 5.773 0 8.66 0 6.69 0 21.196 1.336 27.055 4.83 2.486 1.483-.958 5.656 4.415 7.658 8.906 3.32 52.816-9.734 60.775-15.453 10.59-7.61-.185-35.337 4.687-46.227 3.186-7.12 16.643-8.005 23.635-15.005 7.548-7.558 10.685-9.08 15.366-18.15.382-.74 11.484-3.539 12.883-2.139 5.62 5.626 9.642 9.042 12.906 17.335.363.92 4.333 11.177 6.103 12.477 24.812 18.212 56.137-7.68 76.45-22.471 8.751-6.372 35-21.75 39.348-30.459 3.055-6.117.811-13.061 2.893-19.308 1.436-4.307 4.178-8.009 4.826-12.557 1.918-13.442-8.165-26.526.966-39.586 3.136-4.486 42.75-46.482 44.356-47.302 3.226-1.645 5.927 4.2 8.582 6.662 13.832 12.832 26.447 18.224 40.517-2.291 4.788-6.982 9.458-14.076 13.475-21.528 20.854-38.69 41.647-48.96 55.016-90.1 7.624-23.46 40.47-41.162 50.57-63.436 7.191-15.855 10.3-45.434 16.818-61.512.006-.015 43.132-23.306 47.812-27.32 9.63-8.258 2.667-33.589 14.003-43.357 19.327-16.653 6.042-14.803 25.529-30.929 19.622-16.238 20.322-31.645 39.178-48.77 10.275-9.332 20.64-23.192 35.624-23.165 6.75.012 13.916 3.677 20.25 5.793 13.16 4.398 30.135 13.753 22.984 30.236-2.585 5.957-9.314 16.946-7.188 23.926 1.01 3.317 3.212 7.14 4.747 10.212 2.044 4.09 3.465 8.339 6.416 11.293 5.739 5.747 15.792 15.032 23.583 17.067 31.63 8.261 66.68 3.469 93.046 26.921 13.323 11.851 24.928 24.957 30.522 41.71 2.604 7.8 3.222 16.099 6.75 23.76 7.685 16.686 17.656 32.363 32.849 42.59 3.288 2.212 11.8 26.414 13.155 29.464 5.798 13.051 22.46 36.111 32.89 45.509 11.812 10.645 21.514 16.375 35.11 21.848 2.031.818 4.34-.599 6.498-.966 11.03-1.875 25.423-6.443 31.284 1.38 6.464 8.627 8.496 34.03 10.141 48.852 1.644 14.798 15.516 24.968 24.11 35.732 18.635 23.342 25.1 42.918 58.17 30.542 5.44-2.035 11.478-9.147 15.327-10.319 3.74-1.138 7.224 1.136 10.237 2.897 19.741 11.534 19.106 18.865 28.483 38.86 4.8 10.233 10.66 20.28 13.07 31.308 5.546 25.387 22.308 42.496 40.973 59.163 5.708 5.096 9.176 10.301 17.486 13.421 4.72 1.772 10.985 1.608 15.269 3.742 10.73 5.345 29.836-8.49 37.163 6.733 5.652 11.744 10.552 24.736 13.774 37.344 4.168 16.309 4.116 29.436 14.437 43.64 8.025 11.043 26.707 24.88 41.383 21.193 2.2-.553 17.602-8.379 18.195-7.723 19.263 21.304 38.09 63.902 38.09 63.902l3.634 13.273s-173.966 84.898-787.704 105.052c-613.738 20.154-822.738-106.503-822.738-106.503z" />
    <path fill="#ebebeb" d="M495.574 765.111c-1.59-9.124.86-17.721 7.322-24.675 2.905-3.127 6.704-5.384 9.415-8.7 5.095-6.23 6.924-14.553 11.505-19.442 8.304-8.863 20.724-13.378 29.764-21.416 10.188-9.058 11.226-21.413 17.277-32.262 2.143-3.842 5.779-6.68 8.894-9.728 7.865-7.694 15.141-15.683 19.129-25.951 2.816-7.251 4.183-14.785 4.183-22.509 0-.597-.311-1.529.587-1.633 17.312-2.007 30.7 5.197 34.994 21.999 3.226 12.623-1.517 20.555 10.464 32.276 4.367 4.273 10.12 6.23 15.278 9.266 8.996 5.293 17.198 11.634 26.389 16.63 3.747 2.037 8.509 2.776 12.555 4.097 4.7 1.535 18.3 10.366 22.015 13.34 6.382 5.11 10.345 13.003 15.316 19.23 2.82 3.532 7.133 6.654 9.059 10.893 4.112 9.051 6.983 14.603 14.629 21.455 8.572 7.681 22.114 14.323 24.026 26.487.932 5.923.408 10.3-4.186 14.794-2.84 2.78-10.25 1.638-14.021 2.007-13.17 1.289-25.648-4.176-37.693-8.212-5.833-1.955-12.882-.572-18.948-1.42-9.018-1.26-17.483-3.003-26.408-5.208-5.169-1.277-8.853-1.22-12.889-4.376-4.533-3.545-8.423-5.091-11.53-11.17-1.13-2.21-2.677-3.895-3.66-6.137-2.592-5.922-7.787.742-14.113-1.932-2.98-1.26-6.833-1.648-9.936-2.558-.998-.292-5.299-2.258-6.21-1.534-1.13.897-3.543 2.746-4.212 4.702-8.05 3.858-2.23 5.387-7.792 13.25-2.593 3.394-8.75 4.448-12.56 5.616-23.678 7.256-47.261-1.823-70.472-5.608-2.012-.328-6.279 1.08-7.903 0-2.235-1.485-11.084-2.16-14.62-1.464-7.15 1.408-7.692 2.596-15.648-.107zM275.789 1003.217c3.886-4.68 3.66-20.031 11.11-22.43 7.308-2.353 22.649-5.317 26.46-12.7 1.384-2.682-4.26-8.617-.592-13.402 3.362-4.384 10.768-6.628 15.368-9.253 7.617-4.347 16.238-9.676 20.673-17.334 7.247-12.513 10.529-25.841 15.305-39.273 3.467-9.748 8.04-18.59 12.487-27.876 2.134-4.456 2.116-10.56 5.32-14.454 3.662-4.452 13.684.45 17.37 2.947 1.145.776 2.014 1.886 2.955 2.89 9.54 10.183 8.049 10.868-1.144 19.862-.24.234-4.393 3.519-4.099 4.145 6.549 13.936 9.918 23.98 7.685 39.272-1.9 13.012-8.304 31.37-5.318 44.516 1.316 5.795 12.833 13.054 11.204 18.974-2.366 8.593-20.457 22.846-27.352 29.59-1.378 1.348-4.874 3.804-5.866 5.738-.781 1.525 1.59 6.459.18 7.147-11.145 5.443-30.57 7.089-42.37 2.89-5.306-1.886-17.838-11.131-23.707-9.1-5.557 1.924-11.69 5.84-16.247 9.495-4.763 3.82-8.47 11.18-14.778 13.301-3.426 1.153-14.936.152-17.675-3.434-2.877-3.768-11.764-14.67-8.84-20.088 2.99-5.54 8.056-3.761 12.99-6.356 3.019-1.587 5.92-3.378 8.88-5.067z" />
    <path fill="#ebebeb" d="M716.058 835.873c-4.807.116-8.212 2.05-13.92 4.625-5.59 2.522-16.176 4.209-19.703 10.191-6.907 11.717-7.873 28.153-20.045 36.998-15.048 10.937-34.847 14.893-53.232 13.922-3.686-.195-8.654-3.822-11.023-1.053-2.41 2.817-2.507 6.944-4.182 10.23-6.165 12.098-13.223 23.775-26.2 29.823-8.884 4.141-22.87 11.564-32.956 12.504-8.736.814-47.689-2.688-52.942 0-5.532 2.832-9.321 8.794-14.558 12.072-15.632 9.784-31.353 16.86-43.93 30.702-6.095 6.708-3.493 3.772-6.275 13.298-4.538 15.538-16.865 26.468-32.52 31.807-9.3 3.172-19.426 4.668-29.187 5.219-6.147.347-39.19-2.894-45.194 1.021-10.148 6.617-15.295 24.195-22.355 33.412-17.598 22.975-39.456 48.422-66.53 61.004-15.142 7.038-33.487 12.072-50.005 13.73-1.213.123-4.739-.218-7.077-.327-.06-.22-.002-.534-.105-.721-11.918-21.731-14.248-15.195-35.084-27.68-9.887-5.924-11.013-7.866-21.172-11.416-2.814-.983-9.476-4.898-8.71-2.072.678 2.507 4.017-.137 4.525 3.328 1.17 7.986-2.175 13.941-3.14 21.486-1.225 9.593.104 18.748-3.136 28.256-1.921 5.639-5.78 11.403-10.21 16.867-6.515 3.586-12.979 7.303-19.046 11.252-6.557 4.269-15.757 9.854-18.843 17.403-.076.184-.088.365-.157.549-5.619 4.436-11.17 9.275-17.685 12.013-25.823 10.854-55.73-22.09-79.08-15.303-.859.25-1.27 4.191-1.678 5.186-2.187 5.33-6.224 9.765-8.365 15.346-3.923 10.222-7.91 20.601-11.588 30.904-4.301 12.047-3.16 8.764-2.973 21.875l-45.15 42.52c8.944.955 17.526 1.74 26.38 2.654l-45.517 38.209c1121.776 70.536 1254.54-16.309 1252.832-46.895 113.788-19.555 169.595-38.768 168.342-40.402-11.593-15.124-37.094-58.62-53.647-68.926-25.73-16.018-60.608-21.055-82.605-42.574-8.358-8.176-11.73-31.749-19.92-42.965-15.286-20.936-43.673-27.381-61.719-45.035-13.916-13.614-10.477-28.345-17.86-41.516-.919-1.64-35.369-22.435-38.439-25.166-8.494-7.556-12.296-18.247-17.05-28.109-5.535-11.48-12.327-22.481-17.084-34.313-4.463-11.098-9.46-37.1-24.133-41.177-16.667-4.632-51.107-10.956-62.865 6.285-4.435 6.502 1.197 12.184 2.943 17.883 1.876 6.122 2.708 14.123 3.14 20.476 1.396 20.48-6.177 25.615-8.406 43.04-1.099 8.594 1.027 16.22 2.092 24.554 1.643 12.857-12.251 27.667-20.873 35.54-.679.619-2.151 1.87-3.191 2.8-2.417-2.145-4.9-4.203-7.067-6.67-8.943-10.18-13.002-21.589-10.71-35.037 1.585-9.308 2.519-2.798 3.136-11.254 1.246-17.057.551-36.3-9.441-51.1-3.697-5.474-30.801-10.871-33.953-11.85-15.229-4.725-58.266-19.741-67.489-35.982-6.17-10.865-2.19-42.963 1.922-54.777.333-.956 2.333-7.765 2.092-7.908-6.931-4.11-13.764-6.567-22.064-8.223-2.052-.41-3.812-.572-5.415-.533z" />
  </g>

  <g class="palumba" transform="translate(-20 0)">
    <path fill="#9f6d4d" d="M740.984 595.999s.354 11.09-.164 11.578c-.518.49-2.635 1.32-3.535 1.32-.9 0-6.723-.125-7.619 1.078-.895 1.202-1.519 3.167-.399 3.452 1.12.285 9.986-.902 10.325-.474.339.427 1.29 1.792 2.77 1.72 1.479-.07 3.33-1.432 3.33-1.432s11.197.976 10.868.156c-.33-.82-1.962-3.454-3.102-3.714-1.14-.26-6.747-.749-7.292-1.519-.545-.77-.22-11.907-.22-11.907z" />
    <path fill="#9f6d4d" d="M760.512 597.433s.354 11.09-.164 11.578c-.518.49-2.635 1.319-3.535 1.319-.9 0-6.723-.124-7.619 1.079-.895 1.202-1.519 3.167-.399 3.452 1.12.285 9.986-.902 10.325-.474.338.427 1.29 1.791 2.77 1.72 1.479-.07 3.33-1.432 3.33-1.432s11.197.976 10.868.156c-.33-.82-1.962-3.454-3.102-3.714-1.14-.26-6.747-.749-7.292-1.519-.545-.77-.22-11.907-.22-11.907z" />
    <path fill="#656e7f" d="M735.34 586.102s2.182 14.135 6.306 15.072c4.123.938 11.351-5.23 11.778-10.346.426-5.116-18.084-4.726-18.084-4.726zM754.868 587.536s2.182 14.135 6.306 15.072c4.123.938 11.351-5.23 11.778-10.346.426-5.116-18.084-4.726-18.084-4.726z" />
    <path fill="#2d3252" d="M795.63 584.41s22.455 13.647 27.151 13.218c4.696-.429 8.965-2.395 8.965-2.395s8.09-2.51 8.183-6.483c.093-3.973-17.199-11.016-21.676-11.444-4.478-.428-23.846-2.31-22.624 7.104z" />
    <path fill="#72819c" d="M704.357 536.716s-2.218 8.115-1.525 16.104c.693 7.99 5.595 34.837 45.228 39.227 39.633 4.39 50.05-4.759 52.527-4.873 2.478-.115 12.814 1.962 15.324.227 2.51-1.735-32.175-34.506-47.958-44.706-6.354-4.107-21.79 3.342-33.422 2.522-11.633-.82-28.41-12.939-30.174-8.5z" />
    <path fill="#454868" d="M703.295 539.042c1.407 9.133 19.44 12.807 27.193 13.848 7.752 1.04 38.705-6.55 38.616-10.76-.096-4.587-6.824-14.727-9.65-22.466-2.827-7.739-5.58-9.283-7.572-17.622-1.176-4.927-.647-20.504-14.675-20.354-14.028.151-15.329 9.618-17.834 19.438-2.506 9.82-6.902 14.455-6.902 14.455s-10.701 13.553-9.176 23.46z" />

    <path fill="#848fa5" d="M742.476 528.168c-5.988 6.675-11.994 23.16.197 37.987 12.191 14.828 63.158 15.113 77.972 12.79 14.814-2.32-15.042-26.589-28.166-35.495-13.124-8.907-28.363-37.426-50.003-15.282z" />
    <path fill="#2d3252" d="M816.65 563.275c-1.21 5.35-3.235 11.914-6.48 16.573 4.3-.185 7.93-.503 10.475-.902 7.536-1.181 3.505-8.043-3.996-15.671zM802.123 550.54c-5.508 12.448-12.065 20.716-17.475 26.03a65.98 65.98 0 0 1-2.723 2.528 210.8 210.8 0 0 0 14.554.853c4.784-5.478 9.863-12.742 14.354-22.172a187.358 187.358 0 0 0-8.71-7.24zM784.916 536.902c-7.011 15.219-15.405 24.603-22.02 30.232-3.815 3.246-6.896 5.181-8.875 6.258 4.09 1.573 8.834 2.812 13.89 3.772a69.974 69.974 0 0 0 2.077-1.698c7.295-6.208 16.133-16.128 23.571-31.273-.369-.256-.733-.508-1.08-.743-2.439-1.656-4.95-3.989-7.563-6.548z" />

    <g clip-path="url(#b)" transform="translate(215.204 180.693)">
      <g class="eyes">
        <g transform="matrix(.90323 0 0 .90323 963.074 135.65)">
          <circle cx="-492.237" cy="199.875" r="4.093" fill="#f5f5f5" />
          <circle cx="-492.237" cy="199.875" r="2.648" fill="#0a0026" stroke="#8b38a9" stroke-width=".907" />
        </g>
        <g transform="matrix(.90323 0 0 .90323 933.074 135.65)">
          <circle cx="-492.237" cy="199.875" r="4.093" fill="#f5f5f5" />
          <circle cx="-492.237" cy="199.875" r="2.648" fill="#0a0026" stroke="#8b38a9" stroke-width=".907" />
        </g>
      </g>
    </g>

    <g class="peak" transform="translate(215.204 180.693) scale(1 1)">
      <ellipse cx="-506.055" cy="317.618" fill="#ececec" rx="3.713" ry="2.403" transform="scale(-1 1)" />
      <path fill="#a57e3c" d="M508.094 321.727c-.57 1.936-4.083.323-5.696 1.016-2.19.941-5.147 3.293-5.415 2.644-.27-.65.77-4.633 2.32-5.98 1.125-.977 4.043-2.212 5.912-2.046 1.49.133 3.276 1.079 2.879 4.366z" />
    </g>
  </g>

  <text class="header" x="50%" y="200" fill="#88e2bf" dominant-baseline="middle" font-family="Montserrat" text-anchor="middle">
    <tspan fill="#fff" x="50%" dy="1.5rem" font-size="3rem" font-weight="300">
              MIGUEL RIVAS
    </tspan>
    <tspan x="50%" dy="2.2rem" font-size="1.2rem">
              FRONTEND DEVELOPER
    </tspan>
    <tspan x="50%" dy="1.5rem" font-size=".75em" font-weight="600">
              VUE | WEB COMPONENTS
    </tspan>
  </text>

  <text class="spokane-banner" x="640" y="820" filter="url(#shadow)" fill="#ebebeb" font-family="Montserrat" font-size="26" font-weight="600" text-anchor="middle" letter-spacing="6" rotate="-6 2 0 4 -1 2 -7 0 3 0">
            SPOKANE WA
  </text>

  <g class="trees">
    <g class="tree">
      <use x="-196" y="-38" href="#tree" />
    </g>
    <g class="tree">
      <use x="-156" y="-8" href="#tree" />
    </g>
    <g class="tree">
      <use x="-181" y="42" href="#tree" />
    </g>
    <g class="tree">
      <use x="-46" y="12" href="#tree" />
    </g>
    <g class="tree">
      <use x="-313" y="272" href="#tree" />
    </g>
    <g class="tree">
      <use x="-216" y="270" href="#tree" />
    </g>
    <g class="tree">
      <use x="-246" y="312" href="#tree" />
    </g>
    <g class="tree">
      <use x="-186" y="382" href="#tree" />
    </g>
    <g class="tree">
      <use x="-256" y="412" href="#tree" />
    </g>
    <g class="tree">
      <use x="-406" y="285" href="#tree" />
    </g>
    <g class="tree">
      <use x="-326" y="152" href="#tree" />
    </g>
    <g class="tree">
      <use x="-276" y="79" href="#tree" />
    </g>
    <g class="tree">
      <use x="-166" y="295" href="#tree" />
    </g>
    <g class="tree">
      <use x="-449" y="352" href="#tree" />
    </g>
    <g class="tree">
      <use x="-496" y="402" href="#tree" />
    </g>
    <g class="tree">
      <use x="-56" y="332" href="#tree" />
    </g>
    <g class="tree">
      <use x="-140" y="278" href="#tree" />
    </g>
    <g class="tree">
      <use x="-30" y="152" href="#tree" />
    </g>
    <g class="tree">
      <use x="0" y="82" href="#tree" />
    </g>
    <g class="tree">
      <use x="210" y="222" href="#tree" />
    </g>
    <g class="tree">
      <use x="-66" y="263" href="#tree" />
    </g>
    <g class="tree">
      <use x="74" y="242" href="#tree" />
    </g>
    <g class="tree">
      <use x="234" y="412" href="#tree" />
    </g>
    <g class="tree">
      <use x="-207" y="322" href="#tree" />
    </g>
    <g class="tree">
      <use x="184" y="272" href="#tree" />
    </g>
    <g class="tree">
      <use x="-266" y="252" href="#tree" />
    </g>
    <g class="tree">
      <use x="-159" y="132" href="#tree" />
    </g>
    <g class="tree">
      <use x="-226" y="102" href="#tree" />
    </g>
    <g class="tree">
      <use x="-80" y="292" href="#tree" />
    </g>
    <g class="tree">
      <use x="-114" y="312" href="#tree" />
    </g>
    <g class="tree">
      <use x="-33" y="442" href="#tree" />
    </g>
    <g class="tree">
      <use x="284" y="332" href="#tree" />
    </g>
    <g class="tree">
      <use x="-346" y="362" href="#tree" />
    </g>
    <g class="tree">
      <use x="214" y="332" href="#tree" />
    </g>
    <g class="tree">
      <use x="104" y="382" href="#tree" />
    </g>
    <g class="tree">
      <use x="103" y="142" href="#tree" />
    </g>
    <g class="tree">
      <use x="-60" y="36" href="#tree" />
    </g>
    <g class="tree">
      <use x="54" y="62" href="#tree" />
    </g>
    <g class="tree">
      <use x="144" y="202" href="#tree" />
    </g>
    <g class="tree">
      <use x="144" y="312" href="#tree" />
    </g>
    <g class="tree">
      <use x="174" y="402" href="#tree" />
    </g>
    <g class="tree">
      <use x="104" y="272" href="#tree" />
    </g>
    <g class="tree">
      <use x="34" y="292" href="#tree" />
    </g>
    <g class="tree">
      <use x="-86" y="180" href="#tree" />
    </g>
    <g class="tree">
      <use x="-266" y="142" href="#tree" />
    </g>
    <g class="tree">
      <use x="-156" y="-88" href="#tree" />
    </g>
    <g class="tree">
      <use x="-6" y="2" href="#tree" />
    </g>
    <g class="tree">
      <use x="-116" y="-58" href="#tree" />
    </g>
    <g class="tree">
      <use x="14" y="52" href="#tree" />
    </g>
    <g class="tree">
      <use x="-492" y="320" href="#tree" />
    </g>
    <g class="tree">
      <use x="-296" y="332" href="#tree" />
    </g>
    <g class="tree">
      <use x="-366" y="222" href="#tree" />
    </g>
    <g class="tree">
      <use x="-136" y="342" href="#tree" />
    </g>
    <g class="tree">
      <use x="74" y="302" href="#tree" />
    </g>
    <g class="tree">
      <use x="-306" y="412" href="#tree" />
    </g>
    <g class="tree">
      <use x="-336" y="212" href="#tree" />
    </g>
    <g class="tree">
      <use x="-146" y="245" href="#tree" />
    </g>
    <g class="tree">
      <use x="-86" y="-28" href="#tree" />
    </g>
    <g class="tree">
      <use x="44" y="92" href="#tree" />
    </g>
    <g class="tree">
      <use x="84" y="92" href="#tree" />
    </g>
    <g class="tree">
      <use x="-16" y="52" href="#tree" />
    </g>
    <g class="tree">
      <use x="-226" y="2" href="#tree" />
    </g>
    <g class="tree">
      <use x="174" y="322" href="#tree" />
    </g>
    <g class="tree">
      <use x="111" y="322" href="#tree" />
    </g>
    <g class="tree">
      <use x="154" y="382" href="#tree" />
    </g>
    <g class="tree">
      <use x="124" y="252" href="#tree" />
    </g>
    <g class="tree">
      <use x="-221" y="142" href="#tree" />
    </g>
    <g class="tree">
      <use x="254" y="342" href="#tree" />
    </g>
    <g class="tree">
      <use x="324" y="342" href="#tree" />
    </g>
    <g class="tree">
      <use x="-185" y="312" href="#tree" />
    </g>
    <g class="tree">
      <use x="-345" y="302" href="#tree" />
    </g>
    <g class="tree">
      <use x="13" y="266" href="#tree" />
    </g>
    <g class="tree">
      <use x="-226" y="372" href="#tree" />
    </g>
    <g class="tree">
      <use x="-296" y="192" href="#tree" />
    </g>
    <g class="tree">
      <use x="-376" y="272" href="#tree" />
    </g>
    <g class="tree">
      <use x="-196" y="92" href="#tree" />
    </g>
    <g class="tree">
      <use x="-96" y="-88" href="#tree" />
    </g>
    <g class="tree">
      <use x="-258" y="352" href="#tree" />
    </g>
    <g class="tree">
      <use x="-16" y="292" href="#tree" />
    </g>
    <g class="tree">
      <use x="24" y="122" href="#tree" />
    </g>
    <g class="tree">
      <use x="7" y="176" href="#tree" />
    </g>
    <g class="tree">
      <use x="-46" y="92" href="#tree" />
    </g>
    <g class="tree">
      <use x="-106" y="52" href="#tree" />
    </g>
    <g class="tree">
      <use x="-146" y="82" href="#tree" />
    </g>
    <g class="tree">
      <use x="-116" y="112" href="#tree" />
    </g>
    <g class="tree">
      <use x="-56" y="142" href="#tree" />
    </g>
    <g class="tree">
      <use x="-136" y="162" href="#tree" />
    </g>
    <g class="tree">
      <use x="-186" y="142" href="#tree" />
    </g>
    <g class="tree">
      <use x="64" y="172" href="#tree" />
    </g>
    <g class="tree">
      <use x="-176" y="245" href="#tree" />
    </g>
    <g class="tree">
      <use x="-96" y="152" href="#tree" />
    </g>
    <g class="tree">
      <use x="-16" y="122" href="#tree" />
    </g>
    <g class="tree">
      <use x="24" y="332" href="#tree" />
    </g>
    <g class="tree">
      <use x="-86" y="382" href="#tree" />
    </g>
    <g class="tree">
      <use x="-386" y="332" href="#tree" />
    </g>
    <g class="tree">
      <use x="-416" y="362" href="#tree" />
    </g>
    <g class="tree">
      <use x="-16" y="332" href="#tree" />
    </g>
    <g class="tree">
      <use x="-386" y="392" href="#tree" />
    </g>
    <g class="tree">
      <use x="34" y="472" href="#tree" />
    </g>
    <g class="tree">
      <use x="164" y="242" href="#tree" />
    </g>
    <g class="tree">
      <use x="154" y="522" href="#tree" />
    </g>
    <g class="tree">
      <use x="134" y="442" href="#tree" />
    </g>
    <g class="tree">
      <use x="274" y="392" href="#tree" />
    </g>
    <g class="tree">
      <use x="314" y="422" href="#tree" />
    </g>
    <g class="tree">
      <use x="262" y="452" href="#tree" />
    </g>
    <g class="tree">
      <use x="339" y="472" href="#tree" />
    </g>
    <g class="tree">
      <use x="384" y="515" href="#tree" />
    </g>
    <g class="tree">
      <use x="-550" y="440" href="#tree" />
    </g>
    <g class="tree">
      <use x="364" y="395" href="#tree" />
    </g>
    <g class="tree">
      <use x="394" y="432" href="#tree" />
    </g>
    <g class="tree">
      <use x="374" y="462" href="#tree" />
    </g>
    <g class="tree">
      <use x="-520" y="422" href="#tree" />
    </g>
    <g class="tree">
      <use x="450" y="472" href="#tree" />
    </g>
    <g class="tree">
      <use x="213" y="462" href="#tree" />
    </g>
    <g class="tree">
      <use x="494" y="442" href="#tree" />
    </g>
    <g class="tree">
      <use x="164" y="462" href="#tree" />
    </g>
    <g class="tree">
      <use x="311" y="502" href="#tree" />
    </g>
    <g class="tree">
      <use x="84" y="422" href="#tree" />
    </g>
    <g class="tree">
      <use x="44" y="402" href="#tree" />
    </g>
    <g class="tree">
      <use x="104" y="472" href="#tree" />
    </g>
    <g class="tree">
      <use x="116" y="542" href="#tree" />
    </g>
    <g class="tree">
      <use x="264" y="534" href="#tree" />
    </g>
    <g class="tree">
      <use x="4" y="382" href="#tree" />
    </g>
    <g class="tree">
      <use x="-26" y="512" href="#tree" />
    </g>
    <g class="tree">
      <use x="134" y="492" href="#tree" />
    </g>
    <g class="tree">
      <use x="294" y="472" href="#tree" />
    </g>
    <g class="tree">
      <use x="-274" y="462" href="#tree" />
    </g>
    <g class="tree">
      <use x="-206" y="444" href="#tree" />
    </g>
    <g class="tree">
      <use x="-156" y="432" href="#tree" />
    </g>
    <g class="tree">
      <use x="-116" y="472" href="#tree" />
    </g>
    <g class="tree">
      <use x="-316" y="502" href="#tree" />
    </g>
    <g class="tree">
      <use x="-236" y="512" href="#tree" />
    </g>
    <g class="tree">
      <use x="-286" y="572" href="#tree" />
    </g>
    <g class="tree">
      <use x="-56" y="412" href="#tree" />
    </g>
    <g class="tree">
      <use x="-66" y="482" href="#tree" />
    </g>
    <g class="tree">
      <use x="64" y="529" href="#tree" />
    </g>
    <g class="tree">
      <use x="-196" y="562" href="#tree" />
    </g>
    <g class="tree">
      <use x="-158" y="512" href="#tree" />
    </g>
    <g class="tree">
      <use x="-116" y="582" href="#tree" />
    </g>
    <g class="tree">
      <use x="14" y="562" href="#tree" />
    </g>
    <g class="tree">
      <use x="-426" y="482" href="#tree" />
    </g>
    <g class="tree">
      <use x="-456" y="432" href="#tree" />
    </g>
    <g class="tree">
      <use x="-386" y="452" href="#tree" />
    </g>
    <g class="tree">
      <use x="-6" y="462" href="#tree" />
    </g>
    <g class="tree">
      <use x="-356" y="542" href="#tree" />
    </g>
    <g class="tree">
      <use x="-476" y="492" href="#tree" />
    </g>
    <g class="tree">
      <use x="354" y="552" href="#tree" />
    </g>
    <g class="tree">
      <use x="224" y="572" href="#tree" />
    </g>
    <g class="tree">
      <use x="54" y="592" href="#tree" />
    </g>
    <g class="tree">
      <use x="-66" y="552" href="#tree" />
    </g>
    <g class="tree">
      <use x="-170" y="542" href="#tree" />
    </g>
    <g class="tree">
      <use x="126" y="362" href="#tree" />
    </g>
    <g class="tree">
      <use x="143" y="552" href="#tree" />
    </g>
    <g class="tree">
      <use x="-36" y="534" href="#tree" />
    </g>
    <g class="tree">
      <use x="44" y="202" href="#tree" />
    </g>
    <g class="tree">
      <use x="-266" y="532" href="#tree" />
    </g>
    <g class="tree">
      <use x="-446" y="572" href="#tree" />
    </g>
    <g class="tree">
      <use x="-416" y="532" href="#tree" />
    </g>
    <g class="tree">
      <use x="-96" y="332" href="#tree" />
    </g>
    <g class="tree">
      <use x="-336" y="452" href="#tree" />
    </g>
    <g class="tree">
      <use x="-325" y="312" href="#tree" />
    </g>
    <g class="tree">
      <use x="119" y="172" href="#tree" />
    </g>
    <g class="tree">
      <use x="-276" y="282" href="#tree" />
    </g>
    <g class="tree">
      <use x="-236" y="243" href="#tree" />
    </g>
    <g class="tree">
      <use x="-207" y="168" href="#tree" />
    </g>
    <g class="tree">
      <use x="-23" y="382" href="#tree" />
    </g>
    <g class="tree">
      <use x="-116" y="250" href="#tree" />
    </g>
    <g class="tree">
      <use x="-26" y="240" href="#tree" />
    </g>
    <g class="tree">
      <use x="-84" y="82" href="#tree" />
    </g>
    <g class="tree">
      <use x="-128" y="42" href="#tree" />
    </g>
    <g class="tree">
      <use x="-118" y="402" href="#tree" />
    </g>
    <g class="tree">
      <use x="-216" y="542" href="#tree" />
    </g>
    <g class="tree">
      <use x="-196" y="492" href="#tree" />
    </g>
    <g class="tree">
      <use x="-326" y="592" href="#tree" />
    </g>
    <g class="tree">
      <use x="224" y="292" href="#tree" />
    </g>
    <g class="tree">
      <use x="-296" y="122" href="#tree" />
    </g>
    <g class="tree">
      <use x="-136" y="2" href="#tree" />
    </g>
    <g class="tree">
      <use x="-204" y="12" href="#tree" />
    </g>
    <g class="tree">
      <use x="-157" y="362" href="#tree" />
    </g>
    <g class="tree">
      <use x="-174" y="-51" href="#tree" />
    </g>
    <g class="tree">
      <use x="-82" y="14" href="#tree" />
    </g>
    <g class="tree">
      <use x="34" y="12" href="#tree" />
    </g>
    <g class="tree">
      <use x="194" y="372" href="#tree" />
    </g>
    <g class="tree">
      <use x="64" y="122" href="#tree" />
    </g>
    <g class="tree">
      <use x="84" y="357" href="#tree" />
    </g>
    <g class="tree">
      <use x="-92" y="442" href="#tree" />
    </g>
    <g class="tree">
      <use x="-276" y="372" href="#tree" />
    </g>
    <g class="tree">
      <use x="14" y="432" href="#tree" />
    </g>
    <g class="tree">
      <use x="304" y="362" href="#tree" />
    </g>
    <g class="tree">
      <use x="186" y="542" href="#tree" />
    </g>
    <g class="tree">
      <use x="-386" y="562" href="#tree" />
    </g>
    <g class="tree">
      <use x="414" y="542" href="#tree" />
    </g>
    <g class="tree">
      <use x="-426" y="412" href="#tree" />
    </g>
    <g class="tree">
      <use x="324" y="582" href="#tree" />
    </g>
    <g class="tree">
      <use x="289" y="552" href="#tree" />
    </g>
    <g class="tree">
      <use x="384" y="572" href="#tree" />
    </g>
    <g class="tree">
      <use x="484" y="532" href="#tree" />
    </g>
    <g class="tree">
      <use x="405" y="482" href="#tree" />
    </g>
    <g class="tree">
      <use x="94" y="602" href="#tree" />
    </g>
  </g>

  <g class="buildings-a" pointer-events="none">
    <rect width="1200" height="238.634" y="1215.967" fill="#42425f" />
    <rect width="100%" height="120" y="1120" fill="url(#buildings-a)" />
  </g>
  <g class="buildings-b" pointer-events="none">
    <rect width="1200" height="300" y="1300" fill="#4d4d61" />
    <rect width="100%" height="120" y="1182" fill="url(#buildings-b)" />
  </g>

  <g class="logos" transform="translate(0 -10)">
    <path class="javascript-html-git" fill="#fff" d="M714.65 1391.33v43.445a8.275 8.275 0 0 0 8.275 8.275h35.17a8.275 8.275 0 0 0 8.275-8.275v-35.17a8.275 8.275 0 0 0-8.275-8.275zm30.707 28.185c1.567 0 2.78.481 3.63 1.44.882.964 1.334 2.342 1.37 4.144h-3.475a3.733 3.733 0 0 0-.347-1.709c-.198-.393-.58-.59-1.151-.59-1.017 0-1.526.606-1.526 1.813 0 .612.125 1.088.374 1.45a3.371 3.371 0 0 0 1.311.902l1.282.565c1.322.606 2.277 1.347 2.863 2.243.586.891.88 2.083.88 3.575 0 1.788-.47 3.161-1.413 4.12-.944.958-2.257 1.44-3.932 1.44-1.676 0-2.957-.488-3.855-1.467-.887-.984-1.347-2.388-1.389-4.222h3.61c.02 1.622.59 2.435 1.711 2.435.57 0 .975-.182 1.203-.54.234-.357.347-.927.347-1.709 0-.622-.149-1.14-.45-1.548a3.786 3.786 0 0 0-1.524-1.094l-1.339-.643c-1.193-.57-2.059-1.243-2.593-2.031-.519-.783-.778-1.88-.778-3.285 0-1.57.456-2.843 1.363-3.823.934-.979 2.205-1.466 3.828-1.466zm11.66 0c1.567 0 2.78.481 3.635 1.44.871.964 1.328 2.342 1.365 4.144h-3.476a3.732 3.732 0 0 0-.347-1.709c-.196-.393-.582-.59-1.152-.59-1.016 0-1.525.606-1.525 1.813 0 .612.125 1.088.374 1.45a3.371 3.371 0 0 0 1.312.902l1.282.565c1.322.606 2.277 1.347 2.863 2.243.59.891.88 2.083.88 3.575 0 1.788-.466 3.161-1.415 4.12-.944.958-2.256 1.44-3.93 1.44h-.003c-1.675 0-2.956-.488-3.852-1.467-.887-.984-1.35-2.388-1.391-4.222h3.611c.021 1.622.591 2.435 1.711 2.435.571 0 .975-.182 1.208-.54.228-.357.349-.927.349-1.709 0-.622-.157-1.14-.458-1.548a3.786 3.786 0 0 0-1.525-1.094l-1.338-.643c-1.193-.57-2.06-1.243-2.594-2.031-.518-.783-.776-1.88-.776-3.285 0-1.57.456-2.843 1.364-3.823.933-.979 2.204-1.466 3.827-1.466zm-23.697.027c1.624 0 2.904.465 3.853 1.388.96.927 1.441 2.305 1.441 4.144v.69h-3.821v-.67c0-.709-.157-1.232-.458-1.574a1.369 1.369 0 0 0-1.119-.534c-.622 0-1.064.212-1.313.642a4.088 4.088 0 0 0-.347 1.898v7.563c0 1.58.555 2.384 1.66 2.4.518 0 .908-.188 1.178-.56a2.676 2.676 0 0 0 .399-1.576v-.564h3.821v.59c0 1.229-.237 2.254-.72 3.072a4.593 4.593 0 0 1-1.976 1.846 6.282 6.282 0 0 1-2.836.61c-1.64 0-2.942-.445-3.907-1.336-.964-.886-1.44-2.218-1.44-3.98v-8.703c0-1.75.508-3.078 1.524-3.99 1.032-.902 2.386-1.356 4.061-1.356zM1141.419 1414.886l-22.582-22.581a3.332 3.332 0 0 0-4.71 0l-4.69 4.69 5.949 5.948a3.955 3.955 0 0 1 5.009 5.043l5.733 5.733a3.96 3.96 0 0 1 4.095 6.545 3.963 3.963 0 0 1-5.607 0 3.965 3.965 0 0 1-.862-4.311l-5.346-5.346v14.07a3.978 3.978 0 0 1 1.048.75 3.964 3.964 0 1 1-5.605 0 3.954 3.954 0 0 1 1.298-.866v-14.2a3.926 3.926 0 0 1-1.298-.865 3.962 3.962 0 0 1-.853-4.333l-5.865-5.864-15.484 15.483a3.332 3.332 0 0 0 0 4.712l22.583 22.581c1.3 1.3 3.408 1.3 4.711 0l22.476-22.477a3.333 3.333 0 0 0 0-4.712zM446.849 1391.33l4.15 46.55 18.625 5.17 18.674-5.177 4.156-46.543zm8.486 9.516H483.934l-.137 1.531-.26 2.895-.115 1.282h-21.848l.522 5.847h20.806l-.139 1.533-1.342 15.03-.085.965-11.685 3.239-.026.01-11.695-3.247-.8-8.964h5.732l.406 4.552 6.358 1.718h.004l.01-.01.01-.01 6.349-1.714.662-7.403h-19.787l-1.403-15.734zM57.605 1391.33v51.72h51.72v-51.72zm38.864 23.466c2.925-.06 4.754.713 6.096 2.212.374.379.679.787 1.25 1.671-1.559.993-1.555.984-3.787 2.43-.477-1.028-1.268-1.672-2.104-1.952-1.298-.393-2.935.033-3.274 1.406-.118.422-.093.815.094 1.514.526 1.2 2.29 1.721 3.874 2.449 4.557 1.848 6.096 3.83 6.475 6.189.364 2.03-.09 3.347-.158 3.545-1.681 5.752-11.056 5.938-14.803 2.138-.791-.894-1.288-1.362-1.76-2.394 1.992-1.145 1.992-1.145 3.928-2.266 1.053 1.618 2.026 2.507 3.776 2.871 2.375.29 4.764-.527 4.228-3.049-.55-2.06-4.862-2.56-7.797-4.763-2.98-2-3.677-6.863-1.229-9.641.816-1.028 2.207-1.794 3.668-2.163zm-15.584.305h4.837c0 4.449.024 8.883 0 13.318.01 2.719.246 5.176-.856 7.207-.762 1.549-2.217 2.567-3.903 3.058-2.591.595-5.069.256-6.912-.85-1.234-.757-2.198-1.923-2.852-3.265l3.933-2.41c.035.015.138.203.275.444.501.84.934 1.435 1.785 1.853.836.285 2.67.467 3.377-1.003.433-.748.295-3.186.295-5.846z" />

    <g class="react" transform="matrix(2.24873 0 0 2.24873 273.344 1417.19)">
      <circle r="2.05" fill="#fff" />
      <ellipse fill="none" stroke="#fff" rx="11" ry="4.2" />
      <ellipse fill="none" stroke="#fff" rx="11" ry="4.2" transform="rotate(60)" />
      <ellipse fill="none" stroke="#fff" rx="11" ry="4.2" transform="rotate(120)" />
    </g>

    <path class="sass" fill="#fff" d="M805.605 1412.896c0 .387.114.642.178.89.416 1.616 1.311 3.003 2.373 4.267 1.513 1.802 3.365 3.253 5.263 4.618 1.646 1.183 3.325 2.34 4.977 3.514.284.201.552.433.86.68-.265.144-.485.27-.714.386-2.18 1.106-4.279 2.346-6.213 3.848-1.165.906-2.292 1.868-3.088 3.126-1.28 2.022-1.734 4.177-.78 6.477.28.673.704 1.253 1.304 1.682.195.139.413.277.64.33.583.138 1.177.228 1.767.336h1.67c1.848-.165 3.53-.798 5.049-1.846 2.375-1.64 3.975-3.837 4.663-6.658.5-2.05.52-4.102-.07-6.143a6.442 6.442 0 0 0-.194-.559c-.072-.183-.156-.361-.255-.59l3.787-2.178.057.05c-.07.224-.142.45-.205.677-.45 1.643-.749 3.316-.641 5.021.114 1.818.622 3.52 1.686 5.038.86 1.228 2.91 1.274 3.825.042.324-.438.638-.895.875-1.384.617-1.275 1.189-2.573 1.779-3.862l.103-.235c-.042.61-.092 1.146-.115 1.682-.035.838.015 1.67.3 2.468.246.682.663 1.191 1.444 1.281.534.061.96-.183 1.352-.493a5.72 5.72 0 0 0 1.483-1.762c1.047-1.923 2.122-3.835 3.07-5.806 1.028-2.132 1.925-4.327 2.879-6.495l.157-.384c.226.885.383 1.752.672 2.572.336.953.752 1.882 1.204 2.786.215.427.19.704-.107 1.062-1.243 1.498-2.464 3.015-3.686 4.53-.27.334-.54.674-.765 1.04a2.039 2.039 0 0 0-.264.75.957.957 0 0 0 .761 1.086 5.321 5.321 0 0 0 1.492.107c1.706-.126 3.255-.725 4.624-1.74 1.774-1.313 2.344-3.107 1.914-5.232-.116-.577-.322-1.138-.522-1.694-.09-.25-.096-.426.068-.66 1.418-2.025 2.63-4.173 3.757-6.372.045-.087.09-.173.169-.265.365 1.9.915 3.732 1.9 5.393-.503.484-1 .923-1.45 1.407-.991 1.065-1.85 2.222-2.299 3.633-.193.608-.34 1.226-.255 1.875.133 1.009.96 1.664 1.952 1.434 2.122-.491 3.955-1.491 5.294-3.263.901-1.193.983-2.524.606-3.918-.104-.379-.227-.752-.359-1.186.524-.163 1.035-.358 1.563-.479 2.742-.625 5.455-.516 8.098.474 1.543.578 2.79 1.546 3.528 3.069.903 1.86.404 3.627-1.35 4.803-.164.11-.351.196-.487.333a.479.479 0 0 0-.113.37c.012.068.191.152.294.151.577-.01 1.044-.307 1.493-.617 1.125-.779 1.946-1.826 2.123-3.204l.034-.104-.042-.898c-.017-.052.012-.103.009-.142-.24-2.008-1.312-3.565-2.872-4.785-1.806-1.413-3.94-1.995-6.196-2.087a13.991 13.991 0 0 0-5.378.828c-.494.18-.984.391-1.481.591-.067-.12-.138-.236-.197-.356-.51-1.044-1.128-2.042-1.265-3.24-.097-.85-.216-1.7-.014-2.54.194-.81.448-1.605.686-2.403.123-.411.036-.641-.356-.826a1.572 1.572 0 0 0-.433-.142 6.666 6.666 0 0 0-2.848.211c-.33.096-.57.282-.644.647-.042.21-.127.411-.186.618-.244.861-.417 1.739-.812 2.559-.988 2.057-2.116 4.037-3.27 6.002-.125.212-.257.42-.415.677-.405-.848-.837-1.61-.969-2.501-.148-1.01-.264-2.017-.013-3.018.187-.747.43-1.48.655-2.217.107-.35.058-.535-.26-.719a1.53 1.53 0 0 0-.522-.203 6.413 6.413 0 0 0-2.949.241c-.299.097-.456.29-.547.6-.27.91-.498 1.841-.876 2.706-1.527 3.504-3.1 6.989-4.67 10.473-.328.727-.712 1.43-1.081 2.138-.094.18-.23.338-.347.506-.094-.11-.13-.186-.13-.262 0-.448-.05-.91.035-1.342a94.843 94.843 0 0 1 .869-3.91c.259-1.072.56-2.134.847-3.199.096-.356.098-.69-.158-.989-.43-.502-1.33-.612-1.862-.225l-.236.133.045-.38c.113-.815.135-1.627-.088-2.43-.279-1-.993-1.575-2.03-1.543a4.35 4.35 0 0 0-1.44.274c-1.883.738-3.331 2.045-4.564 3.617a1.428 1.428 0 0 1-.417.36c-1.593.884-3.192 1.756-4.79 2.632l-1.778.975c-.477-.455-.91-.927-1.403-1.328-1.502-1.225-3.028-2.42-4.54-3.63-1.341-1.074-2.64-2.192-3.633-3.614-.74-1.058-1.216-2.215-1.262-3.522-.058-1.667.415-3.189 1.263-4.606 1.085-1.813 2.565-3.269 4.192-4.587 1.722-1.393 3.583-2.576 5.513-3.657 2.7-1.51 5.476-2.848 8.453-3.73 3.053-.906 6.15-1.425 9.344-1.063 1.256.142 2.476.43 3.596 1.044.857.47 1.56 1.085 1.888 2.046.323.947.313 1.906.089 2.867-.454 1.946-1.52 3.55-2.861 4.985-2.2 2.35-4.884 3.95-7.905 5.007a21.745 21.745 0 0 1-5.379 1.147c-1.503.126-2.975-.01-4.398-.53-.942-.346-1.763-.876-2.423-1.645-.118-.138-.269-.287-.488-.158-.216.127-.254.332-.182.54.121.344.232.703.42 1.012.472.774 1.16 1.335 1.919 1.816 1.455.926 3.082 1.237 4.77 1.31 2.56.11 5.058-.272 7.52-.959 3.516-.98 6.573-2.712 9.025-5.444 2.04-2.275 3.499-4.842 3.811-7.942.153-1.513-.01-2.995-.718-4.376-.768-1.495-1.99-2.607-3.45-3.373-2.128-1.116-4.424-1.765-6.793-1.765h-2.374c-2.87 0-5.645.822-8.341 1.803a57.275 57.275 0 0 0-5.986 2.59c-4.232 2.115-8.173 4.665-11.41 8.17-1.613 1.747-2.979 3.675-3.764 5.944a22.304 22.304 0 0 0-.612 2.063m15.334 19.836c-.183 2.456-1.297 4.448-3.116 6.06-1.023.907-2.197 1.553-3.564 1.78-.496.081-1.003.101-1.484-.104-.686-.293-.84-.902-.853-1.55-.02-1.033.342-1.967.838-2.857.648-1.158 1.597-2.042 2.611-2.867 1.598-1.3 3.33-2.4 5.105-3.44l.134-.055c.274 1.014.405 2.014.329 3.033zm13.857-10.674c-.13.785-.291 1.57-.52 2.33-.792 2.63-1.81 5.18-2.91 7.696-.203.466-.499.89-.756 1.331a.93.93 0 0 1-.156.184c-.318.315-.62.298-.78-.113-.188-.478-.303-.99-.403-1.496-.066-.34-.05-.697-.071-1.045.021-2.475.776-4.725 2.058-6.819.528-.864 1.103-1.687 1.981-2.233a3.454 3.454 0 0 1 .879-.389c.468-.131.756.085.678.554zm9.454 12.045 3.398-3.967c.142 1.473-2.363 4.415-3.398 3.967zm10.853-2.67c-.24.138-.502.238-.748.365-.226.116-.3 0-.307-.195a1.314 1.314 0 0 1 .051-.397c.46-1.619 1.304-3 2.56-4.124l.088-.044c.598 1.672-.093 3.508-1.645 4.397z" />

    <path class="storybook" fill="#fff" d="m1048.676 1391.335-2.87.179.224 5.968a.388.388 0 0 1-.629.318l-1.922-1.515-2.277 1.728a.388.388 0 0 1-.622-.326l.257-5.863-28.473 1.78a2.6 2.6 0 0 0-2.437 2.694l1.602 42.691a2.6 2.6 0 0 0 2.483 2.5l34.71 1.559a2.604 2.604 0 0 0 1.913-.718 2.597 2.597 0 0 0 .804-1.88v-46.52a2.598 2.598 0 0 0-.82-1.895 2.597 2.597 0 0 0-1.943-.7zm-17.211 8.795c6.77 0 10.467 3.621 10.467 10.51-.915.712-7.73 1.197-7.73.185.144-3.86-1.584-4.03-2.544-4.03-.913 0-2.45.275-2.45 2.343 0 5.101 13.156 4.826 13.156 15.12 0 5.792-4.705 8.99-10.706 8.99-6.194 0-11.606-2.505-10.995-11.193.24-1.02 8.114-.777 8.114 0-.096 3.585.72 4.64 2.784 4.64 1.584 0 2.305-.874 2.305-2.344 0-5.24-12.963-5.423-12.963-15.029 0-5.515 3.793-9.192 10.562-9.192z" />

    <g class="vitest" fill="#fff">
      <path d="m956.542 1407.011-13.554 19.598a1.167 1.167 0 0 1-1.921-.003 1.155 1.155 0 0 1-.2-.71l.542-10.82-8.757-1.857a1.164 1.164 0 0 1-.838-.704 1.153 1.153 0 0 1 .123-1.085l13.554-19.597a1.166 1.166 0 0 1 2.122.712l-.543 10.82 8.757 1.857a1.165 1.165 0 0 1 .838.704 1.152 1.152 0 0 1-.123 1.086z" />
      <path d="M916.728 1411.965a2.745 2.745 0 0 0-1.945 4.669l25.613 25.613a2.736 2.736 0 0 0 1.94.803h.012a2.733 2.733 0 0 0 1.94-.803l25.614-25.613a2.746 2.746 0 0 0-.016-3.865 2.743 2.743 0 0 0-3.865-.016l-12.76 12.759c-.018.017-.04.03-.058.047l-10.86 10.86-10.862-10.86c-.017-.017-.038-.029-.056-.046l-12.761-12.76a2.744 2.744 0 0 0-1.936-.788z" />
    </g>

    <g class="vue" fill="#fff">
      <path d="m178.404 1419.471 16.676-28.141h-9.77l-6.906 11.934v.006l-6.894-11.94h-9.781z" />
      <path d="m197.671 1391.342-19.267 32.513-19.267-32.513H148.56l29.844 51.708 29.845-51.708Z" />
    </g>

    <path class="webcomponents" fill="#fff" d="m402.221 1411.004 1.684 5.794-12.896 3.644s0 7.756-6.258 10.838c-6.258 3.085-11.12.471-11.12.471l-.78-2.24 9.286-2.525 2.057-7.945-5.985-5.883-8.595 2.6-.747-2.042s4.018-8.877 15.885-3.831c0 0 3.74 2.335 4.578 4.39zm1.684-.436 2.055-.59 1.654 5.92-2.153.648zm.725-.26 1.33-.33 1.654 5.92-2.153.648-.561-1.98.858-.334zm-3.833 1.06 1.422-.362 1.684 5.794-12.896 3.644s-.137 6.77-4.624 9.832c-4.483 3.062-9.532 2.968-12.754 1.479l-.359-1.036s8.772 2.062 13.113-4.529c2.618-4.344 2.57-7.473 2.57-7.473l12.946-3.503Zm-31.935 2.347 7.572-2.197 1.773 1.638-8.599 2.6zm-26.686 4.11 1.52 5.84 12.94-3.466s3.973 6.66 10.93 6.105c6.958-.555 9.791-5.284 9.791-5.284l-.478-2.33-9.264 2.586-5.83-5.773 2.126-8.12 8.716-2.16-.403-2.137s-7.992-5.573-15.608 4.835c0 0-2.015 3.92-1.686 6.118zm-1.67.485-2.067.545 1.607 5.929 2.183-.54zm-.755.146-1.312.399 1.607 5.929 2.183-.54-.528-1.992-.912.149zm3.835-1.048-1.41.417 1.52 5.84 12.94-3.466s3.587 5.74 9.01 6.076c5.418.336 9.707-2.322 11.711-5.256l-.215-1.074s-6.484 6.258-13.587 2.822c-4.472-2.395-6.03-5.11-6.03-5.11l-12.917 3.612Zm28.64-14.324-7.626 1.987-.689 2.31 8.718-2.16zM557.459 1391.333a7.547 7.547 0 0 0-7.551 7.546 7.54 7.54 0 0 0-10.666 0 7.547 7.547 0 0 0 0 10.68c-4.17 0-7.553 3.378-7.553 7.544 0 .04.004.076.005.114v22.952c0 1.922.96 2.883 2.883 2.883h45.766c1.922 0 2.883-.96 2.883-2.883v-23.073a7.546 7.546 0 0 0-7.54-7.545 7.566 7.566 0 0 0 0-10.68c-2.94-2.945-7.724-2.945-10.676 0a7.546 7.546 0 0 0-7.552-7.544zm.004 3.463a4.087 4.087 0 0 1 4.09 4.083c0 1.137-.47 2.152-1.202 2.894v8.353l5.914-5.91c0-1.045.398-2.087 1.191-2.887 1.603-1.598 4.194-1.598 5.78 0a4.085 4.085 0 0 1-2.892 6.976l-5.9 5.91h8.353a4.087 4.087 0 0 1 2.89-1.198 4.089 4.089 0 0 1 4.08 4.086v.01h-44.613v-.01a4.09 4.09 0 0 1 6.984-2.889h8.353l-5.913-5.908a4.11 4.11 0 0 1-2.89-1.195 4.08 4.08 0 0 1 0-5.78 4.086 4.086 0 0 1 5.782 0c.793.8 1.2 1.842 1.2 2.885l5.9 5.91v-8.352a4.113 4.113 0 0 1-1.2-2.895 4.088 4.088 0 0 1 4.092-4.083zm13.41 24.186c3.595 0 6.48 2.872 6.562 6.441h-3.66c-.079-1.548-1.329-2.789-2.902-2.789a2.935 2.935 0 0 0-2.924 2.934v9.515c0 1.621 1.32 2.934 2.924 2.934a2.928 2.928 0 0 0 2.932-2.929v-2.935h-2.787v-3.65h6.447v6.58a6.582 6.582 0 1 1-13.164 0v-9.566c.03-3.613 2.964-6.535 6.572-6.535zm-26.915 0c3.586 0 6.47 2.872 6.552 6.439h-3.648c-.08-1.549-1.34-2.788-2.904-2.788a2.938 2.938 0 0 0-2.935 2.934c0 .81.335 1.538.858 2.073h.001c.502.496 1.188.783 1.93.821v.037h.146c1.824 0 3.466.739 4.65 1.927a6.552 6.552 0 0 1 1.932 4.653 6.581 6.581 0 0 1-6.582 6.59c-3.585 0-6.47-2.872-6.552-6.446h3.646c.08 1.552 1.343 2.789 2.906 2.789a2.934 2.934 0 0 0 2.933-2.933c0-.805-.331-1.534-.866-2.066a2.897 2.897 0 0 0-2.067-.861 6.577 6.577 0 0 1-6.582-6.587 6.581 6.581 0 0 1 6.582-6.585zm6.904 0h3.65l2.766 13.34h.284l2.763-13.34h3.644l-4.693 22.685h-3.713z" />

    <g class="mathml" fill="#fff">
      <g>
        <path d="M-23.148 1781.976v-30.84h7.182l12.777 20.971h-3.789l12.425-20.972h7.181l.088 30.841H4.698l-.089-18.636h1.366l-9.296 15.596h-3.877l-9.561-15.596h1.674v18.636zM33.071 1781.976v-4.45l-.572-1.101v-8.195q0-1.983-1.234-3.04-1.19-1.101-3.833-1.101-1.718 0-3.48.572-1.763.529-2.997 1.498l-2.82-5.683q2.027-1.322 4.847-2.027 2.864-.749 5.684-.749 5.815 0 8.988 2.688 3.216 2.643 3.216 8.327v13.261zm-7.049.397q-2.864 0-4.846-.97-1.983-.969-3.04-2.643-1.014-1.674-1.014-3.745 0-2.203 1.102-3.789 1.145-1.63 3.48-2.467 2.335-.881 6.036-.881h5.64v4.361h-4.494q-2.027 0-2.864.661-.793.661-.793 1.763 0 1.101.837 1.762.837.66 2.291.66 1.366 0 2.467-.66 1.146-.705 1.675-2.115l1.145 3.084q-.66 2.468-2.6 3.745-1.894 1.234-5.022 1.234zM56.82 1782.373q-4.583 0-7.138-2.247-2.556-2.291-2.556-6.873v-20.487h8.371v20.399q0 1.277.705 2.026.705.705 1.807.705 1.498 0 2.555-.749l2.07 5.86q-1.056.705-2.599 1.013-1.542.353-3.216.353zm-13.174-18.064v-6.212H60.96v6.212zM65.851 1781.976v-32.691h8.371v15.597l-1.938-1.983q1.366-2.6 3.745-3.877 2.379-1.322 5.375-1.322 2.776 0 5.023 1.146 2.247 1.101 3.524 3.436 1.322 2.335 1.322 6.036v13.658h-8.371v-12.292q0-2.555-1.057-3.7-1.014-1.19-2.864-1.19-1.322 0-2.423.616-1.102.573-1.719 1.807-.617 1.233-.617 3.216v11.543z" transform="matrix(.4591 0 0 .4591 633.155 592.49)" />
      </g>
      <g aria-label="ML">
        <path d="M-23.292 1843.351v-54.332h12.651l22.51 36.946H5.192l21.888-36.946h12.652l.155 54.332H25.762l-.155-32.832h2.406l-16.377 27.477h-6.83l-16.844-27.477h2.95v32.832zM50.755 1843.351v-54.332h15.368v42.146h25.925v12.186z" transform="matrix(.4591 0 0 .4591 633.155 592.49)" />
      </g>
    </g>
  </g>
</svg>
