<?xml version="1.0" encoding="UTF-8" standalone="no"?>
<svg
   width="500"
   height="500"
   viewBox="0 0 500 500"
   version="1.1"
   id="svg216"
   sodipodi:docname="pattern_stars.svg"
   xml:space="preserve"
   inkscape:version="1.2.2 (b0a8486541, 2022-12-01)"
   xmlns:inkscape="http://www.inkscape.org/namespaces/inkscape"
   xmlns:sodipodi="http://sodipodi.sourceforge.net/DTD/sodipodi-0.dtd"
   xmlns="http://www.w3.org/2000/svg"
   xmlns:svg="http://www.w3.org/2000/svg"><defs
     id="defs220"><clipPath
       clipPathUnits="userSpaceOnUse"
       id="clipPath2583-6-7"><path
         sodipodi:nodetypes="ccccsccsccscsscscscscscssc"
         inkscape:connector-curvature="0"
         id="path2585-2-0"
         d="m 2069.1882,1849.7652 c 0,0 10.3318,-0.9393 13.7758,1.5654 3.4439,2.5047 30.9955,28.1778 32.874,29.4301 1.8786,1.2524 29.7433,13.4627 30.9956,15.0282 1.2523,1.5654 12.2104,18.159 12.2104,19.7244 0,1.5655 -0.6262,4.3832 -0.6262,4.3832 0,0 2.1916,8.4533 1.8785,10.3319 -0.3131,1.8785 -3.1308,8.1402 -3.1308,9.7056 0,1.5655 -1.2524,13.4628 -1.8786,15.0282 -0.6261,1.5654 -5.6355,5.6356 -6.8879,7.8272 -1.2523,2.1916 -5.3224,12.2103 -10.0187,17.2197 -4.6963,5.0094 -9.0795,6.2617 -12.8366,7.8272 -3.757,1.5654 -8.4533,10.0187 -15.3412,13.1496 -6.8879,3.1309 -13.1496,1.5654 -16.2805,2.1916 -3.1309,0.6262 -7.5141,7.5141 -16.2805,8.4533 -8.7664,0.9393 -15.3412,-4.3832 -18.7852,-4.3832 -3.4439,0 -6.2617,5.6356 -17.2197,2.1916 -10.9581,-3.4439 -11.2711,-8.7664 -14.402,-10.3318 -3.1309,-1.5654 -14.7151,-3.1309 -17.8459,-8.1403 -3.1309,-5.0093 -11.5842,-14.0888 -13.7758,-15.0281 -2.1916,-0.9393 -6.2618,-14.0889 -9.0796,-18.159 -2.8177,-4.0701 -4.6962,-15.6543 -5.0093,-18.4721 -0.3131,-2.8178 0.3131,-21.9161 1.8785,-25.6731 1.5654,-3.7571 12.2104,-18.7852 18.159,-21.2899 3.3327,-1.4032 14.7933,-5.2702 29.9381,-18.1597 12.2348,-10.4129 32.0436,-24.1447 37.6886,-24.42 z"
         style="fill:#e7d1dc;fill-opacity:1;stroke:none;stroke-width:0.26458332px;stroke-linecap:butt;stroke-linejoin:miter;stroke-opacity:1" /></clipPath><clipPath
       clipPathUnits="userSpaceOnUse"
       id="clipPath3583"><path
         sodipodi:nodetypes="ccccsccsccscsscscscscscssc"
         inkscape:connector-curvature="0"
         id="path3581"
         d="m 2069.1882,1849.7652 c 0,0 10.3318,-0.9393 13.7758,1.5654 3.4439,2.5047 30.9955,28.1778 32.874,29.4301 1.8786,1.2524 29.7433,13.4627 30.9956,15.0282 1.2523,1.5654 12.2104,18.159 12.2104,19.7244 0,1.5655 -0.6262,4.3832 -0.6262,4.3832 0,0 2.1916,8.4533 1.8785,10.3319 -0.3131,1.8785 -3.1308,8.1402 -3.1308,9.7056 0,1.5655 -1.2524,13.4628 -1.8786,15.0282 -0.6261,1.5654 -5.6355,5.6356 -6.8879,7.8272 -1.2523,2.1916 -5.3224,12.2103 -10.0187,17.2197 -4.6963,5.0094 -9.0795,6.2617 -12.8366,7.8272 -3.757,1.5654 -8.4533,10.0187 -15.3412,13.1496 -6.8879,3.1309 -13.1496,1.5654 -16.2805,2.1916 -3.1309,0.6262 -7.5141,7.5141 -16.2805,8.4533 -8.7664,0.9393 -15.3412,-4.3832 -18.7852,-4.3832 -3.4439,0 -6.2617,5.6356 -17.2197,2.1916 -10.9581,-3.4439 -11.2711,-8.7664 -14.402,-10.3318 -3.1309,-1.5654 -14.7151,-3.1309 -17.8459,-8.1403 -3.1309,-5.0093 -11.5842,-14.0888 -13.7758,-15.0281 -2.1916,-0.9393 -6.2618,-14.0889 -9.0796,-18.159 -2.8177,-4.0701 -4.6962,-15.6543 -5.0093,-18.4721 -0.3131,-2.8178 0.3131,-21.9161 1.8785,-25.6731 1.5654,-3.7571 12.2104,-18.7852 18.159,-21.2899 3.3327,-1.4032 14.7933,-5.2702 29.9381,-18.1597 12.2348,-10.4129 32.0436,-24.1447 37.6886,-24.42 z"
         style="fill:#e7d1dc;fill-opacity:1;stroke:none;stroke-width:0.26458332px;stroke-linecap:butt;stroke-linejoin:miter;stroke-opacity:1" /></clipPath><clipPath
       clipPathUnits="userSpaceOnUse"
       id="clipPath2583-6-7-9"><path
         sodipodi:nodetypes="ccccsccsccscsscscscscscssc"
         inkscape:connector-curvature="0"
         id="path2585-2-0-3"
         d="m 2069.1882,1849.7652 c 0,0 10.3318,-0.9393 13.7758,1.5654 3.4439,2.5047 30.9955,28.1778 32.874,29.4301 1.8786,1.2524 29.7433,13.4627 30.9956,15.0282 1.2523,1.5654 12.2104,18.159 12.2104,19.7244 0,1.5655 -0.6262,4.3832 -0.6262,4.3832 0,0 2.1916,8.4533 1.8785,10.3319 -0.3131,1.8785 -3.1308,8.1402 -3.1308,9.7056 0,1.5655 -1.2524,13.4628 -1.8786,15.0282 -0.6261,1.5654 -5.6355,5.6356 -6.8879,7.8272 -1.2523,2.1916 -5.3224,12.2103 -10.0187,17.2197 -4.6963,5.0094 -9.0795,6.2617 -12.8366,7.8272 -3.757,1.5654 -8.4533,10.0187 -15.3412,13.1496 -6.8879,3.1309 -13.1496,1.5654 -16.2805,2.1916 -3.1309,0.6262 -7.5141,7.5141 -16.2805,8.4533 -8.7664,0.9393 -15.3412,-4.3832 -18.7852,-4.3832 -3.4439,0 -6.2617,5.6356 -17.2197,2.1916 -10.9581,-3.4439 -11.2711,-8.7664 -14.402,-10.3318 -3.1309,-1.5654 -14.7151,-3.1309 -17.8459,-8.1403 -3.1309,-5.0093 -11.5842,-14.0888 -13.7758,-15.0281 -2.1916,-0.9393 -6.2618,-14.0889 -9.0796,-18.159 -2.8177,-4.0701 -4.6962,-15.6543 -5.0093,-18.4721 -0.3131,-2.8178 0.3131,-21.9161 1.8785,-25.6731 1.5654,-3.7571 12.2104,-18.7852 18.159,-21.2899 3.3327,-1.4032 14.7933,-5.2702 29.9381,-18.1597 12.2348,-10.4129 32.0436,-24.1447 37.6886,-24.42 z"
         style="fill:#e7d1dc;fill-opacity:1;stroke:none;stroke-width:0.26458332px;stroke-linecap:butt;stroke-linejoin:miter;stroke-opacity:1" /></clipPath><clipPath
       clipPathUnits="userSpaceOnUse"
       id="clipPath1351"><path
         style="fill:#72325e;fill-opacity:1;stroke:none;stroke-width:0.12318449px;stroke-linecap:butt;stroke-linejoin:miter;stroke-opacity:1"
         d="m 181.0892,65.796528 c -0.79191,0.088 -4.13549,11.79051 -5.5433,12.406439 -1.40783,0.615921 -11.79052,-0.175979 -11.26259,2.375702 0.52793,2.551684 10.91062,5.631294 11.35056,6.951123 0.43996,1.319842 -4.39943,12.05449 -2.90363,13.726288 1.49582,1.67178 8.62292,-8.007007 9.5908,-8.007007 0.96788,0 8.18296,6.863147 9.5028,6.951137 1.31983,0.088 -2.90363,-11.878518 -2.90363,-12.494436 0,-0.615921 7.83101,-8.446947 7.47906,-10.118736 -0.35197,-1.67178 -9.94275,4.047496 -10.47068,2.639669 -0.52794,-1.407819 -3.34359,-14.606159 -4.83939,-14.430179 z"
         id="path1353"
         inkscape:connector-curvature="0" /></clipPath><clipPath
       clipPathUnits="userSpaceOnUse"
       id="clipPath1351-6"><path
         style="fill:#72325e;fill-opacity:1;stroke:none;stroke-width:0.12318449px;stroke-linecap:butt;stroke-linejoin:miter;stroke-opacity:1"
         d="m 181.0892,65.796528 c -0.79191,0.088 -4.13549,11.79051 -5.5433,12.406439 -1.40783,0.615921 -11.79052,-0.175979 -11.26259,2.375702 0.52793,2.551684 10.91062,5.631294 11.35056,6.951123 0.43996,1.319842 -4.39943,12.05449 -2.90363,13.726288 1.49582,1.67178 8.62292,-8.007007 9.5908,-8.007007 0.96788,0 8.18296,6.863147 9.5028,6.951137 1.31983,0.088 -2.90363,-11.878518 -2.90363,-12.494436 0,-0.615921 7.83101,-8.446947 7.47906,-10.118736 -0.35197,-1.67178 -9.94275,4.047496 -10.47068,2.639669 -0.52794,-1.407819 -3.34359,-14.606159 -4.83939,-14.430179 z"
         id="path1353-0"
         inkscape:connector-curvature="0" /></clipPath><clipPath
       clipPathUnits="userSpaceOnUse"
       id="clipPath2723-1"><path
         inkscape:connector-curvature="0"
         id="path2725-2"
         d="m 2355.9087,1899.4248 c 0,0 11.2711,-30.0563 9.7057,-51.6592 -1.5654,-21.603 -17.5328,-39.1358 -34.4395,-42.2667 -16.9067,-3.1309 -33.5002,-6.2617 -47.9022,14.7151 -14.402,20.9768 -6.8879,37.5704 -3.1309,44.1452 3.757,6.5748 14.402,17.8459 19.7245,20.3506 5.3224,2.5047 12.7827,3.9784 12.7827,3.9784 0,0 12.5772,11.0497 23.2222,11.3628 10.6449,0.3131 20.0375,-0.6262 20.0375,-0.6262 z"
         style="fill:#d2814f;fill-opacity:1;stroke:none;stroke-width:0.26458332px;stroke-linecap:butt;stroke-linejoin:miter;stroke-opacity:1"
         sodipodi:nodetypes="cssssccsc" /></clipPath><clipPath
       clipPathUnits="userSpaceOnUse"
       id="clipPath2583-6-7-3"><path
         sodipodi:nodetypes="ccccsccsccscsscscscscscssc"
         inkscape:connector-curvature="0"
         id="path2585-2-0-6"
         d="m 2069.1882,1849.7652 c 0,0 10.3318,-0.9393 13.7758,1.5654 3.4439,2.5047 30.9955,28.1778 32.874,29.4301 1.8786,1.2524 29.7433,13.4627 30.9956,15.0282 1.2523,1.5654 12.2104,18.159 12.2104,19.7244 0,1.5655 -0.6262,4.3832 -0.6262,4.3832 0,0 2.1916,8.4533 1.8785,10.3319 -0.3131,1.8785 -3.1308,8.1402 -3.1308,9.7056 0,1.5655 -1.2524,13.4628 -1.8786,15.0282 -0.6261,1.5654 -5.6355,5.6356 -6.8879,7.8272 -1.2523,2.1916 -5.3224,12.2103 -10.0187,17.2197 -4.6963,5.0094 -9.0795,6.2617 -12.8366,7.8272 -3.757,1.5654 -8.4533,10.0187 -15.3412,13.1496 -6.8879,3.1309 -13.1496,1.5654 -16.2805,2.1916 -3.1309,0.6262 -7.5141,7.5141 -16.2805,8.4533 -8.7664,0.9393 -15.3412,-4.3832 -18.7852,-4.3832 -3.4439,0 -6.2617,5.6356 -17.2197,2.1916 -10.9581,-3.4439 -11.2711,-8.7664 -14.402,-10.3318 -3.1309,-1.5654 -14.7151,-3.1309 -17.8459,-8.1403 -3.1309,-5.0093 -11.5842,-14.0888 -13.7758,-15.0281 -2.1916,-0.9393 -6.2618,-14.0889 -9.0796,-18.159 -2.8177,-4.0701 -4.6962,-15.6543 -5.0093,-18.4721 -0.3131,-2.8178 0.3131,-21.9161 1.8785,-25.6731 1.5654,-3.7571 12.2104,-18.7852 18.159,-21.2899 3.3327,-1.4032 14.7933,-5.2702 29.9381,-18.1597 12.2348,-10.4129 32.0436,-24.1447 37.6886,-24.42 z"
         style="fill:#e7d1dc;fill-opacity:1;stroke:none;stroke-width:0.26458332px;stroke-linecap:butt;stroke-linejoin:miter;stroke-opacity:1" /></clipPath><clipPath
       clipPathUnits="userSpaceOnUse"
       id="clipPath3583-7"><path
         sodipodi:nodetypes="ccccsccsccscsscscscscscssc"
         inkscape:connector-curvature="0"
         id="path3581-5"
         d="m 2069.1882,1849.7652 c 0,0 10.3318,-0.9393 13.7758,1.5654 3.4439,2.5047 30.9955,28.1778 32.874,29.4301 1.8786,1.2524 29.7433,13.4627 30.9956,15.0282 1.2523,1.5654 12.2104,18.159 12.2104,19.7244 0,1.5655 -0.6262,4.3832 -0.6262,4.3832 0,0 2.1916,8.4533 1.8785,10.3319 -0.3131,1.8785 -3.1308,8.1402 -3.1308,9.7056 0,1.5655 -1.2524,13.4628 -1.8786,15.0282 -0.6261,1.5654 -5.6355,5.6356 -6.8879,7.8272 -1.2523,2.1916 -5.3224,12.2103 -10.0187,17.2197 -4.6963,5.0094 -9.0795,6.2617 -12.8366,7.8272 -3.757,1.5654 -8.4533,10.0187 -15.3412,13.1496 -6.8879,3.1309 -13.1496,1.5654 -16.2805,2.1916 -3.1309,0.6262 -7.5141,7.5141 -16.2805,8.4533 -8.7664,0.9393 -15.3412,-4.3832 -18.7852,-4.3832 -3.4439,0 -6.2617,5.6356 -17.2197,2.1916 -10.9581,-3.4439 -11.2711,-8.7664 -14.402,-10.3318 -3.1309,-1.5654 -14.7151,-3.1309 -17.8459,-8.1403 -3.1309,-5.0093 -11.5842,-14.0888 -13.7758,-15.0281 -2.1916,-0.9393 -6.2618,-14.0889 -9.0796,-18.159 -2.8177,-4.0701 -4.6962,-15.6543 -5.0093,-18.4721 -0.3131,-2.8178 0.3131,-21.9161 1.8785,-25.6731 1.5654,-3.7571 12.2104,-18.7852 18.159,-21.2899 3.3327,-1.4032 14.7933,-5.2702 29.9381,-18.1597 12.2348,-10.4129 32.0436,-24.1447 37.6886,-24.42 z"
         style="fill:#e7d1dc;fill-opacity:1;stroke:none;stroke-width:0.26458332px;stroke-linecap:butt;stroke-linejoin:miter;stroke-opacity:1" /></clipPath><clipPath
       clipPathUnits="userSpaceOnUse"
       id="clipPath2583-6-7-9-3"><path
         sodipodi:nodetypes="ccccsccsccscsscscscscscssc"
         inkscape:connector-curvature="0"
         id="path2585-2-0-3-5"
         d="m 2069.1882,1849.7652 c 0,0 10.3318,-0.9393 13.7758,1.5654 3.4439,2.5047 30.9955,28.1778 32.874,29.4301 1.8786,1.2524 29.7433,13.4627 30.9956,15.0282 1.2523,1.5654 12.2104,18.159 12.2104,19.7244 0,1.5655 -0.6262,4.3832 -0.6262,4.3832 0,0 2.1916,8.4533 1.8785,10.3319 -0.3131,1.8785 -3.1308,8.1402 -3.1308,9.7056 0,1.5655 -1.2524,13.4628 -1.8786,15.0282 -0.6261,1.5654 -5.6355,5.6356 -6.8879,7.8272 -1.2523,2.1916 -5.3224,12.2103 -10.0187,17.2197 -4.6963,5.0094 -9.0795,6.2617 -12.8366,7.8272 -3.757,1.5654 -8.4533,10.0187 -15.3412,13.1496 -6.8879,3.1309 -13.1496,1.5654 -16.2805,2.1916 -3.1309,0.6262 -7.5141,7.5141 -16.2805,8.4533 -8.7664,0.9393 -15.3412,-4.3832 -18.7852,-4.3832 -3.4439,0 -6.2617,5.6356 -17.2197,2.1916 -10.9581,-3.4439 -11.2711,-8.7664 -14.402,-10.3318 -3.1309,-1.5654 -14.7151,-3.1309 -17.8459,-8.1403 -3.1309,-5.0093 -11.5842,-14.0888 -13.7758,-15.0281 -2.1916,-0.9393 -6.2618,-14.0889 -9.0796,-18.159 -2.8177,-4.0701 -4.6962,-15.6543 -5.0093,-18.4721 -0.3131,-2.8178 0.3131,-21.9161 1.8785,-25.6731 1.5654,-3.7571 12.2104,-18.7852 18.159,-21.2899 3.3327,-1.4032 14.7933,-5.2702 29.9381,-18.1597 12.2348,-10.4129 32.0436,-24.1447 37.6886,-24.42 z"
         style="fill:#e7d1dc;fill-opacity:1;stroke:none;stroke-width:0.26458332px;stroke-linecap:butt;stroke-linejoin:miter;stroke-opacity:1" /></clipPath><clipPath
       clipPathUnits="userSpaceOnUse"
       id="clipPath1351-62"><path
         style="fill:#72325e;fill-opacity:1;stroke:none;stroke-width:0.12318449px;stroke-linecap:butt;stroke-linejoin:miter;stroke-opacity:1"
         d="m 181.0892,65.796528 c -0.79191,0.088 -4.13549,11.79051 -5.5433,12.406439 -1.40783,0.615921 -11.79052,-0.175979 -11.26259,2.375702 0.52793,2.551684 10.91062,5.631294 11.35056,6.951123 0.43996,1.319842 -4.39943,12.05449 -2.90363,13.726288 1.49582,1.67178 8.62292,-8.007007 9.5908,-8.007007 0.96788,0 8.18296,6.863147 9.5028,6.951137 1.31983,0.088 -2.90363,-11.878518 -2.90363,-12.494436 0,-0.615921 7.83101,-8.446947 7.47906,-10.118736 -0.35197,-1.67178 -9.94275,4.047496 -10.47068,2.639669 -0.52794,-1.407819 -3.34359,-14.606159 -4.83939,-14.430179 z"
         id="path1353-9"
         inkscape:connector-curvature="0" /></clipPath><clipPath
       clipPathUnits="userSpaceOnUse"
       id="clipPath1351-6-1"><path
         style="fill:#72325e;fill-opacity:1;stroke:none;stroke-width:0.12318449px;stroke-linecap:butt;stroke-linejoin:miter;stroke-opacity:1"
         d="m 181.0892,65.796528 c -0.79191,0.088 -4.13549,11.79051 -5.5433,12.406439 -1.40783,0.615921 -11.79052,-0.175979 -11.26259,2.375702 0.52793,2.551684 10.91062,5.631294 11.35056,6.951123 0.43996,1.319842 -4.39943,12.05449 -2.90363,13.726288 1.49582,1.67178 8.62292,-8.007007 9.5908,-8.007007 0.96788,0 8.18296,6.863147 9.5028,6.951137 1.31983,0.088 -2.90363,-11.878518 -2.90363,-12.494436 0,-0.615921 7.83101,-8.446947 7.47906,-10.118736 -0.35197,-1.67178 -9.94275,4.047496 -10.47068,2.639669 -0.52794,-1.407819 -3.34359,-14.606159 -4.83939,-14.430179 z"
         id="path1353-0-2"
         inkscape:connector-curvature="0" /></clipPath><clipPath
       clipPathUnits="userSpaceOnUse"
       id="clipPath2723-1-7"><path
         inkscape:connector-curvature="0"
         id="path2725-2-0"
         d="m 2355.9087,1899.4248 c 0,0 11.2711,-30.0563 9.7057,-51.6592 -1.5654,-21.603 -17.5328,-39.1358 -34.4395,-42.2667 -16.9067,-3.1309 -33.5002,-6.2617 -47.9022,14.7151 -14.402,20.9768 -6.8879,37.5704 -3.1309,44.1452 3.757,6.5748 14.402,17.8459 19.7245,20.3506 5.3224,2.5047 12.7827,3.9784 12.7827,3.9784 0,0 12.5772,11.0497 23.2222,11.3628 10.6449,0.3131 20.0375,-0.6262 20.0375,-0.6262 z"
         style="fill:#d2814f;fill-opacity:1;stroke:none;stroke-width:0.26458332px;stroke-linecap:butt;stroke-linejoin:miter;stroke-opacity:1"
         sodipodi:nodetypes="cssssccsc" /></clipPath><clipPath
       clipPathUnits="userSpaceOnUse"
       id="clipPath2583-6-7-93"><path
         sodipodi:nodetypes="ccccsccsccscsscscscscscssc"
         inkscape:connector-curvature="0"
         id="path2585-2-0-60"
         d="m 2069.1882,1849.7652 c 0,0 10.3318,-0.9393 13.7758,1.5654 3.4439,2.5047 30.9955,28.1778 32.874,29.4301 1.8786,1.2524 29.7433,13.4627 30.9956,15.0282 1.2523,1.5654 12.2104,18.159 12.2104,19.7244 0,1.5655 -0.6262,4.3832 -0.6262,4.3832 0,0 2.1916,8.4533 1.8785,10.3319 -0.3131,1.8785 -3.1308,8.1402 -3.1308,9.7056 0,1.5655 -1.2524,13.4628 -1.8786,15.0282 -0.6261,1.5654 -5.6355,5.6356 -6.8879,7.8272 -1.2523,2.1916 -5.3224,12.2103 -10.0187,17.2197 -4.6963,5.0094 -9.0795,6.2617 -12.8366,7.8272 -3.757,1.5654 -8.4533,10.0187 -15.3412,13.1496 -6.8879,3.1309 -13.1496,1.5654 -16.2805,2.1916 -3.1309,0.6262 -7.5141,7.5141 -16.2805,8.4533 -8.7664,0.9393 -15.3412,-4.3832 -18.7852,-4.3832 -3.4439,0 -6.2617,5.6356 -17.2197,2.1916 -10.9581,-3.4439 -11.2711,-8.7664 -14.402,-10.3318 -3.1309,-1.5654 -14.7151,-3.1309 -17.8459,-8.1403 -3.1309,-5.0093 -11.5842,-14.0888 -13.7758,-15.0281 -2.1916,-0.9393 -6.2618,-14.0889 -9.0796,-18.159 -2.8177,-4.0701 -4.6962,-15.6543 -5.0093,-18.4721 -0.3131,-2.8178 0.3131,-21.9161 1.8785,-25.6731 1.5654,-3.7571 12.2104,-18.7852 18.159,-21.2899 3.3327,-1.4032 14.7933,-5.2702 29.9381,-18.1597 12.2348,-10.4129 32.0436,-24.1447 37.6886,-24.42 z"
         style="fill:#e7d1dc;fill-opacity:1;stroke:none;stroke-width:0.26458332px;stroke-linecap:butt;stroke-linejoin:miter;stroke-opacity:1" /></clipPath><clipPath
       clipPathUnits="userSpaceOnUse"
       id="clipPath3583-6"><path
         sodipodi:nodetypes="ccccsccsccscsscscscscscssc"
         inkscape:connector-curvature="0"
         id="path3581-2"
         d="m 2069.1882,1849.7652 c 0,0 10.3318,-0.9393 13.7758,1.5654 3.4439,2.5047 30.9955,28.1778 32.874,29.4301 1.8786,1.2524 29.7433,13.4627 30.9956,15.0282 1.2523,1.5654 12.2104,18.159 12.2104,19.7244 0,1.5655 -0.6262,4.3832 -0.6262,4.3832 0,0 2.1916,8.4533 1.8785,10.3319 -0.3131,1.8785 -3.1308,8.1402 -3.1308,9.7056 0,1.5655 -1.2524,13.4628 -1.8786,15.0282 -0.6261,1.5654 -5.6355,5.6356 -6.8879,7.8272 -1.2523,2.1916 -5.3224,12.2103 -10.0187,17.2197 -4.6963,5.0094 -9.0795,6.2617 -12.8366,7.8272 -3.757,1.5654 -8.4533,10.0187 -15.3412,13.1496 -6.8879,3.1309 -13.1496,1.5654 -16.2805,2.1916 -3.1309,0.6262 -7.5141,7.5141 -16.2805,8.4533 -8.7664,0.9393 -15.3412,-4.3832 -18.7852,-4.3832 -3.4439,0 -6.2617,5.6356 -17.2197,2.1916 -10.9581,-3.4439 -11.2711,-8.7664 -14.402,-10.3318 -3.1309,-1.5654 -14.7151,-3.1309 -17.8459,-8.1403 -3.1309,-5.0093 -11.5842,-14.0888 -13.7758,-15.0281 -2.1916,-0.9393 -6.2618,-14.0889 -9.0796,-18.159 -2.8177,-4.0701 -4.6962,-15.6543 -5.0093,-18.4721 -0.3131,-2.8178 0.3131,-21.9161 1.8785,-25.6731 1.5654,-3.7571 12.2104,-18.7852 18.159,-21.2899 3.3327,-1.4032 14.7933,-5.2702 29.9381,-18.1597 12.2348,-10.4129 32.0436,-24.1447 37.6886,-24.42 z"
         style="fill:#e7d1dc;fill-opacity:1;stroke:none;stroke-width:0.26458332px;stroke-linecap:butt;stroke-linejoin:miter;stroke-opacity:1" /></clipPath><clipPath
       clipPathUnits="userSpaceOnUse"
       id="clipPath2583-6-7-9-6"><path
         sodipodi:nodetypes="ccccsccsccscsscscscscscssc"
         inkscape:connector-curvature="0"
         id="path2585-2-0-3-1"
         d="m 2069.1882,1849.7652 c 0,0 10.3318,-0.9393 13.7758,1.5654 3.4439,2.5047 30.9955,28.1778 32.874,29.4301 1.8786,1.2524 29.7433,13.4627 30.9956,15.0282 1.2523,1.5654 12.2104,18.159 12.2104,19.7244 0,1.5655 -0.6262,4.3832 -0.6262,4.3832 0,0 2.1916,8.4533 1.8785,10.3319 -0.3131,1.8785 -3.1308,8.1402 -3.1308,9.7056 0,1.5655 -1.2524,13.4628 -1.8786,15.0282 -0.6261,1.5654 -5.6355,5.6356 -6.8879,7.8272 -1.2523,2.1916 -5.3224,12.2103 -10.0187,17.2197 -4.6963,5.0094 -9.0795,6.2617 -12.8366,7.8272 -3.757,1.5654 -8.4533,10.0187 -15.3412,13.1496 -6.8879,3.1309 -13.1496,1.5654 -16.2805,2.1916 -3.1309,0.6262 -7.5141,7.5141 -16.2805,8.4533 -8.7664,0.9393 -15.3412,-4.3832 -18.7852,-4.3832 -3.4439,0 -6.2617,5.6356 -17.2197,2.1916 -10.9581,-3.4439 -11.2711,-8.7664 -14.402,-10.3318 -3.1309,-1.5654 -14.7151,-3.1309 -17.8459,-8.1403 -3.1309,-5.0093 -11.5842,-14.0888 -13.7758,-15.0281 -2.1916,-0.9393 -6.2618,-14.0889 -9.0796,-18.159 -2.8177,-4.0701 -4.6962,-15.6543 -5.0093,-18.4721 -0.3131,-2.8178 0.3131,-21.9161 1.8785,-25.6731 1.5654,-3.7571 12.2104,-18.7852 18.159,-21.2899 3.3327,-1.4032 14.7933,-5.2702 29.9381,-18.1597 12.2348,-10.4129 32.0436,-24.1447 37.6886,-24.42 z"
         style="fill:#e7d1dc;fill-opacity:1;stroke:none;stroke-width:0.26458332px;stroke-linecap:butt;stroke-linejoin:miter;stroke-opacity:1" /></clipPath><clipPath
       clipPathUnits="userSpaceOnUse"
       id="clipPath1351-8"><path
         style="fill:#72325e;fill-opacity:1;stroke:none;stroke-width:0.12318449px;stroke-linecap:butt;stroke-linejoin:miter;stroke-opacity:1"
         d="m 181.0892,65.796528 c -0.79191,0.088 -4.13549,11.79051 -5.5433,12.406439 -1.40783,0.615921 -11.79052,-0.175979 -11.26259,2.375702 0.52793,2.551684 10.91062,5.631294 11.35056,6.951123 0.43996,1.319842 -4.39943,12.05449 -2.90363,13.726288 1.49582,1.67178 8.62292,-8.007007 9.5908,-8.007007 0.96788,0 8.18296,6.863147 9.5028,6.951137 1.31983,0.088 -2.90363,-11.878518 -2.90363,-12.494436 0,-0.615921 7.83101,-8.446947 7.47906,-10.118736 -0.35197,-1.67178 -9.94275,4.047496 -10.47068,2.639669 -0.52794,-1.407819 -3.34359,-14.606159 -4.83939,-14.430179 z"
         id="path1353-7"
         inkscape:connector-curvature="0" /></clipPath><clipPath
       clipPathUnits="userSpaceOnUse"
       id="clipPath1351-6-9"><path
         style="fill:#72325e;fill-opacity:1;stroke:none;stroke-width:0.12318449px;stroke-linecap:butt;stroke-linejoin:miter;stroke-opacity:1"
         d="m 181.0892,65.796528 c -0.79191,0.088 -4.13549,11.79051 -5.5433,12.406439 -1.40783,0.615921 -11.79052,-0.175979 -11.26259,2.375702 0.52793,2.551684 10.91062,5.631294 11.35056,6.951123 0.43996,1.319842 -4.39943,12.05449 -2.90363,13.726288 1.49582,1.67178 8.62292,-8.007007 9.5908,-8.007007 0.96788,0 8.18296,6.863147 9.5028,6.951137 1.31983,0.088 -2.90363,-11.878518 -2.90363,-12.494436 0,-0.615921 7.83101,-8.446947 7.47906,-10.118736 -0.35197,-1.67178 -9.94275,4.047496 -10.47068,2.639669 -0.52794,-1.407819 -3.34359,-14.606159 -4.83939,-14.430179 z"
         id="path1353-0-20"
         inkscape:connector-curvature="0" /></clipPath><clipPath
       clipPathUnits="userSpaceOnUse"
       id="clipPath2723-1-2"><path
         inkscape:connector-curvature="0"
         id="path2725-2-3"
         d="m 2355.9087,1899.4248 c 0,0 11.2711,-30.0563 9.7057,-51.6592 -1.5654,-21.603 -17.5328,-39.1358 -34.4395,-42.2667 -16.9067,-3.1309 -33.5002,-6.2617 -47.9022,14.7151 -14.402,20.9768 -6.8879,37.5704 -3.1309,44.1452 3.757,6.5748 14.402,17.8459 19.7245,20.3506 5.3224,2.5047 12.7827,3.9784 12.7827,3.9784 0,0 12.5772,11.0497 23.2222,11.3628 10.6449,0.3131 20.0375,-0.6262 20.0375,-0.6262 z"
         style="fill:#d2814f;fill-opacity:1;stroke:none;stroke-width:0.26458332px;stroke-linecap:butt;stroke-linejoin:miter;stroke-opacity:1"
         sodipodi:nodetypes="cssssccsc" /></clipPath></defs><sodipodi:namedview
     id="namedview218"
     pagecolor="#ffffff"
     bordercolor="#000000"
     borderopacity="0.25"
     inkscape:showpageshadow="2"
     inkscape:pageopacity="0.0"
     inkscape:pagecheckerboard="0"
     inkscape:deskcolor="#d1d1d1"
     showgrid="false"
     inkscape:zoom="0.63232551"
     inkscape:cx="253.03423"
     inkscape:cy="83.81759"
     inkscape:window-width="840"
     inkscape:window-height="994"
     inkscape:window-x="840"
     inkscape:window-y="0"
     inkscape:window-maximized="0"
     inkscape:current-layer="svg216" /><rect
     fill="#1c1e26"
     width="500"
     height="500"
     x="0"
     y="0"
     id="rect2" /><path
     inkscape:connector-curvature="0"
     id="path5306"
     d="m 425.06099,183.76068 -13.90981,6.5202 11.30173,3.04277 1.73873,12.17111 7.38958,-13.47516 10.43237,3.91215 -6.52023,-11.30173 4.34681,-8.25896 -9.12831,2.6081 -5.65087,-10.86702 -3.91211,14.77917"
     style="fill:none;fill-rule:evenodd;stroke:#dad795;stroke-width:2.9234;stroke-linecap:round;stroke-linejoin:round;stroke-miterlimit:4;stroke-dasharray:none;stroke-opacity:1" /><path
     inkscape:connector-curvature="0"
     id="path5308"
     d="m 105.23934,439.83623 5.88734,6.96439 -10.28305,-4.39751 -6.668188,5.80097 -0.0962,-10.25938 -12.27101,-3.49677 10.84026,-2.51606 3.58318,-11.97457 4.972898,10.44577 10.08669,-0.68901 -5.69285,5.83823"
     style="fill:none;fill-rule:evenodd;stroke:#dad795;stroke-width:2.07576;stroke-linecap:round;stroke-linejoin:round;stroke-miterlimit:4;stroke-dasharray:none;stroke-opacity:1" /><path
     inkscape:connector-curvature="0"
     id="path878"
     d="m 87.571276,130.33037 -8.592497,-12.7344 -1.258732,11.63629 -11.755902,3.59969 14.455666,5.21722 -2.252076,10.9118 10.157681,-8.18927 8.831726,3.01756 -3.98813,-8.61527 9.862608,-7.26315 -15.206308,-1.57995"
     style="fill:none;fill-rule:evenodd;stroke:#dad795;stroke-width:2.9234;stroke-linecap:round;stroke-linejoin:round;stroke-miterlimit:4;stroke-dasharray:none;stroke-opacity:1" /><path
     inkscape:connector-curvature="0"
     id="path3104"
     d="m 374.59373,398.58265 -12.05718,-9.51947 2.33838,11.46819 -10.10515,7.00322 15.35756,0.57562 1.1718,11.07999 7.18729,-10.88969 9.33109,0.18981 -6.4185,-6.99508 7.18775,-9.9177 -14.96691,3.11769"
     style="fill:none;fill-rule:evenodd;stroke:#dad795;stroke-width:2.9234;stroke-linecap:round;stroke-linejoin:round;stroke-miterlimit:4;stroke-dasharray:none;stroke-opacity:1" /><path
     inkscape:connector-curvature="0"
     id="path3106"
     d="m 195.73669,276.26319 -3.59212,8.38213 -0.67095,-11.16374 -8.1723,-3.36592 9.13095,-4.67866 -2.36632,-12.53817 7.10255,8.56712 12.31177,-2.15634 -7.11455,9.12288 5.13145,8.71116 -7.76901,-2.47709"
     style="fill:none;fill-rule:evenodd;stroke:#dad795;stroke-width:2.07576;stroke-linecap:round;stroke-linejoin:round;stroke-miterlimit:4;stroke-dasharray:none;stroke-opacity:1" /><path
     inkscape:connector-curvature="0"
     id="path3108"
     d="m 276.75656,70.660183 7.54074,-13.384064 -10.96874,4.083449 -8.48143,-8.900804 1.80584,15.261867 -10.76556,2.870874 11.87002,5.417125 1.25523,9.248215 5.91854,-7.422865 10.90978,5.567849 -5.39434,-14.304863"
     style="fill:none;fill-rule:evenodd;stroke:#dad795;stroke-width:2.9234;stroke-linecap:round;stroke-linejoin:round;stroke-miterlimit:4;stroke-dasharray:none;stroke-opacity:1" /></svg>
