<?xml version="1.0" encoding="UTF-8" standalone="no"?>
<!-- Created with Inkscape (http://www.inkscape.org/) -->

<svg
   width="64"
   height="64"
   viewBox="0 0 16.933332 16.933333"
   version="1.1"
   id="svg8"
   inkscape:version="1.2.2 (b0a8486541, 2022-12-01)"
   sodipodi:docname="goose_pixel_merged.svg"
   xmlns:inkscape="http://www.inkscape.org/namespaces/inkscape"
   xmlns:sodipodi="http://sodipodi.sourceforge.net/DTD/sodipodi-0.dtd"
   xmlns="http://www.w3.org/2000/svg"
   xmlns:svg="http://www.w3.org/2000/svg"
   xmlns:rdf="http://www.w3.org/1999/02/22-rdf-syntax-ns#"
   xmlns:cc="http://creativecommons.org/ns#"
   xmlns:dc="http://purl.org/dc/elements/1.1/">
  <defs
     id="defs2" />
  <sodipodi:namedview
     id="base"
     pagecolor="#ffffff"
     bordercolor="#666666"
     borderopacity="1.0"
     inkscape:pageopacity="0.0"
     inkscape:pageshadow="2"
     inkscape:zoom="12.71032"
     inkscape:cx="18.921632"
     inkscape:cy="46.89103"
     inkscape:document-units="mm"
     inkscape:current-layer="layer1"
     showgrid="true"
     units="px"
     borderlayer="true"
     inkscape:showpageshadow="false"
     inkscape:window-width="1680"
     inkscape:window-height="994"
     inkscape:window-x="0"
     inkscape:window-y="0"
     inkscape:window-maximized="0"
     inkscape:snap-bbox="true"
     inkscape:object-nodes="false"
     inkscape:snap-others="false"
     fit-margin-top="0"
     fit-margin-left="0"
     fit-margin-right="0"
     fit-margin-bottom="0"
     inkscape:pagecheckerboard="false"
     inkscape:snap-bbox-midpoints="false"
     inkscape:snap-bbox-edge-midpoints="false"
     inkscape:bbox-nodes="true"
     inkscape:deskcolor="#d1d1d1">
    <inkscape:grid
       type="xygrid"
       id="grid815"
       spacingx="0.52916667"
       spacingy="0.52916667"
       empspacing="1"
       dotted="false"
       originx="0"
       originy="0" />
  </sodipodi:namedview>
  <metadata
     id="metadata5">
    <rdf:RDF>
      <cc:Work
         rdf:about="">
        <dc:format>image/svg+xml</dc:format>
        <dc:type
           rdf:resource="http://purl.org/dc/dcmitype/StillImage" />
      </cc:Work>
    </rdf:RDF>
  </metadata>
  <g
     inkscape:label="Layer 1"
     inkscape:groupmode="layer"
     id="layer1"
     transform="translate(0,-280.06665)">
    <path
       id="path3855-6-3"
       style="fill:#ffffff;fill-opacity:1;stroke:none;stroke-width:0.79375;stroke-miterlimit:4;stroke-dasharray:none;stroke-opacity:1"
       d="M 4.2333333 280.06665 L 4.2333333 280.59582 L 3.7041667 280.59582 L 3.175 280.59582 L 3.175 281.12498 L 2.6458333 281.12498 L 2.1166667 281.12498 L 2.1166667 281.65415 L 1.5875 281.65415 L 1.0583333 281.65415 L 1.0583333 282.18332 L 0.52916667 282.18332 L 0.52916667 282.71248 L 0.52916667 283.24165 L 0.52916667 283.77082 L 1.0583333 283.77082 L 1.0583333 284.29998 L 1.5875 284.29998 L 2.1166667 284.29998 L 2.1166667 284.82915 L 2.6458333 284.82915 L 3.175 284.82915 L 3.175 285.35832 L 3.7041667 285.35832 L 3.7041667 285.88748 L 3.7041667 286.41665 L 3.7041667 286.94582 L 3.7041667 287.47498 L 3.7041667 288.00415 L 3.7041667 288.53332 L 4.2333333 288.53332 L 4.2333333 289.06248 L 4.2333333 289.59165 L 4.2333333 290.12082 L 3.7041667 290.12082 L 3.7041667 290.64998 L 3.7041667 291.17915 L 3.7041667 291.70832 L 3.7041667 292.23748 L 3.7041667 292.76665 L 3.7041667 293.29582 L 3.7041667 293.82498 L 4.2333333 293.82498 L 4.2333333 294.35415 L 4.2333333 294.88332 L 4.7625 294.88332 L 4.7625 295.41248 L 5.2916667 295.41248 L 5.8208333 295.41248 L 5.8208333 295.94165 L 6.35 295.94165 L 6.35 296.47082 L 6.35 296.99998 L 6.8791667 296.99998 L 7.4083333 296.99998 L 7.9375 296.99998 L 8.4666667 296.99998 L 8.9958333 296.99998 L 9.525 296.99998 L 10.054167 296.99998 L 10.583333 296.99998 L 11.1125 296.99998 L 11.1125 296.47082 L 11.1125 295.94165 L 11.641667 295.94165 L 12.170833 295.94165 L 12.170833 295.41248 L 12.7 295.41248 L 12.7 294.88332 L 12.7 294.35415 L 12.7 293.82498 L 13.229167 293.82498 L 13.229167 293.29582 L 13.229167 292.76665 L 13.758333 292.76665 L 13.758333 292.23748 L 14.2875 292.23748 L 14.2875 291.70832 L 14.816667 291.70832 L 14.816667 291.17915 L 14.816667 290.64998 L 14.816667 290.12082 L 14.2875 290.12082 L 14.2875 289.59165 L 13.758333 289.59165 L 13.229167 289.59165 L 12.7 289.59165 L 12.170833 289.59165 L 11.641667 289.59165 L 11.641667 289.06248 L 11.1125 289.06248 L 10.583333 289.06248 L 10.583333 288.53332 L 10.054167 288.53332 L 9.525 288.53332 L 8.9958333 288.53332 L 8.4666667 288.53332 L 7.9375 288.53332 L 7.9375 288.00415 L 7.9375 287.47498 L 7.9375 286.94582 L 7.9375 286.41665 L 7.9375 285.88748 L 7.9375 285.35832 L 7.9375 284.82915 L 7.9375 284.29998 L 7.9375 283.77082 L 7.9375 283.24165 L 7.9375 282.71248 L 7.9375 282.18332 L 7.9375 281.65415 L 7.9375 281.12498 L 7.4083333 281.12498 L 7.4083333 280.59582 L 6.8791667 280.59582 L 6.8791667 280.06665 L 6.35 280.06665 L 5.8208333 280.06665 L 5.2916667 280.06665 L 4.7625 280.06665 L 4.2333333 280.06665 z " />
    <path
       id="path3855-6"
       style="opacity:1;fill:#652e03;fill-opacity:1;stroke:none;stroke-width:0.79375;stroke-miterlimit:4;stroke-dasharray:none;stroke-opacity:1"
       d="m 2.6458333,281.65415 v 0.52917 H 3.175 3.7041667 v -0.52917 H 3.175 Z m 0,0.52917 H 2.1166667 1.5875 v 0.52916 H 2.1166667 2.6458333 Z M 1.5875,282.71248 H 1.0583333 v 0.52917 H 1.5875 Z m 0,0.52917 v 0.52917 h 0.5291667 0.5291666 v -0.52917 H 2.1166667 Z m 1.0583333,0.52917 v 0.52916 H 3.175 3.7041667 v -0.52916 H 3.175 Z m 5.291667,11.64166 v 0.52917 h -0.529167 -0.529167 v 0.52917 h 0.529167 0.529167 0.529166 v -0.52917 -0.52917 z m 2.1166667,0 v 0.52917 0.52917 H 9.5250003 8.9958333 v 0.52916 h 0.529167 0.5291667 0.529166 v -0.52916 -0.52917 -0.52917 z" />
    <path
       id="path3855-2"
       style="opacity:1;fill:#27232a;fill-opacity:1;stroke:none;stroke-width:0.79375;stroke-miterlimit:4;stroke-dasharray:none;stroke-opacity:1"
       d="m 4.7625003,280.59582 v 0.52916 h 0.529166 0.529167 0.529167 v -0.52916 h -0.529167 -0.529167 z m 1.5875,0.52916 v 0.52917 h 0.529166 v -0.52917 z m 0.529166,0.52917 v 0.52917 0.52916 0.52917 0.52917 0.52916 0.52917 0.52917 0.52916 0.52917 0.52917 0.52916 0.52917 0.52917 0.52916 h 0.529167 v -0.52916 -0.52917 -0.52917 -0.52916 -0.52917 -0.52917 -0.52916 -0.52917 -0.52917 -0.52916 -0.52917 -0.52917 -0.52916 -0.52917 z m 0.529167,7.40833 v 0.52917 h 0.529167 0.529166 0.529167 0.529167 0.5291667 v -0.52917 H 9.5250003 8.9958333 8.4666663 7.9375003 Z m 2.6458337,0.52917 v 0.52917 h 0.529166 0.529167 v -0.52917 h -0.529167 z m 1.058333,0.52917 v 0.52916 h 0.529167 0.529166 0.529167 0.529167 0.529166 v -0.52916 H 13.229167 12.7 12.170833 11.641667 Z m 2.645833,0.52916 v 0.52917 H 14.2875 v -0.52917 z m 0,0.52917 H 13.229167 12.7 v 0.52917 0.52916 h 0.529167 v -0.52916 h 0.529166 z M 12.7,292.23748 h -0.529167 v 0.52917 0.52917 H 12.7 v -0.52917 z m -0.529167,1.05834 h -0.529166 v 0.52916 0.52917 0.52917 h 0.529166 v -0.52917 -0.52917 z m -0.529166,1.5875 H 11.1125 10.583333 10.054167 9.5250003 8.9958333 8.4666663 7.9375003 7.4083333 6.8791663 6.3500003 v 0.52916 h 0.529166 0.529167 0.529167 0.529166 0.529167 0.529167 0.5291667 0.529166 0.529167 0.529167 z m -5.2916667,0 v -0.52917 h -0.529167 -0.529167 v 0.52917 h 0.529167 z m -1.058334,-0.52917 v -0.52917 -0.52916 h -0.529166 v 0.52916 0.52917 z m -0.529166,-1.05833 v -0.52917 -0.52917 -0.52916 -0.52917 -0.52917 h -0.529167 v 0.52917 0.52917 0.52916 0.52917 0.52917 z m 0,-2.64584 h 0.529166 v -0.52916 -0.52917 -0.52917 -0.52916 -0.52917 -0.52917 h -0.529166 v 0.52917 0.52917 0.52916 0.52917 0.52917 z m 0,-9.525 H 4.2333333 3.7041667 v 0.52917 h 0.5291666 0.529167 z m 0.529166,1.05834 v 0.52916 0.52917 h 0.529167 v -0.52917 -0.52916 z m -1.5874996,2.11666 v 0.52917 h 0.5291666 0.529167 v -0.52917 h -0.529167 z m 1.0583336,0.52917 v 0.52917 0.52916 0.52917 h 0.529166 v -0.52917 -0.52916 -0.52917 z" />
    <path
       id="path3855-785"
       style="opacity:1;fill:#f87b1b;fill-opacity:1;stroke:none;stroke-width:0.79375;stroke-miterlimit:4;stroke-dasharray:none;stroke-opacity:1"
       d="m 2.6458333,282.18332 v 0.52916 H 2.1166667 1.5875 v 0.52917 h 0.5291667 0.5291666 v 0.52917 H 3.175 3.7041667 v -0.52917 -0.52917 -0.52916 H 3.175 Z" />
    <path
       id="path3855-08-6"
       style="opacity:1;fill:#a8bde3;fill-opacity:1;stroke:none;stroke-width:0.79375;stroke-miterlimit:4;stroke-dasharray:none;stroke-opacity:1"
       d="m 4.7625003,281.12498 v 0.52917 H 4.2333333 3.7041667 v 0.52917 0.52916 0.52917 0.52917 0.52916 h 0.5291666 0.529167 v 0.52917 h 0.529166 v 0.52917 0.52916 0.52917 h 0.529167 v 0.52917 0.52916 h -0.529167 v 0.52917 0.52917 0.52916 0.52917 0.52917 0.52916 0.52917 0.52917 h 0.529167 v 0.52916 0.52917 h 0.529167 v 0.52917 h 0.529166 v 0.52916 h 0.529167 v 0.52917 h 0.529167 0.529166 0.529167 v 0.52917 h 0.529167 0.5291667 0.529166 0.529167 0.529167 v -0.52917 -0.52917 -0.52916 h 0.529166 v -0.52917 -0.52917 H 12.7 v -0.52916 h -0.529167 v -0.52917 H 11.641667 11.1125 10.583333 v -0.52917 H 10.054167 9.5250003 v -0.52916 h -0.529167 v -0.52917 h -0.529167 -0.529166 -0.529167 v -0.52917 h -0.529167 v -0.52916 -0.52917 -0.52917 -0.52916 -0.52917 -0.52917 -0.52916 -0.52917 -0.52917 -0.52916 -0.52917 -0.52917 -0.52916 -0.52917 h -0.529166 v -0.52917 h -0.529167 -0.529167 z m 0.529166,1.05834 h 0.529167 v 0.52916 0.52917 h -0.529167 v -0.52917 z" />
    <path
       id="path3855-159-3"
       style="opacity:1;fill:#7c122b;fill-opacity:1;stroke:none;stroke-width:0.79375;stroke-miterlimit:4;stroke-dasharray:none;stroke-opacity:1"
       d="m 4.2333333,285.88748 v 0.52917 0.52917 0.52916 0.52917 h 0.529167 v -0.52917 h 0.529166 0.529167 v -0.52916 -0.52917 h -0.529167 -0.529166 v -0.52917 z" />
    <path
       id="path2966"
       style="opacity:1;fill:#6c8fd0;fill-opacity:1;stroke:none;stroke-width:0.79375;stroke-miterlimit:4;stroke-dasharray:none;stroke-opacity:1"
       d="m 4.7625003,290.64998 v 0.52917 0.52917 0.52916 0.52917 0.52917 h 0.529166 v 0.52916 0.52917 h 0.529167 0.529167 v 0.52917 h 0.529166 0.529167 0.529167 0.529166 0.529167 v -0.52917 h -0.529167 -0.529166 -0.529167 v -0.52917 h -0.529167 v -0.52916 h -0.529166 v -0.52917 h -0.529167 v -0.52917 -0.52916 h -0.529167 v -0.52917 -0.52917 z" />
    <path
       id="path2996-40"
       style="opacity:1;fill:#c4d3ec;fill-opacity:1;stroke:none;stroke-width:0.79375;stroke-miterlimit:4;stroke-dasharray:none;stroke-opacity:1"
       d="m 8.9958333,289.59165 v 0.52917 h 0.529167 v 0.52916 h 0.5291667 0.529166 v 0.52917 h 0.529167 0.529167 0.529166 v 0.52917 H 12.7 v -0.52917 h 0.529167 0.529166 v -0.52917 H 13.229167 12.7 12.170833 11.641667 11.1125 v -0.52916 h -0.529167 -0.529166 v -0.52917 H 9.5250003 Z" />
  </g>
</svg>
