<?xml version="1.0" encoding="UTF-8" standalone="no"?>
<!-- Created with Inkscape (http://www.inkscape.org/) -->

<svg
   width="800"
   height="800"
   viewBox="0 0 211.66666 211.66667"
   version="1.1"
   id="svg5"
   xml:space="preserve"
   sodipodi:docname="pigeon_exp.svg"
   inkscape:version="1.2.2 (b0a8486541, 2022-12-01)"
   xmlns:inkscape="http://www.inkscape.org/namespaces/inkscape"
   xmlns:sodipodi="http://sodipodi.sourceforge.net/DTD/sodipodi-0.dtd"
   xmlns="http://www.w3.org/2000/svg"
   xmlns:svg="http://www.w3.org/2000/svg"><sodipodi:namedview
     id="namedview7"
     pagecolor="#ffffff"
     bordercolor="#000000"
     borderopacity="0.25"
     inkscape:showpageshadow="2"
     inkscape:pageopacity="0.0"
     inkscape:pagecheckerboard="0"
     inkscape:deskcolor="#d1d1d1"
     inkscape:document-units="mm"
     showgrid="false"
     inkscape:zoom="0.14866305"
     inkscape:cx="763.47149"
     inkscape:cy="807.19452"
     inkscape:window-width="1680"
     inkscape:window-height="994"
     inkscape:window-x="0"
     inkscape:window-y="0"
     inkscape:window-maximized="1"
     inkscape:current-layer="layer1" /><defs
     id="defs2" /><g
     inkscape:label="Camada 1"
     inkscape:groupmode="layer"
     id="layer1"><path
       style="fill:#9f6d4d;fill-opacity:1;stroke:none;stroke-width:3.70004;stroke-opacity:1"
       d="m 79.625391,159.73936 c 0,0 0.385552,12.06583 -0.178142,12.598 -0.563696,0.53216 -2.866788,1.43475 -3.846382,1.43475 -0.979594,0 -7.315301,-0.135 -8.289492,1.17357 -0.974178,1.30863 -1.65257,3.44653 -0.434355,3.75661 1.218217,0.3101 10.864942,-0.98143 11.233632,-0.51636 0.368706,0.46511 1.404515,1.94953 3.013854,1.87227 1.60933,-0.0773 3.622865,-1.55886 3.622865,-1.55886 0,0 12.18358,1.06176 11.8253,0.17011 -0.35828,-0.89159 -2.13457,-3.75791 -3.3746,-4.04126 -1.24006,-0.28334 -7.341718,-0.81447 -7.93472,-1.65244 -0.592999,-0.83793 -0.23976,-12.95562 -0.23976,-12.95562 z"
       id="path11608" /><path
       style="fill:#9f6d4d;fill-opacity:1;stroke:none;stroke-width:3.70004;stroke-opacity:1"
       d="m 100.87255,161.29948 c 0,0 0.38555,12.06584 -0.17815,12.598 -0.56369,0.53215 -2.866779,1.43474 -3.846379,1.43474 -0.97959,0 -7.315294,-0.13499 -8.289481,1.17358 -0.974181,1.30864 -1.652572,3.44653 -0.434357,3.75662 1.218217,0.3101 10.864938,-0.98142 11.233628,-0.51636 0.36871,0.46511 1.404509,1.94953 3.013849,1.87227 1.60933,-0.0773 3.62287,-1.55886 3.62287,-1.55886 0,0 12.18358,1.06174 11.8253,0.17011 -0.35829,-0.89159 -2.13457,-3.75791 -3.37461,-4.04128 -1.24005,-0.28332 -7.34171,-0.81445 -7.93471,-1.65242 -0.593,-0.83793 -0.23976,-12.95562 -0.23976,-12.95562 z"
       id="path11610" /><path
       style="fill:#656e7f;fill-opacity:1;stroke:none;stroke-width:3.70004;stroke-opacity:1"
       d="m 73.484306,148.97173 c 0,0 2.37465,15.37893 6.861282,16.39894 4.486603,1.02001 12.351003,-5.6914 12.814773,-11.25749 0.46379,-5.56604 -19.676055,-5.14145 -19.676055,-5.14145 z"
       id="path11612" /><path
       style="fill:#656e7f;fill-opacity:1;stroke:none;stroke-width:3.70004;stroke-opacity:1"
       d="m 94.731471,150.53186 c 0,0 2.37464,15.37892 6.861279,16.39894 4.4866,1.02001 12.351,-5.69142 12.81477,-11.25749 0.4638,-5.56606 -19.676049,-5.14145 -19.676049,-5.14145 z"
       id="path11614" /><path
       style="fill:#2d3252;fill-opacity:1;stroke:none;stroke-width:3.70004;stroke-opacity:1"
       d="m 139.08171,147.12978 c 0,0 24.43316,14.8485 29.54239,14.38209 5.10918,-0.46638 9.7545,-2.60616 9.7545,-2.60616 0,0 8.80243,-2.72951 8.90328,-7.05289 0.10073,-4.32336 -18.71304,-11.98668 -23.58482,-12.45191 -4.87175,-0.46524 -25.945,-2.51336 -24.61535,7.72887 z"
       id="path11616" /><path
       style="fill:#72819c;fill-opacity:1;stroke:none;stroke-width:3.70004;stroke-opacity:1"
       d="m 39.773554,95.237859 c 0,0 -2.412432,8.828491 -1.658427,17.521281 0.754003,8.69281 6.086781,37.90365 49.209218,42.68036 43.122405,4.77667 54.455695,-5.17758 57.151575,-5.3022 2.69589,-0.12454 13.94177,2.13459 16.67287,0.24716 2.73112,-1.88741 -35.00769,-37.54364 -52.18034,-48.64226 -6.91292,-4.467791 -23.707201,3.63722 -36.363968,2.74508 C 59.947748,103.59515 41.69304,90.408729 39.773554,95.237859 Z"
       id="path11618"
       sodipodi:nodetypes="cssssssc" /><path
       style="fill:#454868;fill-opacity:1;stroke:none;stroke-width:3.70004;stroke-opacity:1"
       d="m 38.618902,97.767869 c 1.530032,9.936811 21.151568,13.934311 29.586452,15.067141 8.434889,1.13286 42.113036,-7.12642 42.016296,-11.70652 -0.10541,-4.991161 -7.42553,-16.024226 -10.500729,-24.444476 -3.07521,-8.42028 -6.07153,-10.09995 -8.23772,-19.17282 -1.280033,-5.36122 -0.7046,-22.31012 -15.967195,-22.14598 -15.262624,0.16412 -16.678147,10.46444 -19.404625,21.14928 -2.726509,10.68483 -7.509165,15.72721 -7.509165,15.72721 0,0 -11.643138,14.74649 -9.983314,25.526165 z"
       id="path11620"
       sodipodi:nodetypes="ssssssscs" /><ellipse
       style="fill:#ececec;fill-opacity:1;stroke:none;stroke-width:3.89428;stroke-opacity:1"
       id="ellipse11622"
       cx="-58.164108"
       cy="53.451336"
       rx="4.0395179"
       ry="2.6148989"
       transform="scale(-1,1)" /><path
       style="fill:#1a1a22;fill-opacity:1;stroke:none;stroke-width:3.70004;stroke-opacity:1"
       d="m 60.381999,57.921424 c -0.61929,2.10702 -4.44237,0.35215 -6.19692,1.10602 -2.383028,1.02387 -5.600057,3.58244 -5.892475,2.87629 -0.292386,-0.70614 0.837833,-5.041 2.52548,-6.50626 1.223609,-1.06236 4.398694,-2.40685 6.431599,-2.22576 1.621831,0.14459 3.564389,1.17344 3.132316,4.74971 z"
       id="path11624"
       sodipodi:nodetypes="cssssc" /><g
       id="g11630"
       transform="matrix(0.98274884,0,0,0.98274884,555.41802,-144.53703)"><circle
         style="fill:#f5f5f5;fill-opacity:1;stroke:none;stroke-width:3.76499;stroke-opacity:1"
         id="circle11626"
         cx="-492.23737"
         cy="199.8755"
         r="4.0925393" /><circle
         style="fill:#0a0026;fill-opacity:1;stroke:#8b38a9;stroke-width:0.906814;stroke-dasharray:none;stroke-opacity:1"
         id="circle11628"
         cx="-492.23737"
         cy="199.8755"
         r="2.6479139" /></g><g
       id="g11640"
       transform="matrix(0.98274884,0,0,0.98274884,557.91728,-144.53703)"><path
         style="fill:#848fa5;fill-opacity:1;stroke:none;stroke-width:3.76499;stroke-opacity:1"
         d="m -485.03591,234.51964 c -6.62945,7.39058 -13.27893,25.64061 0.21839,42.05709 13.4973,16.4165 69.92456,16.7314 86.32584,14.16093 16.40128,-2.57047 -16.65333,-29.43833 -31.18348,-39.29911 -14.53014,-9.86078 -31.40259,-41.43578 -55.36075,-16.91891 z"
         id="path11632"
         sodipodi:nodetypes="cszsc" /><path
         id="path11634"
         style="fill:#2d3252;fill-opacity:1;stroke:none;stroke-width:3.76499;stroke-opacity:1"
         d="m -402.91546,273.38745 c -1.3395,5.92447 -3.58068,13.19111 -7.17372,18.34875 4.76076,-0.20425 8.77959,-0.55672 11.59774,-0.99839 8.34342,-1.30761 3.87992,-8.90479 -4.42402,-17.35036 z" /><path
         id="path11636"
         style="fill:#2d3252;fill-opacity:1;stroke:none;stroke-width:3.76499;stroke-opacity:1"
         d="m -418.99871,259.28753 c -6.09814,13.78301 -13.35745,22.93596 -19.34714,28.81995 -1.0609,1.04217 -2.06338,1.96395 -3.01429,2.79879 5.46387,0.51652 10.92864,0.81675 16.11323,0.94413 5.29634,-6.06443 10.92009,-14.1067 15.89153,-24.54785 -3.13644,-2.78314 -6.45034,-5.51348 -9.64333,-8.01502 z" /><path
         id="path11638"
         style="fill:#2d3252;fill-opacity:1;stroke:none;stroke-width:3.76499;stroke-opacity:1"
         d="m -438.04923,244.18975 c -7.76192,16.84884 -17.05467,27.23846 -24.37836,33.4703 -4.2243,3.59453 -7.63544,5.73647 -9.82575,6.92878 4.52862,1.74171 9.77969,3.11319 15.37838,4.17597 0.75179,-0.59164 1.51875,-1.21642 2.29857,-1.87999 8.07657,-6.87248 17.86125,-17.85605 26.0966,-34.62372 -0.40837,-0.28342 -0.8115,-0.56224 -1.19528,-0.82269 -2.70018,-1.83246 -5.48176,-4.41576 -8.37416,-7.24865 z" /></g></g></svg>
