<?xml version="1.0" encoding="UTF-8" standalone="no"?>
<svg
   viewBox="0 0 128 128"
   version="1.1"
   id="svg10"
   sodipodi:docname="HTML5.svg"
   inkscape:version="1.2.2 (b0a8486541, 2022-12-01)"
   xmlns:inkscape="http://www.inkscape.org/namespaces/inkscape"
   xmlns:sodipodi="http://sodipodi.sourceforge.net/DTD/sodipodi-0.dtd"
   xmlns="http://www.w3.org/2000/svg"
   xmlns:svg="http://www.w3.org/2000/svg">
  <defs
     id="defs14" />
  <sodipodi:namedview
     id="namedview12"
     pagecolor="#ffffff"
     bordercolor="#000000"
     borderopacity="0.25"
     inkscape:showpageshadow="2"
     inkscape:pageopacity="0.0"
     inkscape:pagecheckerboard="0"
     inkscape:deskcolor="#d1d1d1"
     showgrid="false"
     inkscape:zoom="4.9789155"
     inkscape:cx="54.3291"
     inkscape:cy="78.330311"
     inkscape:window-width="1680"
     inkscape:window-height="994"
     inkscape:window-x="0"
     inkscape:window-y="0"
     inkscape:window-maximized="1"
     inkscape:current-layer="svg10" />
  <path
     id="path2"
     d="M 9.03125 1.6601562 L 19.037109 113.87695 L 63.933594 126.33984 L 108.95117 113.85938 L 118.96875 1.6601562 L 9.03125 1.6601562 z M 29.488281 24.599609 L 63.951172 24.599609 L 64 24.599609 L 98.429688 24.599609 L 98.099609 28.291016 L 97.472656 35.269531 L 97.195312 38.361328 L 64 38.361328 L 63.951172 38.361328 L 44.529297 38.361328 L 45.787109 52.455078 L 63.951172 52.455078 L 64 52.455078 L 92.234375 52.455078 L 95.943359 52.455078 L 95.607422 56.150391 L 92.373047 92.384766 L 92.167969 94.708984 L 64 102.51562 L 64 102.51758 L 63.9375 102.53516 L 35.744141 94.708984 L 33.816406 73.099609 L 47.632812 73.099609 L 48.611328 84.074219 L 63.939453 88.214844 L 63.951172 88.210938 L 63.976562 88.205078 L 64 88.197266 L 79.302734 84.066406 L 80.898438 66.21875 L 64 66.21875 L 63.951172 66.21875 L 33.201172 66.21875 L 29.818359 28.291016 L 29.488281 24.599609 z "
     style="fill:#ffffff" />
</svg>
