<?xml version="1.0" encoding="UTF-8" standalone="no"?>
<svg
   width="256px"
   height="234px"
   viewBox="0 0 256 234"
   version="1.1"
   preserveAspectRatio="xMidYMid"
   id="svg12"
   sodipodi:docname="vitest-1669125550-logotic-brand.svg"
   inkscape:version="1.2.2 (b0a8486541, 2022-12-01)"
   xmlns:inkscape="http://www.inkscape.org/namespaces/inkscape"
   xmlns:sodipodi="http://sodipodi.sourceforge.net/DTD/sodipodi-0.dtd"
   xmlns="http://www.w3.org/2000/svg"
   xmlns:svg="http://www.w3.org/2000/svg">
  <defs
     id="defs16" />
  <sodipodi:namedview
     id="namedview14"
     pagecolor="#ffffff"
     bordercolor="#000000"
     borderopacity="0.25"
     inkscape:showpageshadow="2"
     inkscape:pageopacity="0.0"
     inkscape:pagecheckerboard="0"
     inkscape:deskcolor="#d1d1d1"
     showgrid="false"
     inkscape:zoom="1.008547"
     inkscape:cx="41.148305"
     inkscape:cy="117"
     inkscape:window-width="1680"
     inkscape:window-height="994"
     inkscape:window-x="0"
     inkscape:window-y="0"
     inkscape:window-maximized="1"
     inkscape:current-layer="g10" />
  <title
     id="title2">vitest</title>
  <g
     id="g10">
    <path
       d="M192.115018,70.8083821 L130.914358,159.296327 C130.265568,160.234541 129.327185,160.937354 128.241634,161.298075 C127.156084,161.658796 125.982639,161.655409 124.899291,161.292995 C123.815942,160.928886 122.881962,160.222686 122.23876,159.282779 C121.595728,158.341178 121.278531,157.216676 121.335772,156.08032 L123.78512,107.225806 L84.2429694,98.839802 C83.3978997,98.6607962 82.6105792,98.2768738 81.950612,97.7222438 C81.2906447,97.1677833 80.7783529,96.4595505 80.4592925,95.6603753 C80.1402321,94.8612002 80.0242256,93.9958081 80.121434,93.1407466 C80.2186424,92.2858544 80.5260175,91.4675424 81.0164627,90.7584629 L142.217801,2.27034881 C142.86676,1.33162707 143.805143,0.628982928 144.890693,0.268769843 C145.976413,-0.0914432423 147.149858,-0.0895803631 148.233376,0.27435848 C149.316725,0.638127971 150.250874,1.34398981 150.893906,2.28491313 C151.536938,3.2256671 151.853966,4.34999934 151.796556,5.48737173 L149.347208,54.3423934 L188.88885,62.7277204 C189.73392,62.9067262 190.52141,63.2906486 191.181885,63.8451092 C191.842361,64.3997391 192.353806,65.1079719 192.672189,65.9071471 C192.992265,66.7063222 193.107425,67.5717143 193.010894,68.4266064 C192.914363,69.281668 192.606141,70.09998 192.115018,70.8090595 L192.115018,70.8083821 Z"
       fill="#FCC72B"
       id="path4"
       style="fill:#ffffff" />
    <path
       id="path6"
       d="M 12.341797 93.175781 C 9.072786 93.189095 5.9403813 94.493196 3.6289062 96.804688 C 1.3173804 99.116349 0.013413978 102.24661 0 105.51562 C -0.013208232 108.78464 1.2659676 111.92769 3.5585938 114.25781 L 119.21289 229.9082 C 120.36229 231.06149 121.72908 231.97444 123.23242 232.59766 C 124.73593 233.22087 126.3473 233.5388 127.97461 233.53711 C 127.98314 233.53712 127.99147 233.53516 128 233.53516 C 128.00852 233.53516 128.01687 233.53712 128.02539 233.53711 C 129.6527 233.5388 131.26424 233.22087 132.76758 232.59766 C 134.27109 231.97444 135.63593 231.06149 136.78516 229.9082 L 252.43945 114.25781 C 254.73248 111.92769 256.01177 108.78464 256 105.51562 C 255.98637 102.24661 254.6808 99.116349 252.36914 96.804688 C 250.05917 94.493196 246.9284 93.189095 243.6582 93.175781 C 240.3897 93.162506 237.24826 94.439728 234.91797 96.732422 L 177.30469 154.34375 C 177.22151 154.422 177.12223 154.47786 177.04102 154.55859 L 128 203.5957 L 78.957031 154.55859 C 78.878787 154.48078 78.783204 154.42707 78.703125 154.35156 L 21.082031 96.732422 C 18.751741 94.439728 15.610638 93.162506 12.341797 93.175781 z "
       style="fill:#ffffff" />
  </g>
</svg>
